<svg width="29" height="34" viewBox="0 0 29 34" fill="none" xmlns="http://www.w3.org/2000/svg">
<path d="M23.7779 18.1996C23.7392 14.0097 27.2965 11.9713 27.4592 11.8764C25.4445 9.0125 22.3219 8.6212 21.2245 8.59C18.6019 8.3209 16.0579 10.1201 14.7219 10.1201C13.3592 10.1201 11.3019 8.616 9.08455 8.6602C6.23121 8.7031 3.56188 10.3138 2.09788 12.815C-0.923453 17.9149 1.32988 25.4094 4.22455 29.5317C5.67255 31.5506 7.36455 33.8048 9.57921 33.7255C11.7459 33.6384 12.5552 32.3787 15.1699 32.3787C17.7605 32.3787 18.5205 33.7255 20.7792 33.6748C23.1045 33.6384 24.5685 31.6468 25.9659 29.6097C27.6392 27.2957 28.3112 25.0168 28.3379 24.8998C28.2832 24.8816 23.8219 23.2215 23.7779 18.1996Z" fill="white"/>
<path d="M19.5112 5.8782C20.6765 4.4573 21.4739 2.5242 21.2525 0.5625C19.5659 0.6353 17.4565 1.7 16.2419 3.0897C15.1672 4.3143 14.2072 6.3215 14.4552 8.2091C16.3499 8.3469 18.2952 7.277 19.5112 5.8782Z" fill="white"/>
</svg>
