<svg width="241" height="86" viewBox="0 0 241 86" fill="none" xmlns="http://www.w3.org/2000/svg">
<path d="M132.144 16.176C128.848 16.176 126.656 13.808 126.656 10.224C126.656 6.656 128.912 4.24 132.224 4.24C134.832 4.24 136.832 5.792 137.264 8.16H135.584C135.152 6.656 133.856 5.744 132.176 5.744C129.84 5.744 128.304 7.504 128.304 10.208C128.304 12.912 129.84 14.672 132.176 14.672C133.872 14.672 135.216 13.76 135.648 12.336H137.312C136.816 14.64 134.752 16.176 132.144 16.176ZM140.437 16H138.933V4.224H140.437V16ZM143.387 6.32C142.843 6.32 142.395 5.872 142.395 5.328C142.395 4.768 142.843 4.336 143.387 4.336C143.931 4.336 144.379 4.768 144.379 5.328C144.379 5.872 143.931 6.32 143.387 6.32ZM142.651 16V8.176H144.155V16H142.651ZM145.826 12.096C145.826 9.648 147.378 7.952 149.666 7.952C151.634 7.952 153.01 9.072 153.282 10.816H151.778C151.522 9.824 150.722 9.296 149.714 9.296C148.29 9.296 147.314 10.384 147.314 12.08C147.314 13.76 148.226 14.848 149.65 14.848C150.722 14.848 151.522 14.288 151.794 13.36H153.298C152.994 15.056 151.538 16.192 149.65 16.192C147.346 16.192 145.826 14.56 145.826 12.096ZM156.421 16H154.917V4.224H156.421V11.856L159.893 8.176H161.781L158.789 11.296L161.765 16H160.037L157.749 12.384L156.421 13.776V16ZM168.889 15.984H167.385V4.224H168.889V9.376C169.385 8.528 170.329 7.952 171.545 7.952C173.545 7.952 174.505 9.216 174.505 11.216V16H173.001V11.552C173.001 9.968 172.249 9.328 171.129 9.328C169.673 9.328 168.889 10.384 168.889 11.728V15.984ZM179.964 16.192C177.66 16.192 176.076 14.528 176.076 12.096C176.076 9.648 177.628 7.952 179.9 7.952C182.124 7.952 183.58 9.488 183.58 11.808V12.368L177.532 12.384C177.644 14.032 178.508 14.944 179.996 14.944C181.164 14.944 181.932 14.464 182.188 13.568H183.596C183.212 15.248 181.9 16.192 179.964 16.192ZM179.9 9.216C178.588 9.216 177.756 10 177.564 11.376H182.076C182.076 10.08 181.228 9.216 179.9 9.216ZM189.74 8.112V9.488H189.068C187.644 9.488 186.764 10.352 186.764 11.856V16H185.26V8.192H186.668L186.764 9.376C187.084 8.56 187.868 8.016 188.94 8.016C189.212 8.016 189.436 8.048 189.74 8.112ZM194.245 16.192C191.941 16.192 190.357 14.528 190.357 12.096C190.357 9.648 191.909 7.952 194.181 7.952C196.405 7.952 197.861 9.488 197.861 11.808V12.368L191.813 12.384C191.925 14.032 192.789 14.944 194.277 14.944C195.445 14.944 196.213 14.464 196.469 13.568H197.877C197.493 15.248 196.181 16.192 194.245 16.192ZM194.181 9.216C192.869 9.216 192.037 10 191.845 11.376H196.357C196.357 10.08 195.509 9.216 194.181 9.216ZM206.124 16H204.62V9.44H203.084V8.176H204.62V5.728H206.124V8.176H207.66V9.44H206.124V16ZM208.42 12.08C208.42 9.664 210.148 7.968 212.5 7.968C214.836 7.968 216.564 9.664 216.564 12.08C216.564 14.496 214.836 16.192 212.5 16.192C210.148 16.192 208.42 14.496 208.42 12.08ZM209.94 12.08C209.94 13.712 210.98 14.848 212.5 14.848C214.004 14.848 215.06 13.712 215.06 12.08C215.06 10.448 214.004 9.312 212.5 9.312C210.98 9.312 209.94 10.448 209.94 12.08ZM132.144 35.176C128.848 35.176 126.656 32.808 126.656 29.224C126.656 25.656 128.912 23.24 132.224 23.24C134.832 23.24 136.832 24.792 137.264 27.16H135.584C135.152 25.656 133.856 24.744 132.176 24.744C129.84 24.744 128.304 26.504 128.304 29.208C128.304 31.912 129.84 33.672 132.176 33.672C133.872 33.672 135.216 32.76 135.648 31.336H137.312C136.816 33.64 134.752 35.176 132.144 35.176ZM140.405 34.984H138.901V23.224H140.405V28.376C140.901 27.528 141.845 26.952 143.061 26.952C145.061 26.952 146.021 28.216 146.021 30.216V35H144.517V30.552C144.517 28.968 143.765 28.328 142.645 28.328C141.189 28.328 140.405 29.384 140.405 30.728V34.984ZM150.392 35.192C148.712 35.192 147.72 34.248 147.72 32.824C147.72 31.384 148.792 30.488 150.632 30.344L153.096 30.152V29.928C153.096 28.616 152.312 28.152 151.256 28.152C149.992 28.152 149.272 28.712 149.272 29.656H147.96C147.96 28.024 149.304 26.952 151.32 26.952C153.256 26.952 154.568 27.976 154.568 30.088V35H153.288L153.128 33.736C152.728 34.632 151.656 35.192 150.392 35.192ZM150.824 34.024C152.248 34.024 153.112 33.096 153.112 31.624V31.208L151.112 31.368C149.784 31.496 149.24 32.008 149.24 32.776C149.24 33.608 149.848 34.024 150.824 34.024ZM158.155 35H156.651V27.176H158.011L158.171 28.376C158.667 27.48 159.659 26.952 160.763 26.952C162.827 26.952 163.771 28.216 163.771 30.216V35H162.267V30.552C162.267 28.968 161.531 28.328 160.379 28.328C158.971 28.328 158.155 29.336 158.155 30.856V35ZM165.358 30.888C165.358 28.68 166.782 26.952 169.054 26.952C170.318 26.952 171.294 27.528 171.79 28.504L171.902 27.176H173.246V34.68C173.246 37.144 171.726 38.712 169.326 38.712C167.198 38.712 165.742 37.512 165.454 35.528H166.958C167.15 36.68 168.014 37.352 169.326 37.352C170.798 37.352 171.758 36.392 171.758 34.904V33.336C171.246 34.248 170.222 34.792 168.99 34.792C166.766 34.792 165.358 33.08 165.358 30.888ZM166.862 30.856C166.862 32.328 167.774 33.48 169.246 33.48C170.766 33.48 171.694 32.392 171.694 30.856C171.694 29.352 170.798 28.264 169.262 28.264C167.758 28.264 166.862 29.416 166.862 30.856ZM178.792 35.192C176.488 35.192 174.904 33.528 174.904 31.096C174.904 28.648 176.456 26.952 178.728 26.952C180.952 26.952 182.408 28.488 182.408 30.808V31.368L176.36 31.384C176.472 33.032 177.336 33.944 178.824 33.944C179.992 33.944 180.76 33.464 181.016 32.568H182.424C182.04 34.248 180.728 35.192 178.792 35.192ZM178.728 28.216C177.416 28.216 176.584 29 176.392 30.376H180.904C180.904 29.08 180.056 28.216 178.728 28.216ZM189.967 35H188.463V27.176H189.807L189.951 28.2C190.351 27.464 191.183 26.952 192.287 26.952C193.503 26.952 194.367 27.56 194.767 28.536C195.135 27.56 196.079 26.952 197.295 26.952C199.087 26.952 200.175 28.072 200.175 29.88V35H198.703V30.248C198.703 29.016 198.015 28.312 196.959 28.312C195.823 28.312 195.071 29.112 195.071 30.36V35H193.583V30.232C193.583 29 192.911 28.328 191.855 28.328C190.719 28.328 189.967 29.112 189.967 30.36V35ZM201.748 31.08C201.748 28.664 203.476 26.968 205.828 26.968C208.164 26.968 209.892 28.664 209.892 31.08C209.892 33.496 208.164 35.192 205.828 35.192C203.476 35.192 201.748 33.496 201.748 31.08ZM203.268 31.08C203.268 32.712 204.308 33.848 205.828 33.848C207.332 33.848 208.388 32.712 208.388 31.08C208.388 29.448 207.332 28.312 205.828 28.312C204.308 28.312 203.268 29.448 203.268 31.08ZM214.693 35.192C212.421 35.192 211.045 33.496 211.045 31.112C211.045 28.712 212.437 26.952 214.757 26.952C215.957 26.952 216.965 27.48 217.493 28.44V23.224H218.981V35H217.637L217.509 33.576C216.997 34.648 215.941 35.192 214.693 35.192ZM214.997 33.832C216.533 33.832 217.477 32.696 217.477 31.064C217.477 29.464 216.533 28.312 214.997 28.312C213.461 28.312 212.565 29.464 212.565 31.064C212.565 32.68 213.461 33.832 214.997 33.832ZM224.527 35.192C222.223 35.192 220.639 33.528 220.639 31.096C220.639 28.648 222.191 26.952 224.463 26.952C226.687 26.952 228.142 28.488 228.142 30.808V31.368L222.095 31.384C222.207 33.032 223.071 33.944 224.559 33.944C225.727 33.944 226.495 33.464 226.751 32.568H228.159C227.775 34.248 226.463 35.192 224.527 35.192ZM224.463 28.216C223.151 28.216 222.319 29 222.127 30.376H226.639C226.639 29.08 225.791 28.216 224.463 28.216ZM229.182 32.728H230.622C230.622 33.528 231.23 34.008 232.222 34.008C233.278 34.008 233.886 33.576 233.886 32.856C233.886 32.328 233.63 32.008 232.814 31.8L231.438 31.48C230.046 31.144 229.39 30.456 229.39 29.304C229.39 27.864 230.606 26.952 232.334 26.952C234.046 26.952 235.166 27.912 235.198 29.4H233.758C233.726 28.616 233.198 28.12 232.286 28.12C231.342 28.12 230.814 28.536 230.814 29.256C230.814 29.784 231.198 30.136 231.966 30.328L233.342 30.664C234.67 30.984 235.326 31.592 235.326 32.76C235.326 34.248 234.046 35.192 232.19 35.192C230.35 35.192 229.182 34.216 229.182 32.728ZM238.021 35.192C237.397 35.192 236.868 34.68 236.868 34.072C236.868 33.448 237.397 32.936 238.021 32.936C238.629 32.936 239.157 33.448 239.157 34.072C239.157 34.68 238.629 35.192 238.021 35.192Z" fill="#FF34C1"/>
<path fill-rule="evenodd" clip-rule="evenodd" d="M111.075 20.7377L110.618 22.3648C100.127 19.7039 84.0241 17.4238 74.9008 24.5771L73.862 25.4035L75.1465 25.7383C81.8887 27.4526 90.2562 32.2195 92.6134 39.1975C94.1247 43.6908 92.4861 47.6374 88.6785 50.3153C83.6405 53.9189 77.7145 54.1259 72.9791 49.8991C66.9928 44.5359 65.6302 34.2804 70.0246 27.5181L70.6102 26.6459L69.57 26.5489C40.2657 23.6627 25.2465 56.092 19.5339 79.5557L19.1586 81.1594L29.1018 74.5625L29.9928 75.9783L17.1761 84.3689L8.78547 71.5573L10.2018 70.6663L17.288 81.3889L17.6171 79.9305C23.0923 57.019 36.7254 26.3518 64.1409 24.8092C66.61 24.6717 69.1375 24.7373 71.5318 25.1052L71.8514 25.1454L72.0892 24.901C81.6393 15.5573 99.2819 17.835 111.086 20.7783L111.075 20.7377ZM73.9941 48.6835C78.2988 52.3301 83.0337 52.1134 87.6483 49.0275C90.8871 46.8209 92.2944 43.6008 90.9933 39.839C88.6945 33.0643 79.9498 28.6697 73.4231 27.2455L72.4292 27.0031L72.1857 27.3811C71.6871 28.0963 71.2291 28.7999 70.7828 29.5441C67.445 35.6948 68.7409 44.0336 73.9941 48.6835Z" fill="#FF34C1" fill-opacity="0.8"/>
</svg>
