<svg width="104" height="23" viewBox="0 0 104 23" fill="none" xmlns="http://www.w3.org/2000/svg">
<path d="M41.4912 9.099C39.6372 9.099 38.4042 7.767 38.4042 5.751C38.4042 3.744 39.6732 2.385 41.5362 2.385C43.0032 2.385 44.1282 3.258 44.3712 4.59H43.4262C43.1832 3.744 42.4542 3.231 41.5092 3.231C40.1952 3.231 39.3312 4.221 39.3312 5.742C39.3312 7.263 40.1952 8.253 41.5092 8.253C42.4632 8.253 43.2192 7.74 43.4622 6.939H44.3982C44.1192 8.235 42.9582 9.099 41.4912 9.099ZM46.1557 9H45.3097V2.376H46.1557V9ZM47.8151 3.555C47.5091 3.555 47.2571 3.303 47.2571 2.997C47.2571 2.682 47.5091 2.439 47.8151 2.439C48.1211 2.439 48.3731 2.682 48.3731 2.997C48.3731 3.303 48.1211 3.555 47.8151 3.555ZM47.4011 9V4.599H48.2471V9H47.4011ZM49.1873 6.804C49.1873 5.427 50.0603 4.473 51.3473 4.473C52.4543 4.473 53.2283 5.103 53.3813 6.084H52.5353C52.3913 5.526 51.9413 5.229 51.3743 5.229C50.5733 5.229 50.0243 5.841 50.0243 6.795C50.0243 7.74 50.5373 8.352 51.3383 8.352C51.9413 8.352 52.3913 8.037 52.5443 7.515H53.3903C53.2193 8.469 52.4003 9.108 51.3383 9.108C50.0423 9.108 49.1873 8.19 49.1873 6.804ZM55.1469 9H54.3009V2.376H55.1469V6.669L57.0999 4.599H58.1619L56.4789 6.354L58.1529 9H57.1809L55.8939 6.966L55.1469 7.749V9ZM62.1601 8.991H61.3141V2.376H62.1601V5.274C62.4391 4.797 62.9701 4.473 63.6541 4.473C64.7791 4.473 65.3191 5.184 65.3191 6.309V9H64.4731V6.498C64.4731 5.607 64.0501 5.247 63.4201 5.247C62.6011 5.247 62.1601 5.841 62.1601 6.597V8.991ZM68.3899 9.108C67.0939 9.108 66.2029 8.172 66.2029 6.804C66.2029 5.427 67.0759 4.473 68.3539 4.473C69.6049 4.473 70.4239 5.337 70.4239 6.642V6.957L67.0219 6.966C67.0849 7.893 67.5709 8.406 68.4079 8.406C69.0649 8.406 69.4969 8.136 69.6409 7.632H70.4329C70.2169 8.577 69.4789 9.108 68.3899 9.108ZM68.3539 5.184C67.6159 5.184 67.1479 5.625 67.0399 6.399H69.5779C69.5779 5.67 69.1009 5.184 68.3539 5.184ZM73.8888 4.563V5.337H73.5108C72.7098 5.337 72.2148 5.823 72.2148 6.669V9H71.3688V4.608H72.1608L72.2148 5.274C72.3948 4.815 72.8358 4.509 73.4388 4.509C73.5918 4.509 73.7178 4.527 73.8888 4.563ZM76.4231 9.108C75.1271 9.108 74.2361 8.172 74.2361 6.804C74.2361 5.427 75.1091 4.473 76.3871 4.473C77.6381 4.473 78.4571 5.337 78.4571 6.642V6.957L75.0551 6.966C75.1181 7.893 75.6041 8.406 76.4411 8.406C77.0981 8.406 77.5301 8.136 77.6741 7.632H78.4661C78.2501 8.577 77.5121 9.108 76.4231 9.108ZM76.3871 5.184C75.6491 5.184 75.1811 5.625 75.0731 6.399H77.6111C77.6111 5.67 77.1341 5.184 76.3871 5.184ZM83.105 9H82.259V5.31H81.395V4.599H82.259V3.222H83.105V4.599H83.969V5.31H83.105V9ZM84.3963 6.795C84.3963 5.436 85.3683 4.482 86.6913 4.482C88.0053 4.482 88.9773 5.436 88.9773 6.795C88.9773 8.154 88.0053 9.108 86.6913 9.108C85.3683 9.108 84.3963 8.154 84.3963 6.795ZM85.2513 6.795C85.2513 7.713 85.8363 8.352 86.6913 8.352C87.5373 8.352 88.1313 7.713 88.1313 6.795C88.1313 5.877 87.5373 5.238 86.6913 5.238C85.8363 5.238 85.2513 5.877 85.2513 6.795ZM41.4912 20.099C39.6372 20.099 38.4042 18.767 38.4042 16.751C38.4042 14.744 39.6732 13.385 41.5362 13.385C43.0032 13.385 44.1282 14.258 44.3712 15.59H43.4262C43.1832 14.744 42.4542 14.231 41.5092 14.231C40.1952 14.231 39.3312 15.221 39.3312 16.742C39.3312 18.263 40.1952 19.253 41.5092 19.253C42.4632 19.253 43.2192 18.74 43.4622 17.939H44.3982C44.1192 19.235 42.9582 20.099 41.4912 20.099ZM46.1377 19.991H45.2917V13.376H46.1377V16.274C46.4167 15.797 46.9477 15.473 47.6317 15.473C48.7567 15.473 49.2967 16.184 49.2967 17.309V20H48.4507V17.498C48.4507 16.607 48.0277 16.247 47.3977 16.247C46.5787 16.247 46.1377 16.841 46.1377 17.597V19.991ZM51.7554 20.108C50.8104 20.108 50.2524 19.577 50.2524 18.776C50.2524 17.966 50.8554 17.462 51.8904 17.381L53.2764 17.273V17.147C53.2764 16.409 52.8354 16.148 52.2414 16.148C51.5304 16.148 51.1254 16.463 51.1254 16.994H50.3874C50.3874 16.076 51.1434 15.473 52.2774 15.473C53.3664 15.473 54.1044 16.049 54.1044 17.237V20H53.3844L53.2944 19.289C53.0694 19.793 52.4664 20.108 51.7554 20.108ZM51.9984 19.451C52.7994 19.451 53.2854 18.929 53.2854 18.101V17.867L52.1604 17.957C51.4134 18.029 51.1074 18.317 51.1074 18.749C51.1074 19.217 51.4494 19.451 51.9984 19.451ZM56.1221 20H55.2761V15.599H56.0411L56.1311 16.274C56.4101 15.77 56.9681 15.473 57.5891 15.473C58.7501 15.473 59.2811 16.184 59.2811 17.309V20H58.4351V17.498C58.4351 16.607 58.0211 16.247 57.3731 16.247C56.5811 16.247 56.1221 16.814 56.1221 17.669V20ZM60.1738 17.687C60.1738 16.445 60.9748 15.473 62.2528 15.473C62.9638 15.473 63.5128 15.797 63.7918 16.346L63.8548 15.599H64.6108V19.82C64.6108 21.206 63.7558 22.088 62.4058 22.088C61.2088 22.088 60.3898 21.413 60.2278 20.297H61.0738C61.1818 20.945 61.6678 21.323 62.4058 21.323C63.2338 21.323 63.7738 20.783 63.7738 19.946V19.064C63.4858 19.577 62.9098 19.883 62.2168 19.883C60.9658 19.883 60.1738 18.92 60.1738 17.687ZM61.0198 17.669C61.0198 18.497 61.5328 19.145 62.3608 19.145C63.2158 19.145 63.7378 18.533 63.7378 17.669C63.7378 16.823 63.2338 16.211 62.3698 16.211C61.5238 16.211 61.0198 16.859 61.0198 17.669ZM67.7307 20.108C66.4347 20.108 65.5437 19.172 65.5437 17.804C65.5437 16.427 66.4167 15.473 67.6947 15.473C68.9457 15.473 69.7647 16.337 69.7647 17.642V17.957L66.3627 17.966C66.4257 18.893 66.9117 19.406 67.7487 19.406C68.4057 19.406 68.8377 19.136 68.9817 18.632H69.7737C69.5577 19.577 68.8197 20.108 67.7307 20.108ZM67.6947 16.184C66.9567 16.184 66.4887 16.625 66.3807 17.399H68.9187C68.9187 16.67 68.4417 16.184 67.6947 16.184ZM74.0166 20H73.1706V15.599H73.9266L74.0076 16.175C74.2326 15.761 74.7006 15.473 75.3216 15.473C76.0056 15.473 76.4916 15.815 76.7166 16.364C76.9236 15.815 77.4546 15.473 78.1386 15.473C79.1466 15.473 79.7586 16.103 79.7586 17.12V20H78.9306V17.327C78.9306 16.634 78.5436 16.238 77.9496 16.238C77.3106 16.238 76.8876 16.688 76.8876 17.39V20H76.0506V17.318C76.0506 16.625 75.6726 16.247 75.0786 16.247C74.4396 16.247 74.0166 16.688 74.0166 17.39V20ZM80.6433 17.795C80.6433 16.436 81.6153 15.482 82.9383 15.482C84.2523 15.482 85.2243 16.436 85.2243 17.795C85.2243 19.154 84.2523 20.108 82.9383 20.108C81.6153 20.108 80.6433 19.154 80.6433 17.795ZM81.4983 17.795C81.4983 18.713 82.0833 19.352 82.9383 19.352C83.7843 19.352 84.3783 18.713 84.3783 17.795C84.3783 16.877 83.7843 16.238 82.9383 16.238C82.0833 16.238 81.4983 16.877 81.4983 17.795ZM87.9248 20.108C86.6468 20.108 85.8728 19.154 85.8728 17.813C85.8728 16.463 86.6558 15.473 87.9608 15.473C88.6358 15.473 89.2028 15.77 89.4998 16.31V13.376H90.3368V20H89.5808L89.5088 19.199C89.2208 19.802 88.6268 20.108 87.9248 20.108ZM88.0958 19.343C88.9598 19.343 89.4908 18.704 89.4908 17.786C89.4908 16.886 88.9598 16.238 88.0958 16.238C87.2318 16.238 86.7278 16.886 86.7278 17.786C86.7278 18.695 87.2318 19.343 88.0958 19.343ZM93.4563 20.108C92.1603 20.108 91.2693 19.172 91.2693 17.804C91.2693 16.427 92.1423 15.473 93.4203 15.473C94.6713 15.473 95.4903 16.337 95.4903 17.642V17.957L92.0883 17.966C92.1513 18.893 92.6373 19.406 93.4743 19.406C94.1313 19.406 94.5633 19.136 94.7073 18.632H95.4993C95.2833 19.577 94.5453 20.108 93.4563 20.108ZM93.4203 16.184C92.6823 16.184 92.2143 16.625 92.1063 17.399H94.6443C94.6443 16.67 94.1673 16.184 93.4203 16.184ZM96.0752 18.722H96.8852C96.8852 19.172 97.2272 19.442 97.7852 19.442C98.3792 19.442 98.7212 19.199 98.7212 18.794C98.7212 18.497 98.5772 18.317 98.1182 18.2L97.3442 18.02C96.5612 17.831 96.1922 17.444 96.1922 16.796C96.1922 15.986 96.8762 15.473 97.8482 15.473C98.8112 15.473 99.4412 16.013 99.4592 16.85H98.6492C98.6312 16.409 98.3342 16.13 97.8212 16.13C97.2902 16.13 96.9932 16.364 96.9932 16.769C96.9932 17.066 97.2092 17.264 97.6412 17.372L98.4152 17.561C99.1622 17.741 99.5312 18.083 99.5312 18.74C99.5312 19.577 98.8112 20.108 97.7672 20.108C96.7322 20.108 96.0752 19.559 96.0752 18.722ZM101.047 20.108C100.696 20.108 100.399 19.82 100.399 19.478C100.399 19.127 100.696 18.839 101.047 18.839C101.389 18.839 101.686 19.127 101.686 19.478C101.686 19.82 101.389 20.108 101.047 20.108Z" fill="#FF34C1"/>
<path fill-rule="evenodd" clip-rule="evenodd" d="M31.7996 10.7314L31.4558 11.0978C29.4786 8.82816 26.177 5.82595 23.0574 6.37928L22.7004 6.44547L22.9411 6.72578C24.2111 8.18554 25.3969 10.7017 24.8976 12.9148C24.5745 14.3388 23.6205 15.1487 22.364 15.2976C20.6925 15.5106 19.3228 14.685 18.8779 12.8529C18.3184 10.5314 19.5273 7.5914 21.5205 6.43953L21.7818 6.29375L21.5611 6.11323C15.366 0.98695 7.17561 7.41088 2.41434 12.8249L2.09232 13.1972L5.31494 12.9143L5.30687 13.4246L1.16964 13.7592L1.16846 9.09222L1.6203 9.06493L1.63568 12.9804L1.92576 12.64C6.5517 7.33811 14.1682 1.17854 20.5916 4.84188C21.1699 5.17217 21.7313 5.56538 22.2179 6.01947L22.2842 6.0777L22.3741 6.04783C25.9141 4.97325 29.5641 8.20366 31.7962 10.744L31.7996 10.7314ZM19.287 12.6793C19.7204 14.2925 20.8225 14.9385 22.3216 14.8007C23.3799 14.6931 24.1742 14.0427 24.4366 12.8452C24.9191 10.6951 23.593 8.22222 22.3288 6.87191L22.14 6.65949L22.0291 6.72418C21.8107 6.84098 21.6031 6.9607 21.3922 7.09301C19.7282 8.23868 18.7877 10.6572 19.287 12.6793Z" fill="#FF34C1" fill-opacity="0.8"/>
</svg>
