<svg width="18" height="16" viewBox="0 0 18 16" fill="none" xmlns="http://www.w3.org/2000/svg">
<path d="M0.75 14V11.9C0.75 11.475 0.859375 11.0844 1.07812 10.7281C1.29688 10.3719 1.5875 10.1 1.95 9.9125C2.725 9.525 3.5125 9.23438 4.3125 9.04062C5.1125 8.84687 5.925 8.75 6.75 8.75C7.575 8.75 8.3875 8.84687 9.1875 9.04062C9.9875 9.23438 10.775 9.525 11.55 9.9125C11.9125 10.1 12.2031 10.3719 12.4219 10.7281C12.6406 11.0844 12.75 11.475 12.75 11.9V14H0.75ZM14.25 14V11.75C14.25 11.2 14.0969 10.6719 13.7906 10.1656C13.4844 9.65937 13.05 9.225 12.4875 8.8625C13.125 8.9375 13.725 9.06563 14.2875 9.24688C14.85 9.42813 15.375 9.65 15.8625 9.9125C16.3125 10.1625 16.6562 10.4406 16.8937 10.7469C17.1313 11.0531 17.25 11.3875 17.25 11.75V14H14.25ZM6.75 8C5.925 8 5.21875 7.70625 4.63125 7.11875C4.04375 6.53125 3.75 5.825 3.75 5C3.75 4.175 4.04375 3.46875 4.63125 2.88125C5.21875 2.29375 5.925 2 6.75 2C7.575 2 8.28125 2.29375 8.86875 2.88125C9.45625 3.46875 9.75 4.175 9.75 5C9.75 5.825 9.45625 6.53125 8.86875 7.11875C8.28125 7.70625 7.575 8 6.75 8ZM14.25 5C14.25 5.825 13.9563 6.53125 13.3688 7.11875C12.7813 7.70625 12.075 8 11.25 8C11.1125 8 10.9375 7.98438 10.725 7.95312C10.5125 7.92188 10.3375 7.8875 10.2 7.85C10.5375 7.45 10.7969 7.00625 10.9781 6.51875C11.1594 6.03125 11.25 5.525 11.25 5C11.25 4.475 11.1594 3.96875 10.9781 3.48125C10.7969 2.99375 10.5375 2.55 10.2 2.15C10.375 2.0875 10.55 2.04688 10.725 2.02813C10.9 2.00938 11.075 2 11.25 2C12.075 2 12.7813 2.29375 13.3688 2.88125C13.9563 3.46875 14.25 4.175 14.25 5ZM2.25 12.5H11.25V11.9C11.25 11.7625 11.2156 11.6375 11.1469 11.525C11.0781 11.4125 10.9875 11.325 10.875 11.2625C10.2 10.925 9.51875 10.6719 8.83125 10.5031C8.14375 10.3344 7.45 10.25 6.75 10.25C6.05 10.25 5.35625 10.3344 4.66875 10.5031C3.98125 10.6719 3.3 10.925 2.625 11.2625C2.5125 11.325 2.42188 11.4125 2.35313 11.525C2.28438 11.6375 2.25 11.7625 2.25 11.9V12.5ZM6.75 6.5C7.1625 6.5 7.51563 6.35313 7.80938 6.05937C8.10313 5.76562 8.25 5.4125 8.25 5C8.25 4.5875 8.10313 4.23438 7.80938 3.94063C7.51563 3.64688 7.1625 3.5 6.75 3.5C6.3375 3.5 5.98438 3.64688 5.69063 3.94063C5.39687 4.23438 5.25 4.5875 5.25 5C5.25 5.4125 5.39687 5.76562 5.69063 6.05937C5.98438 6.35313 6.3375 6.5 6.75 6.5Z" fill="#7E56DA"/>
</svg>
