<svg width="241" height="65" viewBox="0 0 241 65" fill="none" xmlns="http://www.w3.org/2000/svg">
<path d="M72.9866 50.8889C74.8578 50.8889 76.6531 50.6283 78.371 50.1063C80.089 49.5842 81.5954 48.8182 82.8881 47.8073C84.1807 46.7972 85.2188 45.5597 86.0016 44.0947C86.7843 42.6297 87.1753 40.9712 87.1753 39.1184C87.1753 37.839 86.9543 36.7112 86.5114 35.7343C86.0694 34.7574 85.4654 33.8989 84.7002 33.1581C83.9342 32.4174 83.0325 31.7603 81.9952 31.1877C80.9571 30.6151 79.8256 30.0765 78.6008 29.5711C77.376 29.0656 76.3634 28.6281 75.5639 28.2577C74.7644 27.8873 74.1261 27.5335 73.6497 27.1971C73.1733 26.8599 72.8334 26.5147 72.6292 26.1609C72.4249 25.8079 72.3228 25.3949 72.3228 24.9234C72.3228 24.0483 72.7736 23.2317 73.6752 22.4736C74.5769 21.7162 75.8616 21.3371 77.5292 21.3371C79.2639 21.3371 80.7871 21.657 82.0965 22.2967C83.4067 22.9364 84.7425 23.8793 86.1037 25.1256L91.5136 19.771C89.9824 18.1544 88.1448 16.875 86.0016 15.932C83.8576 14.9891 81.238 14.5176 78.1412 14.5176C76.2358 14.5176 74.4245 14.7869 72.7058 15.3255C70.987 15.8641 69.4821 16.6389 68.1887 17.649C66.8961 18.6598 65.8668 19.8808 65.1007 21.3118C64.3355 22.7429 63.9525 24.3682 63.9525 26.1862C63.9525 27.5003 64.1911 28.6447 64.6675 29.6216C65.143 30.5985 65.7902 31.4657 66.6064 32.2231C67.4235 32.9812 68.3587 33.6375 69.4135 34.1935C70.4684 34.7487 71.5743 35.2628 72.7313 35.7343C73.9218 36.2058 74.9088 36.6346 75.6916 37.0224C76.4744 37.4094 77.0951 37.7798 77.5548 38.1336C78.0136 38.4874 78.3375 38.8412 78.5242 39.1942C78.7117 39.548 78.8051 39.9437 78.8051 40.382C78.8051 41.4932 78.2944 42.3856 77.2739 43.0593C76.2533 43.7322 74.9431 44.0694 73.3441 44.0694C71.3022 44.0694 69.4821 43.6737 67.8823 42.8824C66.2833 42.091 64.7688 40.9372 63.3397 39.4217L57.4199 44.3726C60.8223 48.7171 66.0112 50.8889 72.9866 50.8889Z" fill="white"/>
<path d="M87.9414 50.3854H95.6988L97.945 42.0503L101.875 38.9181L105.753 50.3854H114.43L108.458 33.8661L121.678 23.3079H111.572L100.497 32.6033L105.702 13.5078H97.945L87.9414 50.3854Z" fill="white"/>
<path d="M124.078 20.3281H132.244L134.132 13.5078H125.966L124.078 20.3281ZM116.115 50.3854H123.873L131.223 23.3079H123.465L116.115 50.3854Z" fill="white"/>
<path d="M129.231 50.3854H136.99L146.993 13.5078H139.235L129.231 50.3854Z" fill="white"/>
<path d="M142.349 50.3854H150.107L160.11 13.5078H152.353L142.349 50.3854Z" fill="white"/>
<path d="M166.389 50.9906C168.022 50.9906 169.528 50.7719 170.906 50.3344C172.284 49.896 173.466 49.265 174.453 48.4397C175.44 47.6144 176.214 46.6122 176.775 45.4339C177.336 44.2556 177.617 42.9249 177.617 41.4433C177.617 40.3992 177.396 39.4815 176.954 38.6902C176.511 37.8989 175.933 37.1999 175.219 36.5934C174.504 35.9877 173.696 35.4656 172.794 35.0273C171.893 34.5898 170.999 34.1689 170.114 33.7645C168.957 33.2599 168.064 32.7963 167.435 32.3753C166.805 31.9544 166.491 31.4742 166.491 30.9356C166.491 30.2288 166.754 29.6728 167.282 29.2685C167.809 28.8649 168.549 28.6627 169.502 28.6627C170.625 28.6627 171.764 28.8815 172.921 29.319C174.078 29.7573 175.321 30.4981 176.648 31.5422L180.833 26.6923C180.254 26.1868 179.582 25.7074 178.816 25.2526C178.051 24.7977 177.201 24.3854 176.265 24.015C175.329 23.6446 174.342 23.35 173.304 23.1313C172.267 22.9117 171.187 22.8027 170.064 22.8027C168.362 22.8027 166.831 23.0468 165.47 23.5348C164.109 24.0237 162.961 24.6887 162.025 25.5305C161.089 26.3724 160.366 27.3738 159.855 28.5363C159.345 29.6981 159.09 30.953 159.09 32.2995C159.09 33.3775 159.303 34.3118 159.728 35.1032C160.154 35.8945 160.732 36.5934 161.463 37.1999C162.195 37.8057 163.037 38.353 163.99 38.8418C164.942 39.3299 165.963 39.7927 167.052 40.231C168.005 40.6346 168.771 41.031 169.349 41.418C169.927 41.805 170.216 42.2512 170.216 42.7567C170.216 43.5314 169.927 44.1206 169.349 44.5249C168.771 44.9285 167.971 45.1307 166.95 45.1307C165.725 45.1307 164.381 44.8779 162.918 44.3733C161.455 43.8678 160.008 42.9083 158.579 41.4938L154.088 46.091C154.905 46.9329 155.807 47.6563 156.794 48.2628C157.78 48.8694 158.809 49.374 159.881 49.7784C160.953 50.1827 162.05 50.4852 163.173 50.6874C164.296 50.8895 165.367 50.9906 166.389 50.9906Z" fill="white"/>
<path d="M179.148 50.3855H187.009L189.918 39.6756H196.706C199.156 39.6756 201.435 39.3723 203.545 38.7666C205.655 38.1601 207.484 37.2676 209.032 36.0893C210.58 34.9102 211.805 33.4618 212.707 31.7449C213.608 30.0272 214.059 28.0741 214.059 25.8849C214.059 22.8538 213.141 20.4285 211.303 18.6105C210.011 17.3303 208.454 16.4126 206.633 15.8574C204.813 15.3014 202.627 15.0234 200.075 15.0234H188.744L179.148 50.3855ZM191.756 32.8561L194.665 22.0451H199.768C200.959 22.0451 201.938 22.1715 202.703 22.4242C203.468 22.6769 204.123 23.0726 204.668 23.6112C205.45 24.386 205.842 25.3629 205.842 26.5412C205.842 28.5622 205.043 30.1196 203.443 31.2142C201.844 32.3088 199.734 32.8561 197.115 32.8561H191.756Z" fill="white"/>
<path d="M220.286 39.5234H239.017C239.46 38.4794 239.8 37.4353 240.038 36.3912C240.276 35.3472 240.395 34.3371 240.395 33.3602C240.395 31.8446 240.149 30.4476 239.656 29.1674C239.162 27.888 238.439 26.7768 237.486 25.8338C236.533 24.8908 235.36 24.1501 233.965 23.6107C232.569 23.072 230.987 22.8027 229.218 22.8027C226.767 22.8027 224.548 23.2742 222.558 24.2172C220.567 25.1602 218.857 26.3977 217.428 27.9298C215.999 29.4619 214.902 31.197 214.136 33.1335C213.37 35.07 212.987 37.0144 212.987 38.9682C212.987 40.8541 213.277 42.5379 213.855 44.0195C214.433 45.5011 215.267 46.756 216.356 47.7834C217.445 48.8101 218.771 49.6015 220.337 50.1574C221.903 50.7126 223.672 50.9906 225.645 50.9906C227.993 50.9906 230.026 50.6455 231.744 49.9553C233.463 49.265 234.934 48.4145 236.159 47.4044L232.587 42.6556C231.463 43.4303 230.426 43.9855 229.473 44.3227C228.52 44.6592 227.533 44.8274 226.513 44.8274C224.471 44.8274 222.957 44.348 221.97 43.3877C220.983 42.4281 220.422 41.14 220.286 39.5234ZM220.949 34.7241C221.596 33.0071 222.591 31.618 223.936 30.5565C225.279 29.4959 226.836 28.966 228.605 28.966C230.205 28.966 231.353 29.353 232.051 30.1277C232.748 30.9017 233.097 31.8446 233.097 32.9566C233.097 33.5623 233.012 34.1515 232.841 34.7241H220.949Z" fill="white"/>
<mask id="mask0_11772_14572" style="mask-type:luminance" maskUnits="userSpaceOnUse" x="0" y="0" width="45" height="65">
<path d="M33.8168 0C37.4203 2.11733 40.3806 5.20448 42.3267 8.89026C37.2623 18.8088 26.8581 25.6512 14.9172 25.6512V25.652C29.2942 25.652 41.4418 35.5697 44.7261 48.8344C44.4851 51.045 43.9106 53.1607 43.0568 55.1327C39.5116 53.2476 35.459 52.1775 31.1534 52.1775C21.8895 52.1775 13.7953 57.1276 9.4195 64.5C6.10332 62.1481 3.45342 58.9259 1.81927 55.1785C7.13185 46.0648 17.0852 39.8976 28.4229 39.8976V39.896C15.6178 39.896 4.58168 32.0285 0 20.9364V19.1018C0 16.8802 0.335926 14.7321 0.956711 12.704C3.99202 13.9865 7.33213 14.6973 10.8398 14.6973C21.0676 14.6973 29.8703 8.66518 33.8168 0Z" fill="white"/>
</mask>
<g mask="url(#mask0_11772_14572)">
<path fill-rule="evenodd" clip-rule="evenodd" d="M38.5114 -1.66211L39.3748 0.726897L-11.37 18.7017L-12.2334 16.3127L38.5114 -1.66211Z" fill="#FFD374"/>
<path fill-rule="evenodd" clip-rule="evenodd" d="M39.3425 0.636719L39.4398 0.908394L-11.305 18.8832L-11.4023 18.6123L39.3425 0.636719Z" fill="#FFD374"/>
<path fill-rule="evenodd" clip-rule="evenodd" d="M39.4087 0.816406L39.506 1.08808L-11.2388 19.0629L-11.3369 18.792L39.4087 0.816406Z" fill="#FFD374"/>
<path fill-rule="evenodd" clip-rule="evenodd" d="M39.4733 0.998047L39.5715 1.26893L-11.1733 19.2437L-11.2715 18.9728L39.4733 0.998047Z" fill="#FFD374"/>
<path fill-rule="evenodd" clip-rule="evenodd" d="M39.5388 1.17773L39.6369 1.44862L-11.1079 19.4234L-11.2061 19.1525L39.5388 1.17773Z" fill="#FFD374"/>
<path fill-rule="evenodd" clip-rule="evenodd" d="M39.6042 1.35938L39.7023 1.63026L-11.0425 19.6051L-11.1406 19.3342L39.6042 1.35938Z" fill="#FFD274"/>
<path fill-rule="evenodd" clip-rule="evenodd" d="M39.6696 1.53906L39.7678 1.81074L-10.9771 19.7855L-11.0752 19.5147L39.6696 1.53906Z" fill="#FFD274"/>
<path fill-rule="evenodd" clip-rule="evenodd" d="M39.735 1.7207L39.8332 1.99238L-10.9116 19.9672L-11.0098 19.6963L39.735 1.7207Z" fill="#FFD274"/>
<path fill-rule="evenodd" clip-rule="evenodd" d="M39.8005 1.90039L39.8986 2.17128L-10.8462 20.1461L-10.9443 19.8752L39.8005 1.90039Z" fill="#FFD175"/>
<path fill-rule="evenodd" clip-rule="evenodd" d="M39.8659 2.08203L39.964 2.35292L-10.7816 20.3277L-10.8789 20.0568L39.8659 2.08203Z" fill="#FFD175"/>
<path fill-rule="evenodd" clip-rule="evenodd" d="M39.9313 2.26367L40.0287 2.53456L-10.7161 20.5094L-10.8135 20.2385L39.9313 2.26367Z" fill="#FFD175"/>
<path fill-rule="evenodd" clip-rule="evenodd" d="M39.9968 2.44336L40.0941 2.71424L-10.6507 20.689L-10.748 20.4182L39.9968 2.44336Z" fill="#FFD075"/>
<path fill-rule="evenodd" clip-rule="evenodd" d="M40.062 2.62305L40.1594 2.89472L-10.5854 20.8695L-10.6836 20.5986L40.062 2.62305Z" fill="#FFCF75"/>
<path fill-rule="evenodd" clip-rule="evenodd" d="M40.1266 2.80469L40.2248 3.07636L-10.52 21.0504L-10.6182 20.7795L40.1266 2.80469Z" fill="#FFCF76"/>
<path fill-rule="evenodd" clip-rule="evenodd" d="M40.1921 2.98438L40.2902 3.25526L-10.4546 21.2301L-10.5527 20.9592L40.1921 2.98438Z" fill="#FFCE76"/>
<path fill-rule="evenodd" clip-rule="evenodd" d="M40.2575 3.16602L40.3556 3.4369L-10.3892 21.4117L-10.4873 21.1408L40.2575 3.16602Z" fill="#FFCE76"/>
<path fill-rule="evenodd" clip-rule="evenodd" d="M40.3229 3.34766L40.4211 3.61854L-10.3237 21.5933L-10.4219 21.3225L40.3229 3.34766Z" fill="#FFCD76"/>
<path fill-rule="evenodd" clip-rule="evenodd" d="M40.3884 3.52734L40.4865 3.79902L-10.2583 21.7738L-10.3564 21.5029L40.3884 3.52734Z" fill="#FFCC77"/>
<path fill-rule="evenodd" clip-rule="evenodd" d="M40.4538 3.70898L40.5519 3.98066L-10.1929 21.9555L-10.291 21.6838L40.4538 3.70898Z" fill="#FFCB77"/>
<path fill-rule="evenodd" clip-rule="evenodd" d="M40.519 3.88867L40.6164 4.15956L-10.1284 22.1344L-10.2266 21.8635L40.519 3.88867Z" fill="#FFCA77"/>
<path fill-rule="evenodd" clip-rule="evenodd" d="M40.5837 4.07031L40.6818 4.3412L-10.063 22.316L-10.1611 22.0451L40.5837 4.07031Z" fill="#FFCA78"/>
<path fill-rule="evenodd" clip-rule="evenodd" d="M40.6491 4.25L40.7472 4.52089L-9.99756 22.4957L-10.0957 22.2248L40.6491 4.25Z" fill="#FFC978"/>
<path fill-rule="evenodd" clip-rule="evenodd" d="M40.7145 4.42969L40.8127 4.70136L-9.93213 22.6762L-10.0303 22.4053L40.7145 4.42969Z" fill="#FFC878"/>
<path fill-rule="evenodd" clip-rule="evenodd" d="M40.78 4.61133L40.8781 4.883L-9.8667 22.8578L-9.96484 22.5861L40.78 4.61133Z" fill="#FFC779"/>
<path fill-rule="evenodd" clip-rule="evenodd" d="M40.8454 4.79297L40.9435 5.06385L-9.80127 23.0394L-9.89941 22.7678L40.8454 4.79297Z" fill="#FFC679"/>
<path fill-rule="evenodd" clip-rule="evenodd" d="M40.9108 4.97266L41.009 5.24354L-9.73584 23.2183L-9.83398 22.9475L40.9108 4.97266Z" fill="#FFC579"/>
<path fill-rule="evenodd" clip-rule="evenodd" d="M40.9763 5.1543L41.0744 5.42518L-9.67041 23.4L-9.76855 23.1291L40.9763 5.1543Z" fill="#FFC47A"/>
<path fill-rule="evenodd" clip-rule="evenodd" d="M41.0417 5.33398L41.139 5.60566L-9.60498 23.5805L-9.70312 23.3096L41.0417 5.33398Z" fill="#FFC27A"/>
<path fill-rule="evenodd" clip-rule="evenodd" d="M41.1069 5.51562L41.2043 5.7873L-9.54053 23.7621L-9.63867 23.4912L41.1069 5.51562Z" fill="#FFC17B"/>
<path fill-rule="evenodd" clip-rule="evenodd" d="M41.1716 5.69531L41.2697 5.9662L-9.4751 23.9418L-9.57324 23.6701L41.1716 5.69531Z" fill="#FFC07B"/>
<path fill-rule="evenodd" clip-rule="evenodd" d="M41.237 5.87695L41.3351 6.14784L-9.40967 24.1234L-9.50781 23.8518L41.237 5.87695Z" fill="#FFBF7C"/>
<path fill-rule="evenodd" clip-rule="evenodd" d="M41.3024 6.05664L41.4006 6.32753L-9.34424 24.3023L-9.44238 24.0314L41.3024 6.05664Z" fill="#FFBE7C"/>
<path fill-rule="evenodd" clip-rule="evenodd" d="M41.3679 6.23828L41.466 6.50917L-9.27881 24.484L-9.37695 24.2131L41.3679 6.23828Z" fill="#FFBC7D"/>
<path fill-rule="evenodd" clip-rule="evenodd" d="M41.4333 6.41797L41.5314 6.68964L-9.21338 24.6644L-9.31152 24.3936L41.4333 6.41797Z" fill="#FFBB7D"/>
<path fill-rule="evenodd" clip-rule="evenodd" d="M41.4987 6.59961L41.5969 6.87128L-9.14795 24.8461L-9.24609 24.5744L41.4987 6.59961Z" fill="#FFBA7E"/>
<path fill-rule="evenodd" clip-rule="evenodd" d="M41.5641 6.78125L41.6623 7.05214L-9.08332 25.0277L-9.18066 24.7561L41.5641 6.78125Z" fill="#FFB97E"/>
<path fill-rule="evenodd" clip-rule="evenodd" d="M41.6296 6.96094L41.7269 7.23182L-9.01789 25.2066L-9.11523 24.9357L41.6296 6.96094Z" fill="#FFB77F"/>
<path fill-rule="evenodd" clip-rule="evenodd" d="M41.695 7.14258L41.7924 7.41346L-8.95246 25.3883L-9.0498 25.1174L41.695 7.14258Z" fill="#FFB67F"/>
<path fill-rule="evenodd" clip-rule="evenodd" d="M41.7603 7.32227L41.8576 7.59394L-8.88721 25.5687L-8.98535 25.2979L41.7603 7.32227Z" fill="#FFB480"/>
<path fill-rule="evenodd" clip-rule="evenodd" d="M41.8249 7.50195L41.923 7.77363L-8.82178 25.7484L-8.91992 25.4768L41.8249 7.50195Z" fill="#FFB380"/>
<path fill-rule="evenodd" clip-rule="evenodd" d="M41.8903 7.68359L41.9885 7.95448L-8.75635 25.9301L-8.85449 25.6584L41.8903 7.68359Z" fill="#FFB181"/>
<path fill-rule="evenodd" clip-rule="evenodd" d="M41.9557 7.86523L42.0539 8.13612L-8.69092 26.1109L-8.78906 25.84L41.9557 7.86523Z" fill="#FFB081"/>
<path fill-rule="evenodd" clip-rule="evenodd" d="M42.0212 8.04492L42.1193 8.31581L-8.62549 26.2906L-8.72363 26.0197L42.0212 8.04492Z" fill="#FFAE82"/>
<path fill-rule="evenodd" clip-rule="evenodd" d="M42.0866 8.22461L42.1847 8.49628L-8.56006 26.4711L-8.6582 26.2002L42.0866 8.22461Z" fill="#FFAD83"/>
<path fill-rule="evenodd" clip-rule="evenodd" d="M42.152 8.40625L42.2502 8.67792L-8.49463 26.6527L-8.59277 26.3811L42.152 8.40625Z" fill="#FFAB83"/>
<path fill-rule="evenodd" clip-rule="evenodd" d="M42.2175 8.58789L42.3156 8.85878L-8.43 26.8344L-8.52734 26.5627L42.2175 8.58789Z" fill="#FFAA84"/>
<path fill-rule="evenodd" clip-rule="evenodd" d="M42.2819 8.76758L42.3801 9.03846L-8.36475 27.0133L-8.46289 26.7424L42.2819 8.76758Z" fill="#FFA885"/>
<path fill-rule="evenodd" clip-rule="evenodd" d="M42.3473 8.94922L42.4455 9.2201L-8.29932 27.1949L-8.39746 26.924L42.3473 8.94922Z" fill="#FFA785"/>
<path fill-rule="evenodd" clip-rule="evenodd" d="M42.4138 9.12891L42.5119 9.39979L-8.23291 27.3746L-8.33105 27.1037L42.4138 9.12891Z" fill="#FFA586"/>
<path fill-rule="evenodd" clip-rule="evenodd" d="M42.4782 9.31055L42.5764 9.58222L-8.16846 27.557L-8.2666 27.2861L42.4782 9.31055Z" fill="#FFA386"/>
<path fill-rule="evenodd" clip-rule="evenodd" d="M42.5436 9.49023L42.6418 9.76112L-8.10303 27.7367L-8.20117 27.465L42.5436 9.49023Z" fill="#FFA287"/>
<path fill-rule="evenodd" clip-rule="evenodd" d="M42.61 9.67188L42.7082 9.94276L-8.03662 27.9176L-8.13477 27.6467L42.61 9.67188Z" fill="#FFA088"/>
<path fill-rule="evenodd" clip-rule="evenodd" d="M42.6745 9.85156L42.7726 10.1224L-7.97217 28.0972L-8.07031 27.8264L42.6745 9.85156Z" fill="#FF9E88"/>
<path fill-rule="evenodd" clip-rule="evenodd" d="M42.7399 10.0332L42.8381 10.3041L-7.90674 28.2789L-8.00488 28.008L42.7399 10.0332Z" fill="#FF9D89"/>
<path fill-rule="evenodd" clip-rule="evenodd" d="M42.8054 10.2129L42.9035 10.4846L-7.84131 28.4594L-7.93945 28.1885L42.8054 10.2129Z" fill="#FF9B8A"/>
<path fill-rule="evenodd" clip-rule="evenodd" d="M42.8716 10.3945L42.9697 10.6654L-7.77588 28.641L-7.87402 28.3693L42.8716 10.3945Z" fill="#FF998B"/>
<path fill-rule="evenodd" clip-rule="evenodd" d="M42.9362 10.5742L43.0344 10.8451L-7.71045 28.8207L-7.80859 28.549L42.9362 10.5742Z" fill="#FF988B"/>
<path fill-rule="evenodd" clip-rule="evenodd" d="M43.0016 10.7559L43.0998 11.0267L-7.64502 29.0015L-7.74316 28.7307L43.0016 10.7559Z" fill="#FF968C"/>
<path fill-rule="evenodd" clip-rule="evenodd" d="M43.0671 10.9375L43.1652 11.2084L-7.57959 29.1832L-7.67773 28.9123L43.0671 10.9375Z" fill="#FF948D"/>
<path fill-rule="evenodd" clip-rule="evenodd" d="M43.1325 11.1172L43.2306 11.3881L-7.51416 29.3629L-7.6123 29.092L43.1325 11.1172Z" fill="#FF938D"/>
<path fill-rule="evenodd" clip-rule="evenodd" d="M43.1979 11.2969L43.2961 11.5686L-7.44873 29.5434L-7.54688 29.2717L43.1979 11.2969Z" fill="#FF918E"/>
<path fill-rule="evenodd" clip-rule="evenodd" d="M43.2634 11.4785L43.3615 11.7494L-7.3833 29.725L-7.48145 29.4533L43.2634 11.4785Z" fill="#FF8F8F"/>
<path fill-rule="evenodd" clip-rule="evenodd" d="M43.3288 11.6582L43.4269 11.9291L-7.31867 29.9039L-7.41602 29.633L43.3288 11.6582Z" fill="#FF8D90"/>
<path fill-rule="evenodd" clip-rule="evenodd" d="M43.3942 11.8398L43.4916 12.1107L-7.25324 30.0855L-7.35059 29.8146L43.3942 11.8398Z" fill="#FF8C90"/>
<path fill-rule="evenodd" clip-rule="evenodd" d="M43.4597 12.0215L43.557 12.2924L-7.18781 30.2672L-7.28516 29.9963L43.4597 12.0215Z" fill="#FF8A91"/>
<path fill-rule="evenodd" clip-rule="evenodd" d="M43.5249 12.2012L43.6222 12.4721L-7.12256 30.4469L-7.2207 30.1752L43.5249 12.2012Z" fill="#FF8892"/>
<path fill-rule="evenodd" clip-rule="evenodd" d="M43.5895 12.3828L43.6877 12.6537L-7.05713 30.6293L-7.15527 30.3576L43.5895 12.3828Z" fill="#FF8693"/>
<path fill-rule="evenodd" clip-rule="evenodd" d="M43.655 12.5625L43.7531 12.8334L-6.9917 30.8082L-7.08984 30.5373L43.655 12.5625Z" fill="#FF8593"/>
<path fill-rule="evenodd" clip-rule="evenodd" d="M43.7204 12.7441L43.8185 13.015L-6.92627 30.9898L-7.02441 30.7189L43.7204 12.7441Z" fill="#FF8394"/>
<path fill-rule="evenodd" clip-rule="evenodd" d="M43.7858 12.9238L43.884 13.1947L-6.86084 31.1695L-6.95898 30.8986L43.7858 12.9238Z" fill="#FF8195"/>
<path fill-rule="evenodd" clip-rule="evenodd" d="M43.8513 13.1055L43.9494 13.3764L-6.79541 31.3512L-6.89355 31.0795L43.8513 13.1055Z" fill="#FF7F96"/>
<path fill-rule="evenodd" clip-rule="evenodd" d="M43.9167 13.2852L44.0148 13.556L-6.72998 31.5316L-6.82812 31.26L43.9167 13.2852Z" fill="#FF7D96"/>
<path fill-rule="evenodd" clip-rule="evenodd" d="M43.9821 13.4668L44.0803 13.7377L-6.66535 31.7125L-6.7627 31.4416L43.9821 13.4668Z" fill="#FF7C97"/>
<path fill-rule="evenodd" clip-rule="evenodd" d="M44.0475 13.6484L44.1449 13.9193L-6.59992 31.8941L-6.69727 31.6232L44.0475 13.6484Z" fill="#FF7A98"/>
<path fill-rule="evenodd" clip-rule="evenodd" d="M44.1122 13.8281L44.2103 14.099L-6.53449 32.0738L-6.63184 31.8029L44.1122 13.8281Z" fill="#FF7899"/>
<path fill-rule="evenodd" clip-rule="evenodd" d="M44.1774 14.0098L44.2756 14.2807L-6.46924 32.2555L-6.56738 31.9846L44.1774 14.0098Z" fill="#FF7699"/>
<path fill-rule="evenodd" clip-rule="evenodd" d="M44.2429 14.1895L44.341 14.4603L-6.40381 32.4359L-6.50195 32.1643L44.2429 14.1895Z" fill="#FF759A"/>
<path fill-rule="evenodd" clip-rule="evenodd" d="M44.3083 14.3691L44.4064 14.64L-6.33838 32.6156L-6.43652 32.3439L44.3083 14.3691Z" fill="#FF739B"/>
<path fill-rule="evenodd" clip-rule="evenodd" d="M44.3737 14.5508L44.4719 14.8217L-6.27295 32.7965L-6.37109 32.5256L44.3737 14.5508Z" fill="#FF719C"/>
<path fill-rule="evenodd" clip-rule="evenodd" d="M44.4391 14.7305L44.5373 15.0014L-6.20752 32.9762L-6.30566 32.7053L44.4391 14.7305Z" fill="#FF709C"/>
<path fill-rule="evenodd" clip-rule="evenodd" d="M44.5046 14.9121L44.6027 15.183L-6.14209 33.1578L-6.24023 32.8869L44.5046 14.9121Z" fill="#FF6E9D"/>
<path fill-rule="evenodd" clip-rule="evenodd" d="M44.57 15.0918L44.6681 15.3627L-6.07746 33.3383L-6.1748 33.0666L44.57 15.0918Z" fill="#FF6C9E"/>
<path fill-rule="evenodd" clip-rule="evenodd" d="M44.6353 15.2734L44.7326 15.5443L-6.01221 33.5199L-6.11035 33.2482L44.6353 15.2734Z" fill="#FF6A9F"/>
<path fill-rule="evenodd" clip-rule="evenodd" d="M44.6999 15.4531L44.798 15.724L-5.94678 33.6988L-6.04492 33.4279L44.6999 15.4531Z" fill="#FF69A0"/>
<path fill-rule="evenodd" clip-rule="evenodd" d="M44.7653 15.6348L44.8635 15.9057L-5.88135 33.8805L-5.97949 33.6096L44.7653 15.6348Z" fill="#FF67A0"/>
<path fill-rule="evenodd" clip-rule="evenodd" d="M44.8307 15.8164L44.9289 16.0873L-5.81592 34.0621L-5.91406 33.7912L44.8307 15.8164Z" fill="#FF65A1"/>
<path fill-rule="evenodd" clip-rule="evenodd" d="M44.8962 15.9961L44.9943 16.2678L-5.75049 34.2426L-5.84863 33.9717L44.8962 15.9961Z" fill="#FF64A2"/>
<path fill-rule="evenodd" clip-rule="evenodd" d="M44.9616 16.1777L45.0597 16.4486L-5.68506 34.4242L-5.7832 34.1525L44.9616 16.1777Z" fill="#FF62A3"/>
<path fill-rule="evenodd" clip-rule="evenodd" d="M45.027 16.3574L45.1252 16.6283L-5.61963 34.6031L-5.71777 34.3322L45.027 16.3574Z" fill="#FF61A3"/>
<path fill-rule="evenodd" clip-rule="evenodd" d="M45.0925 16.5391L45.1898 16.8099L-5.555 34.7847L-5.65234 34.5139L45.0925 16.5391Z" fill="#FF5FA4"/>
<path fill-rule="evenodd" clip-rule="evenodd" d="M45.1579 16.7188L45.2552 16.9896L-5.48957 34.9644L-5.58691 34.6936L45.1579 16.7188Z" fill="#FF5DA5"/>
<path fill-rule="evenodd" clip-rule="evenodd" d="M45.2231 16.9004L45.3205 17.1713L-5.42432 35.1461L-5.52246 34.8752L45.2231 16.9004Z" fill="#FF5CA6"/>
<path fill-rule="evenodd" clip-rule="evenodd" d="M45.2878 17.0801L45.3859 17.351L-5.35889 35.3266L-5.45703 35.0557L45.2878 17.0801Z" fill="#FF5AA6"/>
<path fill-rule="evenodd" clip-rule="evenodd" d="M45.3532 17.2598L45.4514 17.5307L-5.29346 35.5055L-5.3916 35.2346L45.3532 17.2598Z" fill="#FF59A7"/>
<path fill-rule="evenodd" clip-rule="evenodd" d="M45.4186 17.4414L45.5168 17.7123L-5.22803 35.6871L-5.32617 35.4162L45.4186 17.4414Z" fill="#FF57A8"/>
<path fill-rule="evenodd" clip-rule="evenodd" d="M45.4841 17.623L45.5822 17.8939L-5.1626 35.8687L-5.26074 35.5978L45.4841 17.623Z" fill="#FF56A9"/>
<path fill-rule="evenodd" clip-rule="evenodd" d="M45.5495 17.8027L45.6476 18.0736L-5.09717 36.0484L-5.19531 35.7775L45.5495 17.8027Z" fill="#FF54A9"/>
<path fill-rule="evenodd" clip-rule="evenodd" d="M45.6149 17.9844L45.7131 18.2553L-5.03174 36.2309L-5.12988 35.96L45.6149 17.9844Z" fill="#FF53AA"/>
<path fill-rule="evenodd" clip-rule="evenodd" d="M45.6804 18.1641L45.7785 18.4349L-4.96711 36.4097L-5.06445 36.1389L45.6804 18.1641Z" fill="#FF51AB"/>
<path fill-rule="evenodd" clip-rule="evenodd" d="M45.7458 18.3457L45.8431 18.6166L-4.90168 36.5914L-4.99902 36.3205L45.7458 18.3457Z" fill="#FF50AC"/>
<path fill-rule="evenodd" clip-rule="evenodd" d="M45.8112 18.5254L45.9086 18.7963L-4.83625 36.7711L-4.93359 36.5002L45.8112 18.5254Z" fill="#FF4FAC"/>
<path fill-rule="evenodd" clip-rule="evenodd" d="M45.8774 18.707L45.9748 18.9779L-4.77002 36.9527L-4.86816 36.6818L45.8774 18.707Z" fill="#FF4DAD"/>
<path fill-rule="evenodd" clip-rule="evenodd" d="M45.9421 18.8867L46.0402 19.1576L-4.70459 37.1332L-4.80273 36.8623L45.9421 18.8867Z" fill="#FF4CAE"/>
<path fill-rule="evenodd" clip-rule="evenodd" d="M46.0075 19.0684L46.1056 19.3392L-4.63916 37.3148L-4.7373 37.0432L46.0075 19.0684Z" fill="#FF4BAE"/>
<path fill-rule="evenodd" clip-rule="evenodd" d="M46.0729 19.25L46.1711 19.5209L-4.57373 37.4957L-4.67188 37.2248L46.0729 19.25Z" fill="#FF49AF"/>
<path fill-rule="evenodd" clip-rule="evenodd" d="M46.1384 19.4297L46.2365 19.7006L-4.5083 37.6754L-4.60645 37.4045L46.1384 19.4297Z" fill="#FF48B0"/>
<path fill-rule="evenodd" clip-rule="evenodd" d="M46.2038 19.6113L46.3019 19.8822L-4.44287 37.857L-4.54102 37.5861L46.2038 19.6113Z" fill="#FF47B1"/>
<path fill-rule="evenodd" clip-rule="evenodd" d="M46.2692 19.791L46.3674 20.0627L-4.37744 38.0375L-4.47559 37.7666L46.2692 19.791Z" fill="#FF46B1"/>
<path fill-rule="evenodd" clip-rule="evenodd" d="M46.3345 19.9707L46.4326 20.2416L-4.31299 38.2172L-4.41113 37.9463L46.3345 19.9707Z" fill="#FF45B2"/>
<path fill-rule="evenodd" clip-rule="evenodd" d="M46.3991 20.1523L46.4972 20.4232L-4.24756 38.398L-4.3457 38.1271L46.3991 20.1523Z" fill="#FF44B3"/>
<path fill-rule="evenodd" clip-rule="evenodd" d="M46.4645 20.334L46.5627 20.6049L-4.18213 38.5797L-4.28027 38.3088L46.4645 20.334Z" fill="#FF42B3"/>
<path fill-rule="evenodd" clip-rule="evenodd" d="M46.53 20.5137L46.6281 20.7846L-4.1167 38.7594L-4.21484 38.4885L46.53 20.5137Z" fill="#FF41B4"/>
<path fill-rule="evenodd" clip-rule="evenodd" d="M46.5954 20.6953L46.6935 20.9662L-4.05127 38.941L-4.14941 38.6701L46.5954 20.6953Z" fill="#FF40B5"/>
<path fill-rule="evenodd" clip-rule="evenodd" d="M46.6608 20.875L46.759 21.1459L-3.98584 39.1215L-4.08398 38.8506L46.6608 20.875Z" fill="#FF3FB5"/>
<path fill-rule="evenodd" clip-rule="evenodd" d="M46.7263 21.0566L46.8244 21.3275L-3.92041 39.3023L-4.01855 39.0314L46.7263 21.0566Z" fill="#FF3EB6"/>
<path fill-rule="evenodd" clip-rule="evenodd" d="M46.7917 21.2363L46.8898 21.5072L-3.85498 39.482L-3.95312 39.2111L46.7917 21.2363Z" fill="#FF3EB6"/>
<path fill-rule="evenodd" clip-rule="evenodd" d="M46.8571 21.418L46.9553 21.6889L-3.78955 39.6637L-3.8877 39.3928L46.8571 21.418Z" fill="#FF3DB7"/>
<path fill-rule="evenodd" clip-rule="evenodd" d="M46.9225 21.5977L47.0199 21.8685L-3.72412 39.8433L-3.82227 39.5725L46.9225 21.5977Z" fill="#FF3CB8"/>
<path fill-rule="evenodd" clip-rule="evenodd" d="M46.9878 21.7793L47.0851 22.051L-3.65967 40.0258L-3.75781 39.7549L46.9878 21.7793Z" fill="#FF3BB8"/>
<path fill-rule="evenodd" clip-rule="evenodd" d="M47.0524 21.959L47.1506 22.2299L-3.59424 40.2047L-3.69238 39.9338L47.0524 21.959Z" fill="#FF3AB9"/>
<path fill-rule="evenodd" clip-rule="evenodd" d="M47.1179 22.1406L47.216 22.4115L-3.52881 40.3863L-3.62695 40.1154L47.1179 22.1406Z" fill="#FF3AB9"/>
<path fill-rule="evenodd" clip-rule="evenodd" d="M47.1833 22.3203L47.2814 22.5912L-3.46338 40.566L-3.56152 40.2951L47.1833 22.3203Z" fill="#FF39BA"/>
<path fill-rule="evenodd" clip-rule="evenodd" d="M47.2487 22.502L47.3469 22.7728L-3.39795 40.7476L-3.49609 40.4768L47.2487 22.502Z" fill="#FF38BB"/>
<path fill-rule="evenodd" clip-rule="evenodd" d="M47.3141 22.6816L47.4123 22.9533L-3.33252 40.9281L-3.43066 40.6572L47.3141 22.6816Z" fill="#FF38BB"/>
<path fill-rule="evenodd" clip-rule="evenodd" d="M47.3796 22.8633L47.4777 23.135L-3.26709 41.1098L-3.36523 40.8381L47.3796 22.8633Z" fill="#FF37BC"/>
<path fill-rule="evenodd" clip-rule="evenodd" d="M47.445 23.043L47.5431 23.3139L-3.20246 41.2887L-3.2998 41.0178L47.445 23.043Z" fill="#FF37BC"/>
<path fill-rule="evenodd" clip-rule="evenodd" d="M47.5104 23.2246L47.6078 23.4955L-3.13703 41.4703L-3.23438 41.1994L47.5104 23.2246Z" fill="#FF36BD"/>
<path fill-rule="evenodd" clip-rule="evenodd" d="M47.5759 23.4062L47.6732 23.6771L-3.0716 41.6519L-3.16895 41.3811L47.5759 23.4062Z" fill="#FF36BD"/>
<path fill-rule="evenodd" clip-rule="evenodd" d="M47.6411 23.5859L47.7385 23.8576L-3.00635 41.8324L-3.10449 41.5615L47.6411 23.5859Z" fill="#FF35BE"/>
<path fill-rule="evenodd" clip-rule="evenodd" d="M47.7057 23.7656L47.8039 24.0373L-2.94092 42.0121L-3.03906 41.7412L47.7057 23.7656Z" fill="#FF35BE"/>
<path fill-rule="evenodd" clip-rule="evenodd" d="M47.7712 23.9473L47.8693 24.2182L-2.87549 42.193L-2.97363 41.9221L47.7712 23.9473Z" fill="#FF35BF"/>
<path fill-rule="evenodd" clip-rule="evenodd" d="M47.8366 24.127L47.9347 24.3978L-2.81006 42.3726L-2.9082 42.1018L47.8366 24.127Z" fill="#FF34BF"/>
<path fill-rule="evenodd" clip-rule="evenodd" d="M47.902 24.3086L48.0002 24.5795L-2.74463 42.5543L-2.84277 42.2834L47.902 24.3086Z" fill="#FF34C0"/>
<path fill-rule="evenodd" clip-rule="evenodd" d="M47.9675 24.4883L48.0656 24.76L-2.6792 42.7348L-2.77734 42.4639L47.9675 24.4883Z" fill="#FF34C0"/>
<path fill-rule="evenodd" clip-rule="evenodd" d="M48.0329 24.6699L48.131 24.9416L-2.61377 42.9164L-2.71191 42.6455L48.0329 24.6699Z" fill="#FF34C1"/>
<path fill-rule="evenodd" clip-rule="evenodd" d="M48.0981 24.8516L48.1963 25.1224L-2.54932 43.0972L-2.64746 42.8264L48.0981 24.8516Z" fill="#FF34C1"/>
<path fill-rule="evenodd" clip-rule="evenodd" d="M48.1628 25.0312L48.2609 25.3021L-2.48389 43.2769L-2.58203 43.0061L48.1628 25.0312Z" fill="#FF34C1"/>
<path fill-rule="evenodd" clip-rule="evenodd" d="M48.2282 25.2129L48.3264 25.4838L-2.41846 43.4586L-2.5166 43.1877L48.2282 25.2129Z" fill="#FF34C2"/>
<path fill-rule="evenodd" clip-rule="evenodd" d="M48.2936 25.3926L48.3918 25.6635L-2.35303 43.6383L-2.45117 43.3674L48.2936 25.3926Z" fill="#FF34C2"/>
<path fill-rule="evenodd" clip-rule="evenodd" d="M48.3591 25.5723L48.4572 25.8439L-2.2876 43.8187L-2.38574 43.5479L48.3591 25.5723Z" fill="#FF34C3"/>
<path fill-rule="evenodd" clip-rule="evenodd" d="M48.4245 25.7539L48.5226 26.0256L-2.22217 43.9996L-2.32031 43.7287L48.4245 25.7539Z" fill="#FE34C3"/>
<path fill-rule="evenodd" clip-rule="evenodd" d="M48.4899 25.9355L48.5881 26.2064L-2.15674 44.1812L-2.25488 43.9103L48.4899 25.9355Z" fill="#FE34C4"/>
<path fill-rule="evenodd" clip-rule="evenodd" d="M48.5554 26.1152L48.6535 26.3861L-2.09131 44.3609L-2.18945 44.09L48.5554 26.1152Z" fill="#FE34C4"/>
<path fill-rule="evenodd" clip-rule="evenodd" d="M48.6208 26.2969L48.7189 26.5678L-2.02588 44.5426L-2.12402 44.2717L48.6208 26.2969Z" fill="#FD34C5"/>
<path fill-rule="evenodd" clip-rule="evenodd" d="M48.6862 26.4766L48.7844 26.7482L-1.96125 44.723L-2.05859 44.4522L48.6862 26.4766Z" fill="#FD34C5"/>
<path fill-rule="evenodd" clip-rule="evenodd" d="M48.7524 26.6582L48.8498 26.9299L-1.89502 44.9047L-1.99316 44.633L48.7524 26.6582Z" fill="#FC34C5"/>
<path fill-rule="evenodd" clip-rule="evenodd" d="M48.8171 26.8379L48.9152 27.1088L-1.82959 45.0836L-1.92773 44.8127L48.8171 26.8379Z" fill="#FC35C6"/>
<path fill-rule="evenodd" clip-rule="evenodd" d="M48.8815 27.0195L48.9797 27.2904L-1.76514 45.2652L-1.86328 44.9943L48.8815 27.0195Z" fill="#FB35C6"/>
<path fill-rule="evenodd" clip-rule="evenodd" d="M48.947 27.1992L49.0451 27.4701L-1.69971 45.4449L-1.79785 45.174L48.947 27.1992Z" fill="#FA35C7"/>
<path fill-rule="evenodd" clip-rule="evenodd" d="M49.0134 27.3809L49.1115 27.6525L-1.6333 45.6273L-1.73145 45.3564L49.0134 27.3809Z" fill="#FA35C7"/>
<path fill-rule="evenodd" clip-rule="evenodd" d="M49.0788 27.5605L49.1769 27.8322L-1.56787 45.807L-1.66602 45.5353L49.0788 27.5605Z" fill="#F935C8"/>
<path fill-rule="evenodd" clip-rule="evenodd" d="M49.1432 27.7422L49.2414 28.0131L-1.50422 45.9887L-1.60156 45.717L49.1432 27.7422Z" fill="#F835C8"/>
<path fill-rule="evenodd" clip-rule="evenodd" d="M49.2097 27.9238L49.307 28.1947L-1.43781 46.1695L-1.53516 45.8986L49.2097 27.9238Z" fill="#F735C8"/>
<path fill-rule="evenodd" clip-rule="evenodd" d="M49.2751 28.1035L49.3724 28.3744L-1.37238 46.3492L-1.46973 46.0783L49.2751 28.1035Z" fill="#F635C9"/>
<path fill-rule="evenodd" clip-rule="evenodd" d="M49.3403 28.2832L49.4377 28.5549L-1.30713 46.5297L-1.40527 46.2588L49.3403 28.2832Z" fill="#F535C9"/>
<path fill-rule="evenodd" clip-rule="evenodd" d="M49.405 28.4648L49.5031 28.7365L-1.2417 46.7113L-1.33984 46.4404L49.405 28.4648Z" fill="#F436CA"/>
<path fill-rule="evenodd" clip-rule="evenodd" d="M49.4704 28.6445L49.5685 28.9154L-1.17627 46.891L-1.27441 46.6193L49.4704 28.6445Z" fill="#F336CA"/>
<path fill-rule="evenodd" clip-rule="evenodd" d="M49.5358 28.8262L49.634 29.0971L-1.11084 47.0726L-1.20898 46.801L49.5358 28.8262Z" fill="#F236CA"/>
<path fill-rule="evenodd" clip-rule="evenodd" d="M49.6013 29.0078L49.6994 29.2787L-1.04541 47.2535L-1.14355 46.9826L49.6013 29.0078Z" fill="#F136CB"/>
<path fill-rule="evenodd" clip-rule="evenodd" d="M49.6667 29.1875L49.7648 29.4584L-0.97998 47.4332L-1.07812 47.1623L49.6667 29.1875Z" fill="#F036CB"/>
<path fill-rule="evenodd" clip-rule="evenodd" d="M49.7321 29.3672L49.8303 29.6389L-0.914551 47.6137L-1.0127 47.3428L49.7321 29.3672Z" fill="#EF36CC"/>
<path fill-rule="evenodd" clip-rule="evenodd" d="M49.7975 29.5488L49.8957 29.8205L-0.849919 47.7953L-0.947266 47.5236L49.7975 29.5488Z" fill="#EE37CC"/>
<path fill-rule="evenodd" clip-rule="evenodd" d="M49.863 29.7305L49.9603 30.0014L-0.784489 47.9769L-0.881836 47.7053L49.863 29.7305Z" fill="#EC37CC"/>
<path fill-rule="evenodd" clip-rule="evenodd" d="M49.9276 29.9102L50.0257 30.181L-0.71906 48.1558L-0.816406 47.885L49.9276 29.9102Z" fill="#EB37CD"/>
<path fill-rule="evenodd" clip-rule="evenodd" d="M49.9929 30.0918L50.091 30.3627L-0.653808 48.3375L-0.751953 48.0666L49.9929 30.0918Z" fill="#EA37CD"/>
<path fill-rule="evenodd" clip-rule="evenodd" d="M50.0583 30.2715L50.1564 30.5432L-0.588379 48.518L-0.686523 48.2471L50.0583 30.2715Z" fill="#E837CE"/>
<path fill-rule="evenodd" clip-rule="evenodd" d="M50.1237 30.4531L50.2219 30.7248L-0.522949 48.6996L-0.621094 48.4279L50.1237 30.4531Z" fill="#E738CE"/>
<path fill-rule="evenodd" clip-rule="evenodd" d="M50.1891 30.6328L50.2873 30.9037L-0.457519 48.8793L-0.555664 48.6076L50.1891 30.6328Z" fill="#E638CE"/>
<path fill-rule="evenodd" clip-rule="evenodd" d="M50.2546 30.8145L50.3527 31.0853L-0.39209 49.0601L-0.490234 48.7893L50.2546 30.8145Z" fill="#E438CF"/>
<path fill-rule="evenodd" clip-rule="evenodd" d="M50.32 30.9941L50.4181 31.265L-0.32666 49.2398L-0.424805 48.9689L50.32 30.9941Z" fill="#E338CF"/>
<path fill-rule="evenodd" clip-rule="evenodd" d="M50.3854 31.1738L50.4836 31.4455L-0.26123 49.4203L-0.359375 49.1494L50.3854 31.1738Z" fill="#E138D0"/>
<path fill-rule="evenodd" clip-rule="evenodd" d="M50.4507 31.3555L50.5488 31.6271L-0.196777 49.6019L-0.294922 49.3303L50.4507 31.3555Z" fill="#E039D0"/>
<path fill-rule="evenodd" clip-rule="evenodd" d="M50.5153 31.5371L50.6135 31.808L-0.131347 49.7836L-0.229492 49.5119L50.5153 31.5371Z" fill="#DE39D0"/>
<path fill-rule="evenodd" clip-rule="evenodd" d="M50.5807 31.7168L50.6789 31.9877L-0.0659178 49.9625L-0.164062 49.6916L50.5807 31.7168Z" fill="#DD39D1"/>
<path fill-rule="evenodd" clip-rule="evenodd" d="M50.6462 31.8984L50.7443 32.1693L-0.000488095 50.1441L-0.0986328 49.8732L50.6462 31.8984Z" fill="#DB39D1"/>
<path fill-rule="evenodd" clip-rule="evenodd" d="M50.7116 32.0801L50.8097 32.351L0.0649416 50.3258L-0.0332031 50.0549L50.7116 32.0801Z" fill="#DA3AD1"/>
<path fill-rule="evenodd" clip-rule="evenodd" d="M50.777 32.2598L50.8752 32.5314L0.130371 50.5062L0.0322266 50.2354L50.777 32.2598Z" fill="#D83AD2"/>
<path fill-rule="evenodd" clip-rule="evenodd" d="M50.8425 32.4395L50.9406 32.7103L0.195801 50.6859L0.0976562 50.4143L50.8425 32.4395Z" fill="#D63AD2"/>
<path fill-rule="evenodd" clip-rule="evenodd" d="M50.9079 32.6211L51.006 32.892L0.261231 50.8676L0.163086 50.5959L50.9079 32.6211Z" fill="#D53AD2"/>
<path fill-rule="evenodd" clip-rule="evenodd" d="M50.9733 32.8008L51.0707 33.0717L0.325862 51.0465L0.228516 50.7756L50.9733 32.8008Z" fill="#D33BD3"/>
<path fill-rule="evenodd" clip-rule="evenodd" d="M51.0388 32.9824L51.1361 33.2533L0.391292 51.2281L0.293945 50.9572L51.0388 32.9824Z" fill="#D13BD3"/>
<path fill-rule="evenodd" clip-rule="evenodd" d="M51.104 33.1621L51.2014 33.4338L0.456543 51.4086L0.358398 51.1377L51.104 33.1621Z" fill="#D03BD3"/>
<path fill-rule="evenodd" clip-rule="evenodd" d="M51.1686 33.3438L51.2668 33.6146L0.521973 51.5902L0.423828 51.3186L51.1686 33.3438Z" fill="#CE3BD4"/>
<path fill-rule="evenodd" clip-rule="evenodd" d="M51.2341 33.5254L51.3322 33.7963L0.587403 51.7719L0.489258 51.5002L51.2341 33.5254Z" fill="#CC3CD4"/>
<path fill-rule="evenodd" clip-rule="evenodd" d="M51.2995 33.7051L51.3976 33.976L0.652832 51.9508L0.554688 51.6799L51.2995 33.7051Z" fill="#CA3CD4"/>
<path fill-rule="evenodd" clip-rule="evenodd" d="M51.3649 33.8867L51.4631 34.1576L0.718262 52.1324L0.620117 51.8615L51.3649 33.8867Z" fill="#C93CD5"/>
<path fill-rule="evenodd" clip-rule="evenodd" d="M51.4304 34.0664L51.5285 34.3373L0.783692 52.3121L0.685547 52.0412L51.4304 34.0664Z" fill="#C73DD5"/>
<path fill-rule="evenodd" clip-rule="evenodd" d="M51.4958 34.2461L51.5939 34.5178L0.849121 52.4926L0.750977 52.2209L51.4958 34.2461Z" fill="#C53DD5"/>
<path fill-rule="evenodd" clip-rule="evenodd" d="M51.5612 34.4277L51.6594 34.6986L0.913753 52.6742L0.816406 52.4025L51.5612 34.4277Z" fill="#C33DD6"/>
<path fill-rule="evenodd" clip-rule="evenodd" d="M51.6266 34.6094L51.724 34.8803L0.979183 52.8551L0.881836 52.5842L51.6266 34.6094Z" fill="#C13DD6"/>
<path fill-rule="evenodd" clip-rule="evenodd" d="M51.6921 34.7891L51.7894 35.0599L1.04461 53.0347L0.947266 52.7639L51.6921 34.7891Z" fill="#C03ED6"/>
<path fill-rule="evenodd" clip-rule="evenodd" d="M51.7573 34.9707L51.8547 35.2416L1.10986 53.2164L1.01172 52.9455L51.7573 34.9707Z" fill="#BE3ED7"/>
<path fill-rule="evenodd" clip-rule="evenodd" d="M51.822 35.1523L51.9201 35.4232L1.17529 53.398L1.07715 53.1264L51.822 35.1523Z" fill="#BC3ED7"/>
<path fill-rule="evenodd" clip-rule="evenodd" d="M51.8874 35.332L51.9855 35.6029L1.24072 53.5785L1.14258 53.3068L51.8874 35.332Z" fill="#BA3ED7"/>
<path fill-rule="evenodd" clip-rule="evenodd" d="M51.9528 35.5117L52.051 35.7826L1.30615 53.7574L1.20801 53.4865L51.9528 35.5117Z" fill="#B83FD8"/>
<path fill-rule="evenodd" clip-rule="evenodd" d="M52.0182 35.6934L52.1164 35.9642L1.37158 53.939L1.27344 53.6682L52.0182 35.6934Z" fill="#B73FD8"/>
<path fill-rule="evenodd" clip-rule="evenodd" d="M52.0837 35.873L52.1818 36.1439L1.43701 54.1187L1.33887 53.8479L52.0837 35.873Z" fill="#B53FD8"/>
<path fill-rule="evenodd" clip-rule="evenodd" d="M52.1491 36.0547L52.2472 36.3256L1.50244 54.3004L1.4043 54.0287L52.1491 36.0547Z" fill="#B340D8"/>
<path fill-rule="evenodd" clip-rule="evenodd" d="M52.2153 36.2344L52.3135 36.5053L1.56787 54.4809L1.46973 54.2092L52.2153 36.2344Z" fill="#B140D9"/>
<path fill-rule="evenodd" clip-rule="evenodd" d="M52.28 36.416L52.3781 36.6869L1.6333 54.6617L1.53516 54.3908L52.28 36.416Z" fill="#AF40D9"/>
<path fill-rule="evenodd" clip-rule="evenodd" d="M52.3454 36.5977L52.4435 36.8685L1.69873 54.8433L1.60059 54.5725L52.3454 36.5977Z" fill="#AE40D9"/>
<path fill-rule="evenodd" clip-rule="evenodd" d="M52.4108 36.7773L52.509 37.0482L1.76416 55.023L1.66602 54.7521L52.4108 36.7773Z" fill="#AC41D9"/>
<path fill-rule="evenodd" clip-rule="evenodd" d="M52.4763 36.959L52.5744 37.2299L1.82959 55.2047L1.73145 54.9338L52.4763 36.959Z" fill="#AA41DA"/>
<path fill-rule="evenodd" clip-rule="evenodd" d="M52.5417 37.1387L52.6398 37.4096L1.89502 55.3851L1.79688 55.1135L52.5417 37.1387Z" fill="#A841DA"/>
<path fill-rule="evenodd" clip-rule="evenodd" d="M52.6071 37.3184L52.7053 37.5892L1.96045 55.5648L1.8623 55.2932L52.6071 37.3184Z" fill="#A641DA"/>
<path fill-rule="evenodd" clip-rule="evenodd" d="M52.6725 37.5L52.7707 37.7709L2.02588 55.7457L1.92773 55.4748L52.6725 37.5Z" fill="#A542DA"/>
<path fill-rule="evenodd" clip-rule="evenodd" d="M52.738 37.6816L52.8353 37.9525L2.09131 55.9273L1.99316 55.6564L52.738 37.6816Z" fill="#A342DB"/>
<path fill-rule="evenodd" clip-rule="evenodd" d="M52.8034 37.8613L52.9007 38.1322L2.15594 56.107L2.05859 55.8361L52.8034 37.8613Z" fill="#A142DB"/>
<path fill-rule="evenodd" clip-rule="evenodd" d="M52.8687 38.041L52.966 38.3127L2.22119 56.2875L2.12305 56.0158L52.8687 38.041Z" fill="#9F43DB"/>
<path fill-rule="evenodd" clip-rule="evenodd" d="M52.9333 38.2227L53.0314 38.4935L2.28662 56.4691L2.18848 56.1975L52.9333 38.2227Z" fill="#9E43DB"/>
<path fill-rule="evenodd" clip-rule="evenodd" d="M52.9987 38.4023L53.0969 38.6732L2.35205 56.648L2.25391 56.3771L52.9987 38.4023Z" fill="#9C43DC"/>
<path fill-rule="evenodd" clip-rule="evenodd" d="M53.0641 38.584L53.1623 38.8549L2.41748 56.8297L2.31934 56.5588L53.0641 38.584Z" fill="#9A43DC"/>
<path fill-rule="evenodd" clip-rule="evenodd" d="M53.1296 38.7656L53.2277 39.0365L2.48291 57.0113L2.38477 56.7404L53.1296 38.7656Z" fill="#9944DC"/>
<path fill-rule="evenodd" clip-rule="evenodd" d="M53.195 38.9453L53.2931 39.2162L2.54834 57.191L2.4502 56.9201L53.195 38.9453Z" fill="#9744DC"/>
<path fill-rule="evenodd" clip-rule="evenodd" d="M53.2604 39.127L53.3586 39.3978L2.61297 57.3734L2.51562 57.1018L53.2604 39.127Z" fill="#9544DD"/>
<path fill-rule="evenodd" clip-rule="evenodd" d="M53.3259 39.3066L53.4232 39.5775L2.6784 57.5523L2.58105 57.2814L53.3259 39.3066Z" fill="#9444DD"/>
<path fill-rule="evenodd" clip-rule="evenodd" d="M53.3913 39.4883L53.4886 39.7592L2.74383 57.734L2.64648 57.4631L53.3913 39.4883Z" fill="#9245DD"/>
<path fill-rule="evenodd" clip-rule="evenodd" d="M53.4565 39.668L53.5539 39.9389L2.80908 57.9137L2.71094 57.6428L53.4565 39.668Z" fill="#9045DD"/>
<path fill-rule="evenodd" clip-rule="evenodd" d="M53.5212 39.8496L53.6193 40.1205L2.87451 58.0953L2.77637 57.8244L53.5212 39.8496Z" fill="#8F45DD"/>
<path fill-rule="evenodd" clip-rule="evenodd" d="M53.5866 40.0293L53.6847 40.3002L2.93994 58.2758L2.8418 58.0049L53.5866 40.0293Z" fill="#8D45DE"/>
<path fill-rule="evenodd" clip-rule="evenodd" d="M53.652 40.2109L53.7502 40.4818L3.00537 58.4566L2.90723 58.1857L53.652 40.2109Z" fill="#8C45DE"/>
<path fill-rule="evenodd" clip-rule="evenodd" d="M53.7175 40.3906L53.8156 40.6615L3.0708 58.6363L2.97266 58.3654L53.7175 40.3906Z" fill="#8A46DE"/>
<path fill-rule="evenodd" clip-rule="evenodd" d="M53.7829 40.5723L53.881 40.8432L3.13623 58.818L3.03809 58.5471L53.7829 40.5723Z" fill="#8946DE"/>
<path fill-rule="evenodd" clip-rule="evenodd" d="M53.8483 40.7539L53.9465 41.0248L3.20166 58.9996L3.10352 58.7287L53.8483 40.7539Z" fill="#8746DE"/>
<path fill-rule="evenodd" clip-rule="evenodd" d="M53.9138 40.9336L54.0119 41.2045L3.26629 59.1801L3.16895 58.9092L53.9138 40.9336Z" fill="#8646DE"/>
<path fill-rule="evenodd" clip-rule="evenodd" d="M53.9782 41.1133L54.0764 41.3842L3.33154 59.3598L3.2334 59.0881L53.9782 41.1133Z" fill="#8547DF"/>
<path fill-rule="evenodd" clip-rule="evenodd" d="M54.0436 41.2949L54.1418 41.5658L3.39697 59.5406L3.29883 59.2697L54.0436 41.2949Z" fill="#8347DF"/>
<path fill-rule="evenodd" clip-rule="evenodd" d="M54.1091 41.4746L54.2072 41.7455L3.4624 59.7203L3.36426 59.4494L54.1091 41.4746Z" fill="#8247DF"/>
<path fill-rule="evenodd" clip-rule="evenodd" d="M54.1745 41.6562L54.2726 41.9271L3.52783 59.9019L3.42969 59.6311L54.1745 41.6562Z" fill="#8147DF"/>
<path fill-rule="evenodd" clip-rule="evenodd" d="M54.2399 41.8359L54.3381 42.1068L3.59326 60.0824L3.49512 59.8115L54.2399 41.8359Z" fill="#8047DF"/>
<path fill-rule="evenodd" clip-rule="evenodd" d="M54.3054 42.0176L54.4035 42.2885L3.65869 60.2641L3.56055 59.9924L54.3054 42.0176Z" fill="#7E48DF"/>
<path fill-rule="evenodd" clip-rule="evenodd" d="M54.3708 42.1992L54.4689 42.4701L3.72412 60.4449L3.62598 60.174L54.3708 42.1992Z" fill="#7D48DF"/>
<path fill-rule="evenodd" clip-rule="evenodd" d="M54.4362 42.3789L54.5344 42.6498L3.78955 60.6246L3.69141 60.3537L54.4362 42.3789Z" fill="#7C48E0"/>
<path fill-rule="evenodd" clip-rule="evenodd" d="M54.5016 42.5605L54.5998 42.8314L3.85498 60.8062L3.75684 60.5353L54.5016 42.5605Z" fill="#7B48E0"/>
<path fill-rule="evenodd" clip-rule="evenodd" d="M54.5669 42.7402L54.665 43.0119L3.91943 60.9867L3.82129 60.7158L54.5669 42.7402Z" fill="#7A48E0"/>
<path fill-rule="evenodd" clip-rule="evenodd" d="M54.6315 42.9219L54.7297 43.1928L3.98486 61.1684L3.88672 60.8975L54.6315 42.9219Z" fill="#7948E0"/>
<path fill-rule="evenodd" clip-rule="evenodd" d="M54.697 43.1016L54.7951 43.3724L4.05029 61.3472L3.95215 61.0764L54.697 43.1016Z" fill="#7849E0"/>
<path fill-rule="evenodd" clip-rule="evenodd" d="M54.7624 43.2832L54.8605 43.5541L4.11572 61.5289L4.01758 61.258L54.7624 43.2832Z" fill="#7749E0"/>
<path fill-rule="evenodd" clip-rule="evenodd" d="M54.8278 43.4629L54.926 43.7338L4.18115 61.7086L4.08301 61.4377L54.8278 43.4629Z" fill="#7649E0"/>
<path fill-rule="evenodd" clip-rule="evenodd" d="M54.8932 43.6445L54.9914 43.9154L4.24658 61.8902L4.14844 61.6193L54.8932 43.6445Z" fill="#7549E0"/>
<path fill-rule="evenodd" clip-rule="evenodd" d="M54.9587 43.8242L55.0568 44.0959L4.31201 62.0707L4.21387 61.7998L54.9587 43.8242Z" fill="#7449E0"/>
<path fill-rule="evenodd" clip-rule="evenodd" d="M55.0241 44.0059L55.1222 44.2767L4.37664 62.2515L4.2793 61.9807L55.0241 44.0059Z" fill="#7349E0"/>
<path fill-rule="evenodd" clip-rule="evenodd" d="M55.0895 44.1855L55.1869 44.4564L4.44207 62.4312L4.34473 62.1604L55.0895 44.1855Z" fill="#7349E1"/>
<path fill-rule="evenodd" clip-rule="evenodd" d="M55.155 44.3672L55.2523 44.6381L4.5075 62.6129L4.41016 62.342L55.155 44.3672Z" fill="#7249E1"/>
<path fill-rule="evenodd" clip-rule="evenodd" d="M55.2212 44.5469L55.3185 44.8178L4.57373 62.7926L4.47559 62.5217L55.2212 44.5469Z" fill="#7149E1"/>
<path fill-rule="evenodd" clip-rule="evenodd" d="M55.2858 44.7285L55.384 45.0002L4.63916 62.975L4.54102 62.7041L55.2858 44.7285Z" fill="#714AE1"/>
<path fill-rule="evenodd" clip-rule="evenodd" d="M55.3513 44.9082L55.4494 45.1791L4.70459 63.1539L4.60645 62.883L55.3513 44.9082Z" fill="#704AE1"/>
<path fill-rule="evenodd" clip-rule="evenodd" d="M55.4167 45.0898L55.5148 45.3607L4.77002 63.3355L4.67188 63.0646L55.4167 45.0898Z" fill="#704AE1"/>
<path fill-rule="evenodd" clip-rule="evenodd" d="M55.4821 45.2695L55.5803 45.5404L4.83545 63.5152L4.7373 63.2443L55.4821 45.2695Z" fill="#6F4AE1"/>
<path fill-rule="evenodd" clip-rule="evenodd" d="M55.5475 45.4512L55.6457 45.7221L4.90088 63.6969L4.80273 63.426L55.5475 45.4512Z" fill="#6F4AE1"/>
<path fill-rule="evenodd" clip-rule="evenodd" d="M55.613 45.6309L55.7111 45.9025L4.96631 63.8773L4.86816 63.6065L55.613 45.6309Z" fill="#6F4AE1"/>
<path fill-rule="evenodd" clip-rule="evenodd" d="M55.6784 45.8125L55.7765 46.0842L5.03094 64.059L4.93359 63.7873L55.6784 45.8125Z" fill="#6E4AE1"/>
<path fill-rule="evenodd" clip-rule="evenodd" d="M55.7438 45.9941L55.8412 46.265L5.09637 64.2398L4.99902 63.9689L55.7438 45.9941Z" fill="#6E4AE1"/>
<path fill-rule="evenodd" clip-rule="evenodd" d="M55.8085 46.1738L55.9066 46.4447L5.1618 64.4195L5.06445 64.1486L55.8085 46.1738Z" fill="#6E4AE1"/>
<path fill-rule="evenodd" clip-rule="evenodd" d="M55.8737 46.3555L55.9719 46.6264L5.22705 64.6012L5.12891 64.3303L55.8737 46.3555Z" fill="#6E4AE1"/>
<path fill-rule="evenodd" clip-rule="evenodd" d="M55.9392 46.5352L57.2326 50.112L6.48777 68.0868L5.19434 64.5108L55.9392 46.5352Z" fill="#6E4AE1"/>
</g>
<mask id="mask1_11772_14572" style="mask-type:luminance" maskUnits="userSpaceOnUse" x="0" y="0" width="45" height="65">
<path d="M33.8168 0C37.4203 2.11733 40.3806 5.20448 42.3267 8.89026C37.2623 18.8088 26.8581 25.6512 14.9172 25.6512V25.652C29.2942 25.652 41.4418 35.5697 44.7261 48.8344C44.4851 51.045 43.9106 53.1607 43.0568 55.1327C39.5116 53.2476 35.459 52.1775 31.1534 52.1775C21.8895 52.1775 13.7953 57.1276 9.4195 64.5C6.10332 62.1481 3.45342 58.9259 1.81927 55.1785C7.13185 46.0648 17.0852 39.8976 28.4229 39.8976V39.896C15.6178 39.896 4.58168 32.0285 0 20.9364V19.1018C0 16.8802 0.335926 14.7321 0.956711 12.704C3.99202 13.9865 7.33213 14.6973 10.8398 14.6973C21.0676 14.6973 29.8703 8.66518 33.8168 0Z" fill="white"/>
</mask>
<g mask="url(#mask1_11772_14572)">
<mask id="mask2_11772_14572" style="mask-type:luminance" maskUnits="userSpaceOnUse" x="0" y="0" width="45" height="65">
<path d="M33.8168 0C37.4203 2.11733 40.3806 5.20448 42.3267 8.89026C37.2623 18.8088 26.8581 25.6512 14.9172 25.6512V25.652C29.2942 25.652 41.4418 35.5697 44.7261 48.8344C44.4851 51.045 43.9106 53.1607 43.0568 55.1327C39.5116 53.2476 35.459 52.1775 31.1534 52.1775C21.8895 52.1775 13.7953 57.1276 9.4195 64.5C6.10332 62.1481 3.45342 58.9259 1.81927 55.1785C7.13185 46.0648 17.0852 39.8976 28.4229 39.8976V39.896C15.6178 39.896 4.58168 32.0285 0 20.9364V19.1018C0 16.8802 0.335926 14.7321 0.956711 12.704C3.99202 13.9865 7.33213 14.6973 10.8398 14.6973C21.0676 14.6973 29.8703 8.66518 33.8168 0Z" fill="white"/>
</mask>
<g mask="url(#mask2_11772_14572)">
<path fill-rule="evenodd" clip-rule="evenodd" d="M46.4484 -14.7031L50.2801 -1.0854L-19.8998 18.2604L-23.7314 4.64269L46.4484 -14.7031Z" fill="#FFD374"/>
<path fill-rule="evenodd" clip-rule="evenodd" d="M50.2533 -1.17969L50.3331 -0.896166L-19.846 18.4496L-19.9258 18.1653L50.2533 -1.17969Z" fill="#FFD374"/>
<path fill-rule="evenodd" clip-rule="evenodd" d="M50.306 -0.990234L50.3858 -0.706713L-19.7933 18.6391L-19.873 18.3556L50.306 -0.990234Z" fill="#FFD374"/>
<path fill-rule="evenodd" clip-rule="evenodd" d="M50.3595 -0.802734L50.4393 -0.518423L-19.7405 18.8266L-19.8203 18.5431L50.3595 -0.802734Z" fill="#FFD374"/>
<path fill-rule="evenodd" clip-rule="evenodd" d="M50.4132 -0.613281L50.493 -0.32897L-19.6868 19.0161L-19.7666 18.7325L50.4132 -0.613281Z" fill="#FFD374"/>
<path fill-rule="evenodd" clip-rule="evenodd" d="M50.4662 -0.421875L50.546 -0.138353L-19.6331 19.2075L-19.7129 18.9232L50.4662 -0.421875Z" fill="#FFD274"/>
<path fill-rule="evenodd" clip-rule="evenodd" d="M50.5197 -0.234375L50.5995 0.0491467L-19.5804 19.395L-19.6602 19.1114L50.5197 -0.234375Z" fill="#FFD274"/>
<path fill-rule="evenodd" clip-rule="evenodd" d="M50.5724 -0.0449219L50.6522 0.2386L-19.5276 19.5844L-19.6074 19.3001L50.5724 -0.0449219Z" fill="#FFD274"/>
<path fill-rule="evenodd" clip-rule="evenodd" d="M50.6253 0.144531L50.7059 0.428843L-19.4739 19.7739L-19.5537 19.4903L50.6253 0.144531Z" fill="#FFD175"/>
<path fill-rule="evenodd" clip-rule="evenodd" d="M50.6789 0.333984L50.7587 0.617506L-19.4204 19.9633L-19.501 19.679L50.6789 0.333984Z" fill="#FFD175"/>
<path fill-rule="evenodd" clip-rule="evenodd" d="M50.7326 0.523438L50.8124 0.807749L-19.3675 20.1528L-19.4473 19.8693L50.7326 0.523438Z" fill="#FFD175"/>
<path fill-rule="evenodd" clip-rule="evenodd" d="M50.7863 0.710938L50.8661 0.994459L-19.3138 20.3403L-19.3936 20.056L50.7863 0.710938Z" fill="#FFD075"/>
<path fill-rule="evenodd" clip-rule="evenodd" d="M50.8382 0.900391L50.918 1.1847L-19.261 20.5297L-19.3408 20.2462L50.8382 0.900391Z" fill="#FFCF75"/>
<path fill-rule="evenodd" clip-rule="evenodd" d="M50.8918 1.08984L50.9716 1.37337L-19.2083 20.7192L-19.2881 20.4357L50.8918 1.08984Z" fill="#FFCF76"/>
<path fill-rule="evenodd" clip-rule="evenodd" d="M50.9455 1.2793L51.0253 1.56361L-19.1546 20.9086L-19.2344 20.6251L50.9455 1.2793Z" fill="#FFCE76"/>
<path fill-rule="evenodd" clip-rule="evenodd" d="M50.9984 1.46875L51.079 1.75227L-19.1009 21.0981L-19.1807 20.8146L50.9984 1.46875Z" fill="#FFCE76"/>
<path fill-rule="evenodd" clip-rule="evenodd" d="M51.0519 1.6582L51.1317 1.94172L-19.0481 21.2875L-19.1279 21.0032L51.0519 1.6582Z" fill="#FFCD76"/>
<path fill-rule="evenodd" clip-rule="evenodd" d="M51.1047 1.84766L51.1844 2.13118L-18.9954 21.477L-19.0752 21.1935L51.1047 1.84766Z" fill="#FFCC77"/>
<path fill-rule="evenodd" clip-rule="evenodd" d="M51.1584 2.03711L51.2382 2.32063L-18.9417 21.6664L-19.0215 21.3821L51.1584 2.03711Z" fill="#FFCB77"/>
<path fill-rule="evenodd" clip-rule="evenodd" d="M51.2113 2.22461L51.2911 2.50892L-18.888 21.8539L-18.9678 21.5704L51.2113 2.22461Z" fill="#FFCA77"/>
<path fill-rule="evenodd" clip-rule="evenodd" d="M51.2648 2.41406L51.3446 2.69758L-18.8352 22.0434L-18.915 21.7591L51.2648 2.41406Z" fill="#FFCA78"/>
<path fill-rule="evenodd" clip-rule="evenodd" d="M51.3185 2.60352L51.3983 2.88704L-18.7815 22.2329L-18.8613 21.9493L51.3185 2.60352Z" fill="#FFC978"/>
<path fill-rule="evenodd" clip-rule="evenodd" d="M51.3713 2.79297L51.451 3.07649L-18.7288 22.4223L-18.8086 22.138L51.3713 2.79297Z" fill="#FFC878"/>
<path fill-rule="evenodd" clip-rule="evenodd" d="M51.424 2.98047L51.5038 3.26478L-18.6761 22.6098L-18.7559 22.3263L51.424 2.98047Z" fill="#FFC779"/>
<path fill-rule="evenodd" clip-rule="evenodd" d="M51.4777 3.17188L51.5575 3.4554L-18.6224 22.8012L-18.7021 22.5177L51.4777 3.17188Z" fill="#FFC679"/>
<path fill-rule="evenodd" clip-rule="evenodd" d="M51.5314 3.35938L51.6112 3.64369L-18.5686 22.9887L-18.6484 22.7052L51.5314 3.35938Z" fill="#FFC579"/>
<path fill-rule="evenodd" clip-rule="evenodd" d="M51.5843 3.54883L51.6641 3.83235L-18.5149 23.1782L-18.5947 22.8946L51.5843 3.54883Z" fill="#FFC47A"/>
<path fill-rule="evenodd" clip-rule="evenodd" d="M51.6369 3.73828L51.7167 4.02259L-18.4632 23.3676L-18.543 23.0841L51.6369 3.73828Z" fill="#FFC27A"/>
<path fill-rule="evenodd" clip-rule="evenodd" d="M51.6906 3.92773L51.7704 4.21126L-18.4095 23.5571L-18.4893 23.2736L51.6906 3.92773Z" fill="#FFC17B"/>
<path fill-rule="evenodd" clip-rule="evenodd" d="M51.7443 4.11719L51.8241 4.4015L-18.3558 23.7465L-18.4355 23.463L51.7443 4.11719Z" fill="#FFC07B"/>
<path fill-rule="evenodd" clip-rule="evenodd" d="M51.797 4.30664L51.8768 4.59016L-18.3022 23.936L-18.3828 23.6525L51.797 4.30664Z" fill="#FFBF7C"/>
<path fill-rule="evenodd" clip-rule="evenodd" d="M51.8508 4.49609L51.9305 4.77962L-18.2493 24.1254L-18.3291 23.8411L51.8508 4.49609Z" fill="#FFBE7C"/>
<path fill-rule="evenodd" clip-rule="evenodd" d="M51.9035 4.68359L51.9833 4.96712L-18.1966 24.3129L-18.2764 24.0294L51.9035 4.68359Z" fill="#FFBC7D"/>
<path fill-rule="evenodd" clip-rule="evenodd" d="M51.9564 4.87305L52.037 5.15657L-18.1429 24.5024L-18.2227 24.2181L51.9564 4.87305Z" fill="#FFBB7D"/>
<path fill-rule="evenodd" clip-rule="evenodd" d="M52.0099 5.0625L52.0897 5.34681L-18.0901 24.6918L-18.1699 24.4083L52.0099 5.0625Z" fill="#FFBA7E"/>
<path fill-rule="evenodd" clip-rule="evenodd" d="M52.0636 5.25195L52.1434 5.53547L-18.0364 24.8813L-18.1162 24.597L52.0636 5.25195Z" fill="#FFB97E"/>
<path fill-rule="evenodd" clip-rule="evenodd" d="M52.1174 5.44141L52.1971 5.72572L-17.9827 25.0707L-18.0625 24.7872L52.1174 5.44141Z" fill="#FFB77F"/>
<path fill-rule="evenodd" clip-rule="evenodd" d="M52.1691 5.63086L52.2489 5.91438L-17.9302 25.2602L-18.0107 24.9767L52.1691 5.63086Z" fill="#FFB67F"/>
<path fill-rule="evenodd" clip-rule="evenodd" d="M52.2228 5.82031L52.3026 6.10462L-17.8772 25.4496L-17.957 25.1661L52.2228 5.82031Z" fill="#FFB480"/>
<path fill-rule="evenodd" clip-rule="evenodd" d="M52.2765 6.00977L52.3563 6.29329L-17.8235 25.6391L-17.9033 25.3556L52.2765 6.00977Z" fill="#FFB380"/>
<path fill-rule="evenodd" clip-rule="evenodd" d="M52.3294 6.19727L52.41 6.48158L-17.7698 25.8266L-17.8496 25.5431L52.3294 6.19727Z" fill="#FFB181"/>
<path fill-rule="evenodd" clip-rule="evenodd" d="M52.383 6.38672L52.4628 6.67024L-17.7171 26.0161L-17.7969 25.7325L52.383 6.38672Z" fill="#FFB081"/>
<path fill-rule="evenodd" clip-rule="evenodd" d="M52.4357 6.57617L52.5155 6.85969L-17.6643 26.2055L-17.7441 25.9212L52.4357 6.57617Z" fill="#FFAE82"/>
<path fill-rule="evenodd" clip-rule="evenodd" d="M52.4894 6.76562L52.5692 7.04915L-17.6106 26.395L-17.6904 26.1114L52.4894 6.76562Z" fill="#FFAD83"/>
<path fill-rule="evenodd" clip-rule="evenodd" d="M52.5423 6.95508L52.6221 7.2386L-17.5569 26.5836L-17.6367 26.3001L52.5423 6.95508Z" fill="#FFAB83"/>
<path fill-rule="evenodd" clip-rule="evenodd" d="M52.5959 7.14453L52.6757 7.42884L-17.5042 26.7739L-17.584 26.4903L52.5959 7.14453Z" fill="#FFAA84"/>
<path fill-rule="evenodd" clip-rule="evenodd" d="M52.6496 7.33398L52.7294 7.61751L-17.4505 26.9633L-17.5303 26.679L52.6496 7.33398Z" fill="#FFA885"/>
<path fill-rule="evenodd" clip-rule="evenodd" d="M52.7015 7.52148L52.7813 7.80501L-17.3977 27.1508L-17.4775 26.8673L52.7015 7.52148Z" fill="#FFA785"/>
<path fill-rule="evenodd" clip-rule="evenodd" d="M52.7551 7.71094L52.8348 7.99446L-17.345 27.3403L-17.4248 27.0568L52.7551 7.71094Z" fill="#FFA586"/>
<path fill-rule="evenodd" clip-rule="evenodd" d="M52.8088 7.90039L52.8885 8.1847L-17.2913 27.5297L-17.3711 27.2462L52.8088 7.90039Z" fill="#FFA386"/>
<path fill-rule="evenodd" clip-rule="evenodd" d="M52.8625 8.08984L52.9423 8.37337L-17.2376 27.7192L-17.3174 27.4349L52.8625 8.08984Z" fill="#FFA287"/>
<path fill-rule="evenodd" clip-rule="evenodd" d="M52.9144 8.2793L52.9942 8.56361L-17.1849 27.9086L-17.2646 27.6251L52.9144 8.2793Z" fill="#FFA088"/>
<path fill-rule="evenodd" clip-rule="evenodd" d="M52.9679 8.46875L53.0477 8.75227L-17.1321 28.0981L-17.2119 27.8146L52.9679 8.46875Z" fill="#FF9E88"/>
<path fill-rule="evenodd" clip-rule="evenodd" d="M53.0216 8.65625L53.1014 8.94056L-17.0784 28.2856L-17.1582 28.0021L53.0216 8.65625Z" fill="#FF9D89"/>
<path fill-rule="evenodd" clip-rule="evenodd" d="M53.0746 8.8457L53.1544 9.12923L-17.0247 28.475L-17.1045 28.1915L53.0746 8.8457Z" fill="#FF9B8A"/>
<path fill-rule="evenodd" clip-rule="evenodd" d="M53.1281 9.03711L53.2079 9.32063L-16.9712 28.6657L-17.0518 28.3821L53.1281 9.03711Z" fill="#FF998B"/>
<path fill-rule="evenodd" clip-rule="evenodd" d="M53.1808 9.22461L53.2606 9.50813L-16.9192 28.8539L-16.999 28.5704L53.1808 9.22461Z" fill="#FF988B"/>
<path fill-rule="evenodd" clip-rule="evenodd" d="M53.2345 9.41406L53.3143 9.69758L-16.8655 29.0434L-16.9453 28.7591L53.2345 9.41406Z" fill="#FF968C"/>
<path fill-rule="evenodd" clip-rule="evenodd" d="M53.2875 9.60352L53.3672 9.88704L-16.8118 29.2329L-16.8916 28.9493L53.2875 9.60352Z" fill="#FF948D"/>
<path fill-rule="evenodd" clip-rule="evenodd" d="M53.341 9.79297L53.4208 10.0765L-16.7591 29.4223L-16.8389 29.138L53.341 9.79297Z" fill="#FF938D"/>
<path fill-rule="evenodd" clip-rule="evenodd" d="M53.3947 9.98047L53.4745 10.2648L-16.7054 29.6098L-16.7852 29.3263L53.3947 9.98047Z" fill="#FF918E"/>
<path fill-rule="evenodd" clip-rule="evenodd" d="M53.4466 10.1699L53.5264 10.4534L-16.6526 29.7993L-16.7324 29.5149L53.4466 10.1699Z" fill="#FF8F8F"/>
<path fill-rule="evenodd" clip-rule="evenodd" d="M53.5002 10.3594L53.58 10.6429L-16.5991 29.9887L-16.6797 29.7052L53.5002 10.3594Z" fill="#FF8D90"/>
<path fill-rule="evenodd" clip-rule="evenodd" d="M53.5539 10.5488L53.6337 10.8323L-16.5462 30.1782L-16.626 29.8946L53.5539 10.5488Z" fill="#FF8C90"/>
<path fill-rule="evenodd" clip-rule="evenodd" d="M53.6068 10.7383L53.6874 11.0226L-16.4925 30.3676L-16.5723 30.0841L53.6068 10.7383Z" fill="#FF8A91"/>
<path fill-rule="evenodd" clip-rule="evenodd" d="M53.6605 10.9277L53.7403 11.2113L-16.4388 30.5571L-16.5186 30.2728L53.6605 10.9277Z" fill="#FF8892"/>
<path fill-rule="evenodd" clip-rule="evenodd" d="M53.714 11.1172L53.7938 11.4007L-16.386 30.7457L-16.4658 30.4622L53.714 11.1172Z" fill="#FF8693"/>
<path fill-rule="evenodd" clip-rule="evenodd" d="M53.7668 11.3066L53.8466 11.5902L-16.3333 30.936L-16.4131 30.6525L53.7668 11.3066Z" fill="#FF8593"/>
<path fill-rule="evenodd" clip-rule="evenodd" d="M53.8197 11.4941L53.8995 11.7785L-16.2796 31.1235L-16.3594 30.84L53.8197 11.4941Z" fill="#FF8394"/>
<path fill-rule="evenodd" clip-rule="evenodd" d="M53.8732 11.6836L53.953 11.9671L-16.2261 31.3129L-16.3066 31.0294L53.8732 11.6836Z" fill="#FF8195"/>
<path fill-rule="evenodd" clip-rule="evenodd" d="M53.9269 11.873L54.0067 12.1566L-16.1731 31.5024L-16.2529 31.2181L53.9269 11.873Z" fill="#FF7F96"/>
<path fill-rule="evenodd" clip-rule="evenodd" d="M53.9789 12.0625L54.0594 12.346L-16.1204 31.6918L-16.2002 31.4083L53.9789 12.0625Z" fill="#FF7D96"/>
<path fill-rule="evenodd" clip-rule="evenodd" d="M54.0326 12.252L54.1124 12.5355L-16.0667 31.8813L-16.1465 31.597L54.0326 12.252Z" fill="#FF7C97"/>
<path fill-rule="evenodd" clip-rule="evenodd" d="M54.0861 12.4395L54.1659 12.723L-16.014 32.0688L-16.0938 31.7853L54.0861 12.4395Z" fill="#FF7A98"/>
<path fill-rule="evenodd" clip-rule="evenodd" d="M54.1398 12.6309L54.2196 12.9144L-15.9602 32.2602L-16.04 31.9759L54.1398 12.6309Z" fill="#FF7899"/>
<path fill-rule="evenodd" clip-rule="evenodd" d="M54.1927 12.8184L54.2725 13.1027L-15.9065 32.4477L-15.9863 32.1642L54.1927 12.8184Z" fill="#FF7699"/>
<path fill-rule="evenodd" clip-rule="evenodd" d="M54.2453 13.0078L54.3251 13.2913L-15.8548 32.6371L-15.9346 32.3528L54.2453 13.0078Z" fill="#FF759A"/>
<path fill-rule="evenodd" clip-rule="evenodd" d="M54.299 13.1973L54.3788 13.4816L-15.8011 32.8266L-15.8809 32.5431L54.299 13.1973Z" fill="#FF739B"/>
<path fill-rule="evenodd" clip-rule="evenodd" d="M54.3519 13.3867L54.4317 13.6702L-15.7474 33.0161L-15.8271 32.7325L54.3519 13.3867Z" fill="#FF719C"/>
<path fill-rule="evenodd" clip-rule="evenodd" d="M54.4056 13.5762L54.4854 13.8605L-15.6936 33.2055L-15.7734 32.922L54.4056 13.5762Z" fill="#FF709C"/>
<path fill-rule="evenodd" clip-rule="evenodd" d="M54.4592 13.7656L54.5389 14.0491L-15.6409 33.395L-15.7207 33.1107L54.4592 13.7656Z" fill="#FF6E9D"/>
<path fill-rule="evenodd" clip-rule="evenodd" d="M54.5119 13.9551L54.5917 14.2386L-15.5882 33.5844L-15.668 33.3001L54.5119 13.9551Z" fill="#FF6C9E"/>
<path fill-rule="evenodd" clip-rule="evenodd" d="M54.5648 14.1426L54.6446 14.4261L-15.5345 33.7719L-15.6143 33.4884L54.5648 14.1426Z" fill="#FF6A9F"/>
<path fill-rule="evenodd" clip-rule="evenodd" d="M54.6183 14.332L54.6981 14.6163L-15.4817 33.9614L-15.5615 33.6778L54.6183 14.332Z" fill="#FF69A0"/>
<path fill-rule="evenodd" clip-rule="evenodd" d="M54.672 14.5215L54.7518 14.805L-15.428 34.1508L-15.5078 33.8673L54.672 14.5215Z" fill="#FF67A0"/>
<path fill-rule="evenodd" clip-rule="evenodd" d="M54.725 14.7109L54.8047 14.9945L-15.3743 34.3403L-15.4541 34.056L54.725 14.7109Z" fill="#FF65A1"/>
<path fill-rule="evenodd" clip-rule="evenodd" d="M54.7777 14.9004L54.8575 15.1839L-15.3216 34.5297L-15.4014 34.2462L54.7777 14.9004Z" fill="#FF64A2"/>
<path fill-rule="evenodd" clip-rule="evenodd" d="M54.8312 15.0898L54.911 15.3734L-15.2688 34.7192L-15.3486 34.4349L54.8312 15.0898Z" fill="#FF62A3"/>
<path fill-rule="evenodd" clip-rule="evenodd" d="M54.8841 15.2793L54.9647 15.5636L-15.2151 34.9086L-15.2949 34.6251L54.8841 15.2793Z" fill="#FF61A3"/>
<path fill-rule="evenodd" clip-rule="evenodd" d="M54.9378 15.4668L55.0176 15.7503L-15.1614 35.0961L-15.2412 34.8118L54.9378 15.4668Z" fill="#FF5FA4"/>
<path fill-rule="evenodd" clip-rule="evenodd" d="M54.9914 15.6562L55.0712 15.9406L-15.1087 35.2856L-15.1885 35.0021L54.9914 15.6562Z" fill="#FF5DA5"/>
<path fill-rule="evenodd" clip-rule="evenodd" d="M55.0441 15.8457L55.1239 16.1292L-15.0559 35.475L-15.1357 35.1907L55.0441 15.8457Z" fill="#FF5CA6"/>
<path fill-rule="evenodd" clip-rule="evenodd" d="M55.097 16.0352L55.1768 16.3195L-15.0022 35.6645L-15.082 35.381L55.097 16.0352Z" fill="#FF5AA6"/>
<path fill-rule="evenodd" clip-rule="evenodd" d="M55.1506 16.2246L55.2303 16.5081L-14.9487 35.8539L-15.0293 35.5704L55.1506 16.2246Z" fill="#FF59A7"/>
<path fill-rule="evenodd" clip-rule="evenodd" d="M55.2043 16.4121L55.2841 16.6964L-14.8958 36.0414L-14.9756 35.7579L55.2043 16.4121Z" fill="#FF57A8"/>
<path fill-rule="evenodd" clip-rule="evenodd" d="M55.2562 16.6035L55.3368 16.887L-14.8431 36.2329L-14.9229 35.9485L55.2562 16.6035Z" fill="#FF56A9"/>
<path fill-rule="evenodd" clip-rule="evenodd" d="M55.3099 16.793L55.3897 17.0765L-14.7893 36.4223L-14.8691 36.138L55.3099 16.793Z" fill="#FF54A9"/>
<path fill-rule="evenodd" clip-rule="evenodd" d="M55.3634 16.9805L55.4432 17.264L-14.7366 36.6098L-14.8164 36.3263L55.3634 16.9805Z" fill="#FF53AA"/>
<path fill-rule="evenodd" clip-rule="evenodd" d="M55.4172 17.1699L55.4969 17.4542L-14.6829 36.7993L-14.7627 36.5157L55.4172 17.1699Z" fill="#FF51AB"/>
<path fill-rule="evenodd" clip-rule="evenodd" d="M55.4701 17.3594L55.5499 17.6437L-14.6292 36.9887L-14.709 36.7052L55.4701 17.3594Z" fill="#FF50AC"/>
<path fill-rule="evenodd" clip-rule="evenodd" d="M55.5236 17.5488L55.6034 17.8323L-14.5757 37.1782L-14.6562 36.8939L55.5236 17.5488Z" fill="#FF4FAC"/>
<path fill-rule="evenodd" clip-rule="evenodd" d="M55.5763 17.7363L55.6561 18.0198L-14.5237 37.3657L-14.6035 37.0821L55.5763 17.7363Z" fill="#FF4DAD"/>
<path fill-rule="evenodd" clip-rule="evenodd" d="M55.6292 17.9277L55.7098 18.2113L-14.47 37.5571L-14.5498 37.2728L55.6292 17.9277Z" fill="#FF4CAE"/>
<path fill-rule="evenodd" clip-rule="evenodd" d="M55.683 18.1152L55.7628 18.3995L-14.4163 37.7446L-14.4961 37.4611L55.683 18.1152Z" fill="#FF4BAE"/>
<path fill-rule="evenodd" clip-rule="evenodd" d="M55.7365 18.3047L55.8163 18.5882L-14.3636 37.934L-14.4434 37.6497L55.7365 18.3047Z" fill="#FF49AF"/>
<path fill-rule="evenodd" clip-rule="evenodd" d="M55.7902 18.4941L55.87 18.7785L-14.3099 38.1235L-14.3896 37.84L55.7902 18.4941Z" fill="#FF48B0"/>
<path fill-rule="evenodd" clip-rule="evenodd" d="M55.8421 18.6836L55.9219 18.9671L-14.2571 38.3129L-14.3369 38.0286L55.8421 18.6836Z" fill="#FF47B1"/>
<path fill-rule="evenodd" clip-rule="evenodd" d="M55.8957 18.873L55.9755 19.1574L-14.2044 38.5024L-14.2842 38.2189L55.8957 18.873Z" fill="#FF46B1"/>
<path fill-rule="evenodd" clip-rule="evenodd" d="M55.9494 19.0625L56.0292 19.346L-14.1507 38.6918L-14.2305 38.4083L55.9494 19.0625Z" fill="#FF45B2"/>
<path fill-rule="evenodd" clip-rule="evenodd" d="M56.0023 19.25L56.0829 19.5343L-14.097 38.8793L-14.1768 38.5958L56.0023 19.25Z" fill="#FF44B3"/>
<path fill-rule="evenodd" clip-rule="evenodd" d="M56.055 19.4395L56.1348 19.723L-14.0442 39.0688L-14.124 38.7853L56.055 19.4395Z" fill="#FF42B3"/>
<path fill-rule="evenodd" clip-rule="evenodd" d="M56.1086 19.6289L56.1884 19.9124L-13.9915 39.2582L-14.0713 38.9739L56.1086 19.6289Z" fill="#FF41B4"/>
<path fill-rule="evenodd" clip-rule="evenodd" d="M56.1623 19.8184L56.2421 20.1019L-13.9378 39.4477L-14.0176 39.1642L56.1623 19.8184Z" fill="#FF40B5"/>
<path fill-rule="evenodd" clip-rule="evenodd" d="M56.2152 20.0078L56.295 20.2913L-13.8841 39.6371L-13.9639 39.3528L56.2152 20.0078Z" fill="#FF3FB5"/>
<path fill-rule="evenodd" clip-rule="evenodd" d="M56.2687 20.1973L56.3485 20.4816L-13.8313 39.8266L-13.9111 39.5431L56.2687 20.1973Z" fill="#FF3EB6"/>
<path fill-rule="evenodd" clip-rule="evenodd" d="M56.3214 20.3867L56.4012 20.6702L-13.7786 40.0161L-13.8584 39.7317L56.3214 20.3867Z" fill="#FF3EB6"/>
<path fill-rule="evenodd" clip-rule="evenodd" d="M56.3744 20.5762L56.455 20.8597L-13.7249 40.2055L-13.8047 39.922L56.3744 20.5762Z" fill="#FF3DB7"/>
<path fill-rule="evenodd" clip-rule="evenodd" d="M56.4279 20.7656L56.5077 21.0491L-13.6714 40.395L-13.752 40.1114L56.4279 20.7656Z" fill="#FF3CB8"/>
<path fill-rule="evenodd" clip-rule="evenodd" d="M56.4816 20.9531L56.5614 21.2374L-13.6184 40.5825L-13.6982 40.2989L56.4816 20.9531Z" fill="#FF3BB8"/>
<path fill-rule="evenodd" clip-rule="evenodd" d="M56.5353 21.1426L56.6151 21.4261L-13.5647 40.7719L-13.6445 40.4876L56.5353 21.1426Z" fill="#FF3AB9"/>
<path fill-rule="evenodd" clip-rule="evenodd" d="M56.5873 21.332L56.6671 21.6163L-13.512 40.9614L-13.5918 40.6778L56.5873 21.332Z" fill="#FF3AB9"/>
<path fill-rule="evenodd" clip-rule="evenodd" d="M56.6408 21.5215L56.7206 21.805L-13.4593 41.1508L-13.5391 40.8673L56.6408 21.5215Z" fill="#FF39BA"/>
<path fill-rule="evenodd" clip-rule="evenodd" d="M56.6945 21.709L56.7743 21.9933L-13.4056 41.3383L-13.4854 41.0548L56.6945 21.709Z" fill="#FF38BB"/>
<path fill-rule="evenodd" clip-rule="evenodd" d="M56.7482 21.8984L56.828 22.182L-13.3518 41.5278L-13.4316 41.2443L56.7482 21.8984Z" fill="#FF38BB"/>
<path fill-rule="evenodd" clip-rule="evenodd" d="M56.8009 22.0898L56.8807 22.3734L-13.2983 41.7184L-13.3789 41.4349L56.8009 22.0898Z" fill="#FF37BC"/>
<path fill-rule="evenodd" clip-rule="evenodd" d="M56.8547 22.2773L56.9344 22.5609L-13.2454 41.9067L-13.3252 41.6232L56.8547 22.2773Z" fill="#FF37BC"/>
<path fill-rule="evenodd" clip-rule="evenodd" d="M56.9074 22.4668L56.9872 22.7503L-13.1927 42.0961L-13.2725 41.8118L56.9074 22.4668Z" fill="#FF36BD"/>
<path fill-rule="evenodd" clip-rule="evenodd" d="M56.9603 22.6562L57.0401 22.9398L-13.139 42.2856L-13.2188 42.0021L56.9603 22.6562Z" fill="#FF36BD"/>
<path fill-rule="evenodd" clip-rule="evenodd" d="M57.0138 22.8457L57.0936 23.1292L-13.0862 42.475L-13.166 42.1907L57.0138 22.8457Z" fill="#FF35BE"/>
<path fill-rule="evenodd" clip-rule="evenodd" d="M57.0676 23.0352L57.1473 23.3195L-13.0325 42.6645L-13.1123 42.381L57.0676 23.0352Z" fill="#FF35BE"/>
<path fill-rule="evenodd" clip-rule="evenodd" d="M57.1203 23.2227L57.2001 23.5062L-12.9798 42.852L-13.0596 42.5677L57.1203 23.2227Z" fill="#FF35BF"/>
<path fill-rule="evenodd" clip-rule="evenodd" d="M57.173 23.4121L57.2528 23.6964L-12.9262 43.0414L-13.0068 42.7579L57.173 23.4121Z" fill="#FF34BF"/>
<path fill-rule="evenodd" clip-rule="evenodd" d="M57.2267 23.6016L57.3065 23.8851L-12.8733 43.2309L-12.9531 42.9474L57.2267 23.6016Z" fill="#FF34C0"/>
<path fill-rule="evenodd" clip-rule="evenodd" d="M57.2804 23.791L57.3602 24.0753L-12.8196 43.4204L-12.8994 43.1368L57.2804 23.791Z" fill="#FF34C0"/>
<path fill-rule="evenodd" clip-rule="evenodd" d="M57.3334 23.9805L57.4139 24.264L-12.7659 43.6098L-12.8457 43.3263L57.3334 23.9805Z" fill="#FF34C1"/>
<path fill-rule="evenodd" clip-rule="evenodd" d="M57.3859 24.1699L57.4657 24.4534L-12.7142 43.7985L-12.7939 43.5149L57.3859 24.1699Z" fill="#FF34C1"/>
<path fill-rule="evenodd" clip-rule="evenodd" d="M57.4396 24.3594L57.5194 24.6429L-12.6604 43.9887L-12.7402 43.7052L57.4396 24.3594Z" fill="#FF34C1"/>
<path fill-rule="evenodd" clip-rule="evenodd" d="M57.4933 24.5469L57.5731 24.8312L-12.6067 44.177L-12.6865 43.8927L57.4933 24.5469Z" fill="#FF34C2"/>
<path fill-rule="evenodd" clip-rule="evenodd" d="M57.5462 24.7363L57.626 25.0198L-12.553 44.3657L-12.6328 44.0821L57.5462 24.7363Z" fill="#FF34C2"/>
<path fill-rule="evenodd" clip-rule="evenodd" d="M57.5998 24.9258L57.6796 25.2093L-12.5003 44.5543L-12.5801 44.2708L57.5998 24.9258Z" fill="#FF34C3"/>
<path fill-rule="evenodd" clip-rule="evenodd" d="M57.6525 25.1152L57.7323 25.3988L-12.4476 44.7446L-12.5273 44.461L57.6525 25.1152Z" fill="#FE34C3"/>
<path fill-rule="evenodd" clip-rule="evenodd" d="M57.7054 25.3047L57.786 25.5882L-12.3938 44.934L-12.4736 44.6497L57.7054 25.3047Z" fill="#FE34C4"/>
<path fill-rule="evenodd" clip-rule="evenodd" d="M57.7589 25.4941L57.8387 25.7777L-12.3411 45.1235L-12.4209 44.84L57.7589 25.4941Z" fill="#FE34C4"/>
<path fill-rule="evenodd" clip-rule="evenodd" d="M57.8127 25.6836L57.8925 25.9671L-12.2874 45.3129L-12.3672 45.0286L57.8127 25.6836Z" fill="#FD34C5"/>
<path fill-rule="evenodd" clip-rule="evenodd" d="M57.8664 25.8711L57.9462 26.1554L-12.2337 45.5004L-12.3135 45.2169L57.8664 25.8711Z" fill="#FD34C5"/>
<path fill-rule="evenodd" clip-rule="evenodd" d="M57.9183 26.0625L57.9981 26.346L-12.1809 45.6918L-12.2607 45.4075L57.9183 26.0625Z" fill="#FC34C5"/>
<path fill-rule="evenodd" clip-rule="evenodd" d="M57.9718 26.25L58.0516 26.5343L-12.1282 45.8793L-12.208 45.5958L57.9718 26.25Z" fill="#FC35C6"/>
<path fill-rule="evenodd" clip-rule="evenodd" d="M58.0256 26.4395L58.1053 26.723L-12.0745 46.0688L-12.1543 45.7853L58.0256 26.4395Z" fill="#FB35C6"/>
<path fill-rule="evenodd" clip-rule="evenodd" d="M58.0785 26.6289L58.1591 26.9132L-12.0208 46.2582L-12.1006 45.9747L58.0785 26.6289Z" fill="#FA35C7"/>
<path fill-rule="evenodd" clip-rule="evenodd" d="M58.132 26.8184L58.2118 27.1019L-11.9673 46.4477L-12.0479 46.1642L58.132 26.8184Z" fill="#FA35C7"/>
<path fill-rule="evenodd" clip-rule="evenodd" d="M58.1847 27.0078L58.2645 27.2913L-11.9153 46.6364L-11.9951 46.3528L58.1847 27.0078Z" fill="#F935C8"/>
<path fill-rule="evenodd" clip-rule="evenodd" d="M58.2384 27.1953L58.3182 27.4788L-11.8616 46.8246L-11.9414 46.5411L58.2384 27.1953Z" fill="#F835C8"/>
<path fill-rule="evenodd" clip-rule="evenodd" d="M58.2914 27.3867L58.3712 27.6702L-11.8079 47.0161L-11.8877 46.7317L58.2914 27.3867Z" fill="#F735C8"/>
<path fill-rule="evenodd" clip-rule="evenodd" d="M58.3449 27.5742L58.4247 27.8577L-11.7552 47.2036L-11.835 46.92L58.3449 27.5742Z" fill="#F635C9"/>
<path fill-rule="evenodd" clip-rule="evenodd" d="M58.3986 27.7637L58.4784 28.0472L-11.7015 47.393L-11.7812 47.1087L58.3986 27.7637Z" fill="#F535C9"/>
<path fill-rule="evenodd" clip-rule="evenodd" d="M58.4505 27.9531L58.5311 28.2374L-11.6487 47.5825L-11.7285 47.2989L58.4505 27.9531Z" fill="#F436CA"/>
<path fill-rule="evenodd" clip-rule="evenodd" d="M58.5041 28.1426L58.5839 28.4261L-11.5952 47.7719L-11.6758 47.4876L58.5041 28.1426Z" fill="#F336CA"/>
<path fill-rule="evenodd" clip-rule="evenodd" d="M58.5578 28.332L58.6376 28.6163L-11.5423 47.9614L-11.6221 47.6778L58.5578 28.332Z" fill="#F236CA"/>
<path fill-rule="evenodd" clip-rule="evenodd" d="M58.6115 28.5215L58.6913 28.805L-11.4886 48.1508L-11.5684 47.8673L58.6115 28.5215Z" fill="#F136CB"/>
<path fill-rule="evenodd" clip-rule="evenodd" d="M58.6634 28.709L58.7432 28.9933L-11.4358 48.3383L-11.5156 48.0548L58.6634 28.709Z" fill="#F036CB"/>
<path fill-rule="evenodd" clip-rule="evenodd" d="M58.717 28.8984L58.7968 29.182L-11.3831 48.5278L-11.4629 48.2435L58.717 28.8984Z" fill="#EF36CC"/>
<path fill-rule="evenodd" clip-rule="evenodd" d="M58.7707 29.0879L58.8505 29.3714L-11.3294 48.7172L-11.4092 48.4329L58.7707 29.0879Z" fill="#EE37CC"/>
<path fill-rule="evenodd" clip-rule="evenodd" d="M58.8236 29.2773L58.9034 29.5609L-11.2757 48.9067L-11.3555 48.6232L58.8236 29.2773Z" fill="#EC37CC"/>
<path fill-rule="evenodd" clip-rule="evenodd" d="M58.8773 29.4668L58.9571 29.7511L-11.222 49.0961L-11.3018 48.8126L58.8773 29.4668Z" fill="#EB37CD"/>
<path fill-rule="evenodd" clip-rule="evenodd" d="M58.9308 29.6562L59.0106 29.9398L-11.1692 49.2856L-11.249 49.0021L58.9308 29.6562Z" fill="#EA37CD"/>
<path fill-rule="evenodd" clip-rule="evenodd" d="M58.9836 29.8457L59.0634 30.1292L-11.1165 49.475L-11.1963 49.1907L58.9836 29.8457Z" fill="#E837CE"/>
<path fill-rule="evenodd" clip-rule="evenodd" d="M59.0365 30.0352L59.1163 30.3187L-11.0628 49.6645L-11.1426 49.381L59.0365 30.0352Z" fill="#E738CE"/>
<path fill-rule="evenodd" clip-rule="evenodd" d="M59.09 30.2227L59.1698 30.5062L-11.0101 49.852L-11.0898 49.5677L59.09 30.2227Z" fill="#E638CE"/>
<path fill-rule="evenodd" clip-rule="evenodd" d="M59.1437 30.4121L59.2235 30.6964L-10.9563 50.0414L-11.0361 49.7579L59.1437 30.4121Z" fill="#E438CF"/>
<path fill-rule="evenodd" clip-rule="evenodd" d="M59.1957 30.6016L59.2755 30.8851L-10.9036 50.2309L-10.9834 49.9466L59.1957 30.6016Z" fill="#E338CF"/>
<path fill-rule="evenodd" clip-rule="evenodd" d="M59.2494 30.791L59.3292 31.0753L-10.8499 50.4204L-10.9297 50.1368L59.2494 30.791Z" fill="#E138D0"/>
<path fill-rule="evenodd" clip-rule="evenodd" d="M59.3029 30.9805L59.3827 31.264L-10.7972 50.6098L-10.877 50.3255L59.3029 30.9805Z" fill="#E039D0"/>
<path fill-rule="evenodd" clip-rule="evenodd" d="M59.3558 31.168L59.4364 31.4523L-10.7434 50.7973L-10.8232 50.5138L59.3558 31.168Z" fill="#DE39D0"/>
<path fill-rule="evenodd" clip-rule="evenodd" d="M59.4095 31.3574L59.4893 31.6409L-10.6897 50.9868L-10.7695 50.7032L59.4095 31.3574Z" fill="#DD39D1"/>
<path fill-rule="evenodd" clip-rule="evenodd" d="M59.4631 31.5469L59.5428 31.8312L-10.637 51.1762L-10.7168 50.8927L59.4631 31.5469Z" fill="#DB39D1"/>
<path fill-rule="evenodd" clip-rule="evenodd" d="M59.5158 31.7363L59.5956 32.0199L-10.5843 51.3657L-10.6641 51.0814L59.5158 31.7363Z" fill="#DA3AD1"/>
<path fill-rule="evenodd" clip-rule="evenodd" d="M59.5687 31.9258L59.6485 32.2093L-10.5306 51.5551L-10.6104 51.2708L59.5687 31.9258Z" fill="#D83AD2"/>
<path fill-rule="evenodd" clip-rule="evenodd" d="M59.6222 32.1152L59.702 32.3988L-10.477 51.7446L-10.5576 51.461L59.6222 32.1152Z" fill="#D63AD2"/>
<path fill-rule="evenodd" clip-rule="evenodd" d="M59.6759 32.3047L59.7557 32.589L-10.4241 51.934L-10.5039 51.6505L59.6759 32.3047Z" fill="#D53AD2"/>
<path fill-rule="evenodd" clip-rule="evenodd" d="M59.7279 32.4941L59.8085 32.7785L-10.3714 52.1235L-10.4512 51.84L59.7279 32.4941Z" fill="#D33BD3"/>
<path fill-rule="evenodd" clip-rule="evenodd" d="M59.7816 32.6816L59.8614 32.9652L-10.3177 52.311L-10.3975 52.0267L59.7816 32.6816Z" fill="#D13BD3"/>
<path fill-rule="evenodd" clip-rule="evenodd" d="M59.8351 32.8711L59.9149 33.1546L-10.2649 52.5004L-10.3447 52.2169L59.8351 32.8711Z" fill="#D03BD3"/>
<path fill-rule="evenodd" clip-rule="evenodd" d="M59.8888 33.0605L59.9686 33.3441L-10.2112 52.6899L-10.291 52.4056L59.8888 33.0605Z" fill="#CE3BD4"/>
<path fill-rule="evenodd" clip-rule="evenodd" d="M59.9417 33.25L60.0215 33.5343L-10.1575 52.8793L-10.2373 52.5958L59.9417 33.25Z" fill="#CC3CD4"/>
<path fill-rule="evenodd" clip-rule="evenodd" d="M59.9943 33.4395L60.0741 33.723L-10.105 53.0688L-10.1855 52.7845L59.9943 33.4395Z" fill="#CA3CD4"/>
<path fill-rule="evenodd" clip-rule="evenodd" d="M60.048 33.6289L60.1278 33.9132L-10.052 53.2582L-10.1318 52.9747L60.048 33.6289Z" fill="#C93CD5"/>
<path fill-rule="evenodd" clip-rule="evenodd" d="M60.1009 33.8184L60.1807 34.1019L-9.99833 53.4477L-10.0781 53.1634L60.1009 33.8184Z" fill="#C73DD5"/>
<path fill-rule="evenodd" clip-rule="evenodd" d="M60.1546 34.0059L60.2344 34.2902L-9.94462 53.6352L-10.0244 53.3517L60.1546 34.0059Z" fill="#C53DD5"/>
<path fill-rule="evenodd" clip-rule="evenodd" d="M60.2082 34.1953L60.288 34.4788L-9.89189 53.8246L-9.97168 53.5411L60.2082 34.1953Z" fill="#C33DD6"/>
<path fill-rule="evenodd" clip-rule="evenodd" d="M60.2609 34.3848L60.3407 34.6691L-9.83915 54.0141L-9.91895 53.7306L60.2609 34.3848Z" fill="#C13DD6"/>
<path fill-rule="evenodd" clip-rule="evenodd" d="M60.3138 34.5742L60.3936 34.8577L-9.78544 54.2036L-9.86523 53.92L60.3138 34.5742Z" fill="#C03ED6"/>
<path fill-rule="evenodd" clip-rule="evenodd" d="M60.3673 34.7637L60.4471 35.0472L-9.73271 54.393L-9.8125 54.1087L60.3673 34.7637Z" fill="#BE3ED7"/>
<path fill-rule="evenodd" clip-rule="evenodd" d="M60.4211 34.9531L60.5009 35.2366L-9.679 54.5825L-9.75879 54.2989L60.4211 34.9531Z" fill="#BC3ED7"/>
<path fill-rule="evenodd" clip-rule="evenodd" d="M60.474 35.1406L60.5538 35.4249L-9.62529 54.77L-9.70508 54.4864L60.474 35.1406Z" fill="#BA3ED7"/>
<path fill-rule="evenodd" clip-rule="evenodd" d="M60.5267 35.3301L60.6065 35.6144L-9.57255 54.9594L-9.65234 54.6759L60.5267 35.3301Z" fill="#B83FD8"/>
<path fill-rule="evenodd" clip-rule="evenodd" d="M60.5802 35.5215L60.66 35.805L-9.51982 55.1508L-9.59961 54.8665L60.5802 35.5215Z" fill="#B73FD8"/>
<path fill-rule="evenodd" clip-rule="evenodd" d="M60.6332 35.709L60.7137 35.9925L-9.46611 55.3383L-9.5459 55.0548L60.6332 35.709Z" fill="#B53FD8"/>
<path fill-rule="evenodd" clip-rule="evenodd" d="M60.6869 35.8984L60.7667 36.182L-9.4124 55.5278L-9.49219 55.2435L60.6869 35.8984Z" fill="#B340D8"/>
<path fill-rule="evenodd" clip-rule="evenodd" d="M60.7404 36.0879L60.8202 36.3722L-9.35966 55.7172L-9.43945 55.4337L60.7404 36.0879Z" fill="#B140D9"/>
<path fill-rule="evenodd" clip-rule="evenodd" d="M60.7931 36.2773L60.8729 36.5609L-9.30693 55.9067L-9.38672 55.6224L60.7931 36.2773Z" fill="#AF40D9"/>
<path fill-rule="evenodd" clip-rule="evenodd" d="M60.846 36.4648L60.9258 36.7492L-9.25322 56.0942L-9.33301 55.8107L60.846 36.4648Z" fill="#AE40D9"/>
<path fill-rule="evenodd" clip-rule="evenodd" d="M60.8996 36.6543L60.9794 36.9378L-9.19968 56.2836L-9.28027 56.0001L60.8996 36.6543Z" fill="#AC41D9"/>
<path fill-rule="evenodd" clip-rule="evenodd" d="M60.9533 36.8438L61.0331 37.1281L-9.14677 56.4731L-9.22656 56.1896L60.9533 36.8438Z" fill="#AA41DA"/>
<path fill-rule="evenodd" clip-rule="evenodd" d="M61.0062 37.0332L61.0868 37.3167L-9.09306 56.6625L-9.17285 56.379L61.0062 37.0332Z" fill="#A841DA"/>
<path fill-rule="evenodd" clip-rule="evenodd" d="M61.0589 37.2227L61.1387 37.5062L-9.04032 56.8512L-9.12012 56.5677L61.0589 37.2227Z" fill="#A641DA"/>
<path fill-rule="evenodd" clip-rule="evenodd" d="M61.1125 37.4121L61.1923 37.6956L-8.98759 57.0414L-9.06738 56.7579L61.1125 37.4121Z" fill="#A542DA"/>
<path fill-rule="evenodd" clip-rule="evenodd" d="M61.1662 37.6016L61.246 37.8851L-8.93388 57.2309L-9.01367 56.9466L61.1662 37.6016Z" fill="#A342DB"/>
<path fill-rule="evenodd" clip-rule="evenodd" d="M61.2191 37.791L61.2989 38.0745L-8.88017 57.4204L-8.95996 57.1368L61.2191 37.791Z" fill="#A142DB"/>
<path fill-rule="evenodd" clip-rule="evenodd" d="M61.2726 37.9805L61.3524 38.264L-8.82664 57.609L-8.90723 57.3255L61.2726 37.9805Z" fill="#9F43DB"/>
<path fill-rule="evenodd" clip-rule="evenodd" d="M61.3254 38.168L61.4052 38.4523L-8.7747 57.7973L-8.85449 57.5138L61.3254 38.168Z" fill="#9E43DB"/>
<path fill-rule="evenodd" clip-rule="evenodd" d="M61.3783 38.3574L61.4589 38.6409L-8.72099 57.9868L-8.80078 57.7024L61.3783 38.3574Z" fill="#9C43DC"/>
<path fill-rule="evenodd" clip-rule="evenodd" d="M61.432 38.5469L61.5118 38.8304L-8.66728 58.1762L-8.74707 57.8927L61.432 38.5469Z" fill="#9A43DC"/>
<path fill-rule="evenodd" clip-rule="evenodd" d="M61.4855 38.7363L61.5653 39.0198L-8.61454 58.3657L-8.69434 58.0821L61.4855 38.7363Z" fill="#9944DC"/>
<path fill-rule="evenodd" clip-rule="evenodd" d="M61.5392 38.9258L61.619 39.2101L-8.56083 58.5551L-8.64062 58.2716L61.5392 38.9258Z" fill="#9744DC"/>
<path fill-rule="evenodd" clip-rule="evenodd" d="M61.5912 39.1152L61.671 39.3988L-8.5081 58.7446L-8.58789 58.4603L61.5912 39.1152Z" fill="#9544DD"/>
<path fill-rule="evenodd" clip-rule="evenodd" d="M61.6447 39.3047L61.7245 39.5882L-8.45536 58.9332L-8.53516 58.6497L61.6447 39.3047Z" fill="#9444DD"/>
<path fill-rule="evenodd" clip-rule="evenodd" d="M61.6984 39.4922L61.7782 39.7757L-8.40165 59.1215L-8.48145 58.838L61.6984 39.4922Z" fill="#9245DD"/>
<path fill-rule="evenodd" clip-rule="evenodd" d="M61.7521 39.6816L61.8319 39.966L-8.34794 59.311L-8.42773 59.0275L61.7521 39.6816Z" fill="#9045DD"/>
<path fill-rule="evenodd" clip-rule="evenodd" d="M61.8041 39.8711L61.8839 40.1546L-8.29521 59.5004L-8.375 59.2169L61.8041 39.8711Z" fill="#8F45DD"/>
<path fill-rule="evenodd" clip-rule="evenodd" d="M61.8576 40.0605L61.9374 40.3441L-8.24247 59.6891L-8.32227 59.4056L61.8576 40.0605Z" fill="#8D45DE"/>
<path fill-rule="evenodd" clip-rule="evenodd" d="M61.9113 40.25L61.9911 40.5335L-8.18876 59.8793L-8.26855 59.5958L61.9113 40.25Z" fill="#8C45DE"/>
<path fill-rule="evenodd" clip-rule="evenodd" d="M61.9642 40.4395L62.044 40.723L-8.13505 60.0688L-8.21484 59.7845L61.9642 40.4395Z" fill="#8A46DE"/>
<path fill-rule="evenodd" clip-rule="evenodd" d="M62.0177 40.627L62.0975 40.9105L-8.08232 60.2563L-8.16211 59.9728L62.0177 40.627Z" fill="#8946DE"/>
<path fill-rule="evenodd" clip-rule="evenodd" d="M62.0705 40.8164L62.1503 41.0999L-8.02958 60.4457L-8.10938 60.1614L62.0705 40.8164Z" fill="#8746DE"/>
<path fill-rule="evenodd" clip-rule="evenodd" d="M62.1242 41.0059L62.204 41.2902L-7.97587 60.6352L-8.05566 60.3517L62.1242 41.0059Z" fill="#8646DE"/>
<path fill-rule="evenodd" clip-rule="evenodd" d="M62.1769 41.1953L62.2567 41.4788L-7.92234 60.8246L-8.00293 60.5403L62.1769 41.1953Z" fill="#8547DF"/>
<path fill-rule="evenodd" clip-rule="evenodd" d="M62.2306 41.3848L62.3104 41.6683L-7.86943 61.0141L-7.94922 60.7306L62.2306 41.3848Z" fill="#8347DF"/>
<path fill-rule="evenodd" clip-rule="evenodd" d="M62.2843 41.5742L62.3641 41.8577L-7.81572 61.2036L-7.89551 60.92L62.2843 41.5742Z" fill="#8247DF"/>
<path fill-rule="evenodd" clip-rule="evenodd" d="M62.3363 41.7637L62.4169 42.048L-7.76298 61.393L-7.84277 61.1095L62.3363 41.7637Z" fill="#8147DF"/>
<path fill-rule="evenodd" clip-rule="evenodd" d="M62.3898 41.9512L62.4696 42.2347L-7.71025 61.5805L-7.79004 61.297L62.3898 41.9512Z" fill="#8047DF"/>
<path fill-rule="evenodd" clip-rule="evenodd" d="M62.4435 42.1406L62.5233 42.4241L-7.65654 61.7692L-7.73633 61.4857L62.4435 42.1406Z" fill="#7E48DF"/>
<path fill-rule="evenodd" clip-rule="evenodd" d="M62.4972 42.3301L62.577 42.6136L-7.60282 61.9594L-7.68262 61.6759L62.4972 42.3301Z" fill="#7D48DF"/>
<path fill-rule="evenodd" clip-rule="evenodd" d="M62.5501 42.5195L62.6299 42.8038L-7.54911 62.1489L-7.62891 61.8653L62.5501 42.5195Z" fill="#7C48E0"/>
<path fill-rule="evenodd" clip-rule="evenodd" d="M62.6037 42.709L62.6835 42.9925L-7.49638 62.3383L-7.57617 62.0548L62.6037 42.709Z" fill="#7B48E0"/>
<path fill-rule="evenodd" clip-rule="evenodd" d="M62.6564 42.8984L62.7362 43.182L-7.44365 62.5278L-7.52344 62.2435L62.6564 42.8984Z" fill="#7A48E0"/>
<path fill-rule="evenodd" clip-rule="evenodd" d="M62.7093 43.0879L62.7899 43.3714L-7.38993 62.7172L-7.46973 62.4337L62.7093 43.0879Z" fill="#7948E0"/>
<path fill-rule="evenodd" clip-rule="evenodd" d="M62.7629 43.2773L62.8427 43.5609L-7.3372 62.9067L-7.41699 62.6224L62.7629 43.2773Z" fill="#7849E0"/>
<path fill-rule="evenodd" clip-rule="evenodd" d="M62.8166 43.4648L62.8964 43.7484L-7.28349 63.0942L-7.36328 62.8107L62.8166 43.4648Z" fill="#7749E0"/>
<path fill-rule="evenodd" clip-rule="evenodd" d="M62.8693 43.6543L62.9491 43.9378L-7.23075 63.2836L-7.31055 62.9993L62.8693 43.6543Z" fill="#7649E0"/>
<path fill-rule="evenodd" clip-rule="evenodd" d="M62.9222 43.8438L63.002 44.1281L-7.17704 63.4731L-7.25684 63.1896L62.9222 43.8438Z" fill="#7549E0"/>
<path fill-rule="evenodd" clip-rule="evenodd" d="M62.9757 44.0332L63.0555 44.3167L-7.12431 63.6625L-7.2041 63.3782L62.9757 44.0332Z" fill="#7449E0"/>
<path fill-rule="evenodd" clip-rule="evenodd" d="M63.0295 44.2207L63.1093 44.505L-7.0706 63.85L-7.15039 63.5665L63.0295 44.2207Z" fill="#7349E0"/>
<path fill-rule="evenodd" clip-rule="evenodd" d="M63.0832 44.4121L63.163 44.6956L-7.01689 64.0415L-7.09668 63.7579L63.0832 44.4121Z" fill="#7349E1"/>
<path fill-rule="evenodd" clip-rule="evenodd" d="M63.1349 44.5996L63.2147 44.8839L-6.96433 64.2289L-7.04492 63.9454L63.1349 44.5996Z" fill="#7249E1"/>
<path fill-rule="evenodd" clip-rule="evenodd" d="M63.1886 44.7891L63.2684 45.0726L-6.91142 64.4184L-6.99121 64.1349L63.1886 44.7891Z" fill="#7149E1"/>
<path fill-rule="evenodd" clip-rule="evenodd" d="M63.2424 44.9805L63.3221 45.264L-6.85771 64.6098L-6.9375 64.3255L63.2424 44.9805Z" fill="#714AE1"/>
<path fill-rule="evenodd" clip-rule="evenodd" d="M63.2953 45.168L63.3751 45.4515L-6.804 64.7973L-6.88379 64.5138L63.2953 45.168Z" fill="#704AE1"/>
<path fill-rule="evenodd" clip-rule="evenodd" d="M63.3488 45.3574L63.4286 45.6409L-6.75126 64.9868L-6.83105 64.7024L63.3488 45.3574Z" fill="#704AE1"/>
<path fill-rule="evenodd" clip-rule="evenodd" d="M63.4015 45.5469L63.4813 45.8312L-6.69853 65.1762L-6.77832 64.8927L63.4015 45.5469Z" fill="#6F4AE1"/>
<path fill-rule="evenodd" clip-rule="evenodd" d="M63.4552 45.7363L63.535 46.0199L-6.64482 65.3657L-6.72461 65.0814L63.4552 45.7363Z" fill="#6F4AE1"/>
<path fill-rule="evenodd" clip-rule="evenodd" d="M63.508 45.9238L63.5878 46.2073L-6.59128 65.5532L-6.67188 65.2696L63.508 45.9238Z" fill="#6F4AE1"/>
<path fill-rule="evenodd" clip-rule="evenodd" d="M63.5617 46.1133L63.6415 46.3968L-6.53837 65.7426L-6.61816 65.4583L63.5617 46.1133Z" fill="#6E4AE1"/>
<path fill-rule="evenodd" clip-rule="evenodd" d="M63.6154 46.3027L63.6952 46.587L-6.48466 65.9321L-6.56445 65.6486L63.6154 46.3027Z" fill="#6E4AE1"/>
<path fill-rule="evenodd" clip-rule="evenodd" d="M63.6673 46.4922L63.7471 46.7757L-6.43193 66.1215L-6.51172 65.838L63.6673 46.4922Z" fill="#6E4AE1"/>
<path fill-rule="evenodd" clip-rule="evenodd" d="M63.7209 46.6816L63.8007 46.966L-6.37919 66.311L-6.45898 66.0275L63.7209 46.6816Z" fill="#6E4AE1"/>
<path fill-rule="evenodd" clip-rule="evenodd" d="M63.7746 46.8711L67.4283 59.857L-2.75078 79.2028L-6.40527 66.2161L63.7746 46.8711Z" fill="#6E4AE1"/>
</g>
</g>
</svg>
