<svg width="47" height="48" viewBox="0 0 47 48" fill="none" xmlns="http://www.w3.org/2000/svg">
<path d="M13.7674 0.167851C11.267 0.288331 9.55947 0.695853 8.06673 1.29489C6.52182 1.90978 5.21239 2.7349 3.90954 4.07026C2.60668 5.40563 1.80439 6.74387 1.20654 8.32404C0.627964 9.85188 0.23598 11.5972 0.125529 14.1522C0.0150783 16.7073 -0.00936199 17.5286 0.00285813 24.046C0.0150783 30.5635 0.0432786 31.3804 0.16454 33.9408C0.283921 36.4939 0.681545 38.2373 1.26811 39.7622C1.87113 41.34 2.67813 42.6768 3.98615 44.0078C5.29417 45.3389 6.60361 46.1563 8.15462 46.7679C9.64924 47.3578 11.3586 47.76 13.86 47.8719C16.3614 47.9837 17.1665 48.0096 23.5463 47.9971C29.9262 47.9847 30.7294 47.9559 33.236 47.8344C35.7425 47.713 37.4406 47.304 38.9343 46.7079C40.4792 46.0906 41.7891 45.2678 43.0915 43.9315C44.3939 42.5952 45.1957 41.256 45.7931 39.6749C46.3721 38.1485 46.7655 36.4027 46.8741 33.85C46.9836 31.2883 47.0094 30.4704 46.9972 23.9539C46.985 17.4374 46.9563 16.6204 46.8374 14.061C46.7185 11.5017 46.3204 9.76356 45.7343 8.23764C45.1304 6.65987 44.3243 5.32403 43.0168 3.99202C41.7092 2.66002 40.3969 1.84162 38.8492 1.23297C37.3537 0.642092 35.6452 0.239371 33.1438 0.128971C30.6425 0.0185703 29.8374 -0.00974976 23.4552 0.00273028C17.073 0.0152103 16.274 0.0430504 13.7674 0.167851ZM14.0419 43.5542C11.7506 43.4525 10.5065 43.0637 9.67744 42.7382C8.5795 42.3062 7.79742 41.784 6.97115 40.9483C6.14488 40.1126 5.63728 39.311 5.20863 38.1921C4.88668 37.3454 4.49892 36.0763 4.39176 33.7363C4.2752 31.2072 4.25076 30.4478 4.23713 24.0403C4.2235 17.6327 4.24747 16.8743 4.35604 14.3442C4.4538 12.0061 4.83686 10.7341 5.15505 9.88788C5.57805 8.76516 6.08754 7.96788 6.9077 7.12451C7.72786 6.28115 8.51041 5.76179 9.60694 5.32403C10.4351 4.99379 11.6778 4.60115 13.9681 4.48979C16.4464 4.36979 17.1891 4.34579 23.4622 4.33187C29.7354 4.31795 30.4798 4.34194 32.9591 4.45331C35.2485 4.55507 36.4945 4.94243 37.3222 5.26931C38.4206 5.70131 39.2022 6.22019 40.028 7.05924C40.8538 7.89828 41.3628 8.6946 41.7915 9.81684C42.1153 10.6602 42.4997 11.9289 42.6078 14.2693C42.7258 16.8004 42.7526 17.5593 42.7639 23.9654C42.7752 30.3715 42.7531 31.1323 42.6445 33.6614C42.5444 36.0014 42.1646 37.2725 41.8455 38.1201C41.4225 39.2409 40.9125 40.0401 40.0919 40.883C39.2713 41.7259 38.4897 42.2453 37.3927 42.683C36.5655 43.0128 35.3214 43.4064 33.0329 43.5178C30.5546 43.6368 29.812 43.6618 23.5365 43.6757C17.261 43.6896 16.5202 43.6637 14.0419 43.5542ZM33.1998 11.1728C33.2007 11.7425 33.367 12.2991 33.6777 12.7722C33.9884 13.2453 34.4295 13.6137 34.9452 13.8307C35.4609 14.0478 36.028 14.1038 36.5749 13.9917C37.1218 13.8796 37.6238 13.6043 38.0175 13.2008C38.4112 12.7972 38.6789 12.2835 38.7867 11.7246C38.8945 11.1657 38.8375 10.5867 38.6231 10.0608C38.4086 9.53494 38.0463 9.08583 37.5819 8.77028C37.1175 8.45472 36.5719 8.2869 36.0142 8.28804C35.2664 8.28957 34.5498 8.59433 34.0221 9.13531C33.4943 9.67628 33.1985 10.4092 33.1998 11.1728ZM11.4338 24.0239C11.447 30.8304 16.8596 36.3355 23.5228 36.3225C30.1861 36.3096 35.5803 30.7824 35.5676 23.9759C35.555 17.1695 30.141 11.6629 23.4768 11.6764C16.8126 11.6898 11.4212 17.2185 11.4338 24.0239ZM15.6667 24.0153C15.6636 22.433 16.1201 20.8853 16.9783 19.568C17.8365 18.2506 19.0579 17.2227 20.4882 16.6143C21.9184 16.0059 23.4931 15.8443 25.0133 16.1499C26.5335 16.4555 27.9307 17.2147 29.0285 18.3313C30.1262 19.4479 30.875 20.8719 31.1803 22.4232C31.4855 23.9744 31.3335 25.5833 30.7435 27.0464C30.1534 28.5094 29.1518 29.7609 27.8653 30.6426C26.5787 31.5242 25.0651 31.9965 23.5158 31.9996C22.487 32.0018 21.4679 31.7971 20.5167 31.397C19.5654 30.9969 18.7007 30.4094 17.9718 29.6679C17.2429 28.9265 16.6642 28.0457 16.2687 27.0758C15.8732 26.1059 15.6686 25.0659 15.6667 24.0153Z" fill="white"/>
</svg>
