<svg width="81" height="108" viewBox="0 0 81 108" fill="none" xmlns="http://www.w3.org/2000/svg">
<rect x="13" y="0.5" width="55" height="55" rx="27.5" stroke="#7E56DA" stroke-dasharray="2 2"/>
<mask id="mask0_11779_5945" style="mask-type:alpha" maskUnits="userSpaceOnUse" x="28" y="16" width="25" height="24">
<rect x="28.5" y="16" width="24" height="24" fill="#D9D9D9"/>
</mask>
<g mask="url(#mask0_11779_5945)">
<path d="M39.5 29H33.5V27H39.5V21H41.5V27H47.5V29H41.5V35H39.5V29Z" fill="#7E56DA"/>
</g>
<path d="M23.9579 72.432V84H22.3899V72.432H23.9579ZM27.9196 84H26.4156V76.176H27.7756L27.9356 77.376C28.4316 76.48 29.4236 75.952 30.5276 75.952C32.5916 75.952 33.5356 77.216 33.5356 79.216V84H32.0316V79.552C32.0316 77.968 31.2956 77.328 30.1436 77.328C28.7356 77.328 27.9196 78.336 27.9196 79.856V84ZM37.6704 84L34.5184 76.176H36.1184L37.8304 80.544C38.1024 81.28 38.3264 81.936 38.4544 82.416C38.5824 81.904 38.8384 81.232 39.1104 80.544L40.8544 76.176H42.4224L39.1584 84H37.6704ZM44.3711 74.32C43.8271 74.32 43.3791 73.872 43.3791 73.328C43.3791 72.768 43.8271 72.336 44.3711 72.336C44.9151 72.336 45.3631 72.768 45.3631 73.328C45.3631 73.872 44.9151 74.32 44.3711 74.32ZM43.6351 84V76.176H45.1391V84H43.6351ZM49.5466 84H48.0426V77.44H46.5066V76.176H48.0426V73.728H49.5466V76.176H51.0826V77.44H49.5466V84ZM55.7462 84.192C53.4422 84.192 51.8582 82.528 51.8582 80.096C51.8582 77.648 53.4102 75.952 55.6822 75.952C57.9062 75.952 59.3622 77.488 59.3622 79.808V80.368L53.3142 80.384C53.4262 82.032 54.2902 82.944 55.7782 82.944C56.9462 82.944 57.7142 82.464 57.9702 81.568H59.3782C58.9942 83.248 57.6822 84.192 55.7462 84.192ZM55.6822 77.216C54.3702 77.216 53.5382 78 53.3462 79.376H57.8582C57.8582 78.08 57.0102 77.216 55.6822 77.216ZM7.04075 104.176C3.74475 104.176 1.55275 101.808 1.55275 98.224C1.55275 94.656 3.80875 92.24 7.12075 92.24C9.72875 92.24 11.7288 93.792 12.1608 96.16H10.4808C10.0488 94.656 8.75275 93.744 7.07275 93.744C4.73675 93.744 3.20075 95.504 3.20075 98.208C3.20075 100.912 4.73675 102.672 7.07275 102.672C8.76875 102.672 10.1128 101.76 10.5448 100.336H12.2088C11.7128 102.64 9.64875 104.176 7.04075 104.176ZM15.3173 103.984H13.8133V92.224H15.3173V97.376C15.8133 96.528 16.7573 95.952 17.9733 95.952C19.9733 95.952 20.9333 97.216 20.9333 99.216V104H19.4293V99.552C19.4293 97.968 18.6773 97.328 17.5573 97.328C16.1013 97.328 15.3173 98.384 15.3173 99.728V103.984ZM25.3204 104.192C23.6404 104.192 22.6484 103.248 22.6484 101.824C22.6484 100.384 23.7204 99.488 25.5604 99.344L28.0244 99.152V98.928C28.0244 97.616 27.2404 97.152 26.1844 97.152C24.9204 97.152 24.2004 97.712 24.2004 98.656H22.8884C22.8884 97.024 24.2324 95.952 26.2484 95.952C28.1844 95.952 29.4964 96.976 29.4964 99.088V104H28.2164L28.0564 102.736C27.6564 103.632 26.5844 104.192 25.3204 104.192ZM25.7524 103.024C27.1764 103.024 28.0404 102.096 28.0404 100.624V100.208L26.0404 100.368C24.7124 100.496 24.1684 101.008 24.1684 101.776C24.1684 102.608 24.7764 103.024 25.7524 103.024ZM33.1313 104H31.6273V92.224H33.1313V104ZM36.8973 104H35.3933V92.224H36.8973V104ZM42.5033 104.192C40.1993 104.192 38.6153 102.528 38.6153 100.096C38.6153 97.648 40.1673 95.952 42.4393 95.952C44.6633 95.952 46.1193 97.488 46.1193 99.808V100.368L40.0713 100.384C40.1833 102.032 41.0473 102.944 42.5353 102.944C43.7033 102.944 44.4713 102.464 44.7273 101.568H46.1353C45.7513 103.248 44.4393 104.192 42.5033 104.192ZM42.4393 97.216C41.1273 97.216 40.2953 98 40.1033 99.376H44.6153C44.6153 98.08 43.7673 97.216 42.4393 97.216ZM49.3191 104H47.8151V96.176H49.1751L49.3351 97.376C49.8311 96.48 50.8231 95.952 51.9271 95.952C53.9911 95.952 54.9351 97.216 54.9351 99.216V104H53.4311V99.552C53.4311 97.968 52.6951 97.328 51.5431 97.328C50.1351 97.328 49.3191 98.336 49.3191 99.856V104ZM56.5383 99.888C56.5383 97.68 57.9623 95.952 60.2343 95.952C61.4983 95.952 62.4743 96.528 62.9703 97.504L63.0823 96.176H64.4263V103.68C64.4263 106.144 62.9063 107.712 60.5063 107.712C58.3783 107.712 56.9223 106.512 56.6343 104.528H58.1383C58.3303 105.68 59.1943 106.352 60.5063 106.352C61.9783 106.352 62.9383 105.392 62.9383 103.904V102.336C62.4263 103.248 61.4023 103.792 60.1703 103.792C57.9463 103.792 56.5383 102.08 56.5383 99.888ZM58.0423 99.856C58.0423 101.328 58.9543 102.48 60.4263 102.48C61.9463 102.48 62.8743 101.392 62.8743 99.856C62.8743 98.352 61.9783 97.264 60.4423 97.264C58.9383 97.264 58.0423 98.416 58.0423 99.856ZM69.9887 104.192C67.6847 104.192 66.1007 102.528 66.1007 100.096C66.1007 97.648 67.6527 95.952 69.9247 95.952C72.1488 95.952 73.6047 97.488 73.6047 99.808V100.368L67.5567 100.384C67.6687 102.032 68.5327 102.944 70.0208 102.944C71.1887 102.944 71.9567 102.464 72.2127 101.568H73.6208C73.2368 103.248 71.9247 104.192 69.9887 104.192ZM69.9247 97.216C68.6127 97.216 67.7807 98 67.5887 99.376H72.1007C72.1007 98.08 71.2527 97.216 69.9247 97.216ZM79.7806 96.112V97.488H79.1086C77.6846 97.488 76.8046 98.352 76.8046 99.856V104H75.3006V96.192H76.7086L76.8046 97.376C77.1246 96.56 77.9086 96.016 78.9806 96.016C79.2526 96.016 79.4766 96.048 79.7806 96.112Z" fill="#7E56DA"/>
</svg>
