<svg width="241" height="62" viewBox="0 0 241 62" fill="none" xmlns="http://www.w3.org/2000/svg">
<path d="M2.912 15.432V27H1.344V15.432H2.912ZM6.87362 27H5.36962V19.176H6.72962L6.88962 20.376C7.38562 19.48 8.37762 18.952 9.48163 18.952C11.5456 18.952 12.4896 20.216 12.4896 22.216V27H10.9856V22.552C10.9856 20.968 10.2496 20.328 9.09763 20.328C7.68963 20.328 6.87362 21.336 6.87362 22.856V27ZM16.6245 27L13.4725 19.176H15.0725L16.7845 23.544C17.0565 24.28 17.2805 24.936 17.4085 25.416C17.5365 24.904 17.7925 24.232 18.0645 23.544L19.8085 19.176H21.3765L18.1125 27H16.6245ZM23.3251 17.32C22.7811 17.32 22.3331 16.872 22.3331 16.328C22.3331 15.768 22.7811 15.336 23.3251 15.336C23.8691 15.336 24.3171 15.768 24.3171 16.328C24.3171 16.872 23.8691 17.32 23.3251 17.32ZM22.5891 27V19.176H24.0931V27H22.5891ZM28.5006 27H26.9966V20.44H25.4606V19.176H26.9966V16.728H28.5006V19.176H30.0366V20.44H28.5006V27ZM34.7003 27.192C32.3963 27.192 30.8122 25.528 30.8122 23.096C30.8122 20.648 32.3642 18.952 34.6363 18.952C36.8603 18.952 38.3162 20.488 38.3162 22.808V23.368L32.2682 23.384C32.3802 25.032 33.2443 25.944 34.7323 25.944C35.9002 25.944 36.6683 25.464 36.9243 24.568H38.3323C37.9483 26.248 36.6363 27.192 34.7003 27.192ZM34.6363 20.216C33.3242 20.216 32.4922 21 32.3003 22.376H36.8123C36.8123 21.08 35.9643 20.216 34.6363 20.216ZM2.88 47H1.344V35.432H2.88L6.864 45.16L10.848 35.432H12.416V47H10.88V42.424C10.88 40.264 10.896 39.48 10.976 38.664L7.6 47H6.128L2.768 38.696C2.848 39.256 2.88 40.44 2.88 42.056V47ZM14.3576 43.08C14.3576 40.664 16.0856 38.968 18.4376 38.968C20.7736 38.968 22.5016 40.664 22.5016 43.08C22.5016 45.496 20.7736 47.192 18.4376 47.192C16.0856 47.192 14.3576 45.496 14.3576 43.08ZM15.8776 43.08C15.8776 44.712 16.9176 45.848 18.4376 45.848C19.9416 45.848 20.9976 44.712 20.9976 43.08C20.9976 41.448 19.9416 40.312 18.4376 40.312C16.9176 40.312 15.8776 41.448 15.8776 43.08ZM27.3185 47.192C25.0465 47.192 23.6705 45.496 23.6705 43.112C23.6705 40.712 25.0625 38.952 27.3825 38.952C28.5825 38.952 29.5905 39.48 30.1185 40.44V35.224H31.6065V47H30.2625L30.1345 45.576C29.6225 46.648 28.5665 47.192 27.3185 47.192ZM27.6225 45.832C29.1585 45.832 30.1025 44.696 30.1025 43.064C30.1025 41.464 29.1585 40.312 27.6225 40.312C26.0865 40.312 25.1905 41.464 25.1905 43.064C25.1905 44.68 26.0865 45.832 27.6225 45.832ZM37.1683 47.192C34.8643 47.192 33.2803 45.528 33.2803 43.096C33.2803 40.648 34.8323 38.952 37.1043 38.952C39.3283 38.952 40.7843 40.488 40.7843 42.808V43.368L34.7363 43.384C34.8483 45.032 35.7123 45.944 37.2003 45.944C38.3683 45.944 39.1363 45.464 39.3923 44.568H40.8003C40.4163 46.248 39.1043 47.192 37.1683 47.192ZM37.1043 40.216C35.7923 40.216 34.9603 41 34.7683 42.376H39.2803C39.2803 41.08 38.4323 40.216 37.1043 40.216ZM46.9601 39.112V40.488H46.2881C44.8641 40.488 43.9841 41.352 43.9841 42.856V47H42.4801V39.192H43.8881L43.9841 40.376C44.3041 39.56 45.0881 39.016 46.1601 39.016C46.4321 39.016 46.6561 39.048 46.9601 39.112ZM50.3623 47.192C48.6823 47.192 47.6903 46.248 47.6903 44.824C47.6903 43.384 48.7623 42.488 50.6023 42.344L53.0663 42.152V41.928C53.0663 40.616 52.2823 40.152 51.2263 40.152C49.9623 40.152 49.2423 40.712 49.2423 41.656H47.9303C47.9303 40.024 49.2743 38.952 51.2903 38.952C53.2263 38.952 54.5383 39.976 54.5383 42.088V47H53.2583L53.0983 45.736C52.6983 46.632 51.6263 47.192 50.3623 47.192ZM50.7943 46.024C52.2183 46.024 53.0823 45.096 53.0823 43.624V43.208L51.0823 43.368C49.7543 43.496 49.2103 44.008 49.2103 44.776C49.2103 45.608 49.8183 46.024 50.7943 46.024ZM58.7201 47H57.2161V40.44H55.6801V39.176H57.2161V36.728H58.7201V39.176H60.2561V40.44H58.7201V47ZM61.0317 43.08C61.0317 40.664 62.7597 38.968 65.1117 38.968C67.4477 38.968 69.1757 40.664 69.1757 43.08C69.1757 45.496 67.4477 47.192 65.1117 47.192C62.7597 47.192 61.0317 45.496 61.0317 43.08ZM62.5517 43.08C62.5517 44.712 63.5917 45.848 65.1117 45.848C66.6157 45.848 67.6718 44.712 67.6718 43.08C67.6718 41.448 66.6157 40.312 65.1117 40.312C63.5917 40.312 62.5517 41.448 62.5517 43.08ZM75.3366 39.112V40.488H74.6646C73.2406 40.488 72.3606 41.352 72.3606 42.856V47H70.8566V39.192H72.2646L72.3606 40.376C72.6806 39.56 73.4646 39.016 74.5366 39.016C74.8086 39.016 75.0326 39.048 75.3366 39.112Z" fill="#7E56DA"/>
<rect x="193.5" y="7.5" width="47" height="47" rx="23.5" stroke="#7E56DA" stroke-dasharray="2 2"/>
<mask id="mask0_11779_6866" style="mask-type:alpha" maskUnits="userSpaceOnUse" x="201" y="15" width="32" height="32">
<rect x="201" y="15" width="32" height="32" fill="#D9D9D9"/>
</mask>
<g mask="url(#mask0_11779_6866)">
<path d="M215.668 32.3327H207.668V29.666H215.668V21.666H218.335V29.666H226.335V32.3327H218.335V40.3327H215.668V32.3327Z" fill="#7E56DA"/>
</g>
</svg>
