<svg width="54" height="54" viewBox="0 0 54 54" fill="none" xmlns="http://www.w3.org/2000/svg">
<rect x="53" y="53" width="52" height="52" rx="26" transform="rotate(-180 53 53)" stroke="white" stroke-width="2"/>
<path fill-rule="evenodd" clip-rule="evenodd" d="M14.9997 26.2351C20.0272 26.512 24.0205 30.6754 24.0205 35.773L24.0172 35.9531L22.4992 35.9531L22.5026 35.773C22.5026 31.5161 19.1898 28.0299 14.9997 27.7563L14.9997 26.2351Z" fill="white"/>
<path fill-rule="evenodd" clip-rule="evenodd" d="M14.9997 27.7637C20.0272 27.4868 24.0205 23.3233 24.0205 18.2258L24.0172 18.0456L22.4992 18.0456L22.5026 18.2258C22.5026 22.4826 19.1898 25.9689 14.9997 26.2424L14.9997 27.7637Z" fill="white"/>
<path d="M15.0201 27.7559L39 27.7559L39 26.2313L15.0201 26.2313L15.0201 27.7559Z" fill="white"/>
</svg>
