<svg width="32" height="44" viewBox="0 0 32 44" fill="none" xmlns="http://www.w3.org/2000/svg">
<mask id="mask0_11772_9888" style="mask-type:luminance" maskUnits="userSpaceOnUse" x="0" y="0" width="32" height="44">
<path d="M23.7147 0C26.1462 1.44647 28.1448 3.55231 29.4595 6.06612C26.039 12.8328 19.0168 17.4978 10.9519 17.4978C20.6569 17.4978 28.8619 24.2645 31.079 33.3101C30.9142 34.8184 30.5268 36.2607 29.9499 37.6083C27.5555 36.3226 24.8192 35.5931 21.9138 35.5931C15.6581 35.5931 10.1936 38.9683 7.23885 44C5.00113 42.3969 3.20848 40.1963 2.10817 37.6413C5.69346 31.4268 12.4149 27.2193 20.0676 27.2193C11.4217 27.2193 3.97087 21.8537 0.875977 14.2834V13.0306C0.875977 11.5141 1.10263 10.0511 1.52298 8.66648C3.57113 9.54013 5.82534 10.0264 8.19493 10.0264C15.1018 10.0264 21.0443 5.91365 23.7065 0L23.7147 0Z" fill="white"/>
</mask>
<g mask="url(#mask0_11772_9888)">
<path fill-rule="evenodd" clip-rule="evenodd" d="M26.8831 -1.13281L27.4683 0.494985L-6.79393 12.7591L-7.375 11.1272L26.8831 -1.13281Z" fill="#FFD374"/>
<path fill-rule="evenodd" clip-rule="evenodd" d="M27.4478 0.433594L27.5137 0.619039L-6.74852 12.8832L-6.81445 12.6977L27.4478 0.433594Z" fill="#FFD374"/>
<path fill-rule="evenodd" clip-rule="evenodd" d="M27.4886 0.556641L27.5545 0.742086L-6.70359 13.0021L-6.76953 12.8208L27.4886 0.556641Z" fill="#FFD374"/>
<path fill-rule="evenodd" clip-rule="evenodd" d="M27.5347 0.679688L27.6007 0.865133L-6.6616 13.1251L-6.72754 12.9438L27.5347 0.679688Z" fill="#FFD374"/>
<path fill-rule="evenodd" clip-rule="evenodd" d="M27.5796 0.804688L27.6456 0.990133L-6.61668 13.2501L-6.68262 13.0647L27.5796 0.804688Z" fill="#FFD374"/>
<path fill-rule="evenodd" clip-rule="evenodd" d="M27.6214 0.927734L27.6874 1.11318L-6.57078 13.3732L-6.63672 13.1877L27.6214 0.927734Z" fill="#FFD274"/>
<path fill-rule="evenodd" clip-rule="evenodd" d="M27.6666 1.05078L27.7325 1.23623L-6.52977 13.4962L-6.5957 13.3108L27.6666 1.05078Z" fill="#FFD274"/>
<path fill-rule="evenodd" clip-rule="evenodd" d="M27.7115 1.17578L27.7774 1.36123L-6.48484 13.6212L-6.55078 13.4358L27.7115 1.17578Z" fill="#FFD274"/>
<path fill-rule="evenodd" clip-rule="evenodd" d="M27.7564 1.29883L27.8223 1.48427L-6.43992 13.7443L-6.50586 13.5588L27.7564 1.29883Z" fill="#FFD175"/>
<path fill-rule="evenodd" clip-rule="evenodd" d="M27.7982 1.42188L27.8641 1.6032L-6.39402 13.8673L-6.45996 13.6819L27.7982 1.42188Z" fill="#FFD175"/>
<path fill-rule="evenodd" clip-rule="evenodd" d="M27.8433 1.54492L27.9093 1.72625L-6.35301 13.9904L-6.41895 13.8049L27.8433 1.54492Z" fill="#FFD175"/>
<path fill-rule="evenodd" clip-rule="evenodd" d="M27.8892 1.66602L27.9552 1.85146L-6.30711 14.1156L-6.37305 13.9301L27.8892 1.66602Z" fill="#FFD075"/>
<path fill-rule="evenodd" clip-rule="evenodd" d="M27.93 1.78906L27.996 1.97451L-6.26219 14.2386L-6.32812 14.0532L27.93 1.78906Z" fill="#FFCF75"/>
<path fill-rule="evenodd" clip-rule="evenodd" d="M27.9752 1.91211L28.0411 2.09755L-6.22117 14.3617L-6.28711 14.1762L27.9752 1.91211Z" fill="#FFCF76"/>
<path fill-rule="evenodd" clip-rule="evenodd" d="M28.0201 2.03711L28.086 2.22255L-6.17625 14.4826L-6.24219 14.3012L28.0201 2.03711Z" fill="#FFCE76"/>
<path fill-rule="evenodd" clip-rule="evenodd" d="M28.066 2.16016L28.1319 2.3456L-6.13035 14.6056L-6.19629 14.4202L28.066 2.16016Z" fill="#FFCE76"/>
<path fill-rule="evenodd" clip-rule="evenodd" d="M28.107 2.2832L28.1729 2.46865L-6.08522 14.7286L-6.15527 14.5432L28.107 2.2832Z" fill="#FFCD76"/>
<path fill-rule="evenodd" clip-rule="evenodd" d="M28.1529 2.40625L28.2188 2.5917L-6.04344 14.8517L-6.10938 14.6662L28.1529 2.40625Z" fill="#FFCC77"/>
<path fill-rule="evenodd" clip-rule="evenodd" d="M28.1978 2.53125L28.2637 2.7167L-5.99852 14.9767L-6.06445 14.7912L28.1978 2.53125Z" fill="#FFCB77"/>
<path fill-rule="evenodd" clip-rule="evenodd" d="M28.2386 2.6543L28.3045 2.83974L-5.95359 15.0997L-6.01953 14.9143L28.2386 2.6543Z" fill="#FFCA77"/>
<path fill-rule="evenodd" clip-rule="evenodd" d="M28.2837 2.77734L28.3497 2.95867L-5.91258 15.2228L-5.97852 15.0373L28.2837 2.77734Z" fill="#FFCA78"/>
<path fill-rule="evenodd" clip-rule="evenodd" d="M28.3296 2.90039L28.3956 3.08171L-5.86668 15.3458L-5.93262 15.1604L28.3296 2.90039Z" fill="#FFC978"/>
<path fill-rule="evenodd" clip-rule="evenodd" d="M28.3714 3.02539L28.4374 3.20671L-5.82078 15.4708L-5.88672 15.2854L28.3714 3.02539Z" fill="#FFC878"/>
<path fill-rule="evenodd" clip-rule="evenodd" d="M28.4166 3.14453L28.4825 3.32998L-5.77977 15.5941L-5.8457 15.4086L28.4166 3.14453Z" fill="#FFC779"/>
<path fill-rule="evenodd" clip-rule="evenodd" d="M28.4615 3.26758L28.5274 3.45302L-5.73484 15.7171L-5.80078 15.5317L28.4615 3.26758Z" fill="#FFC679"/>
<path fill-rule="evenodd" clip-rule="evenodd" d="M28.5074 3.39258L28.5733 3.57802L-5.68895 15.838L-5.75488 15.6567L28.5074 3.39258Z" fill="#FFC579"/>
<path fill-rule="evenodd" clip-rule="evenodd" d="M28.5484 3.51562L28.6143 3.70107L-5.64381 15.9611L-5.71387 15.7797L28.5484 3.51562Z" fill="#FFC47A"/>
<path fill-rule="evenodd" clip-rule="evenodd" d="M28.5933 3.63867L28.6593 3.82412L-5.60301 16.0841L-5.66895 15.8987L28.5933 3.63867Z" fill="#FFC27A"/>
<path fill-rule="evenodd" clip-rule="evenodd" d="M28.6392 3.76367L28.7052 3.94912L-5.55711 16.2091L-5.62305 16.0237L28.6392 3.76367Z" fill="#FFC17B"/>
<path fill-rule="evenodd" clip-rule="evenodd" d="M28.68 3.88672L28.746 4.07216L-5.51219 16.3322L-5.57812 16.1467L28.68 3.88672Z" fill="#FFC07B"/>
<path fill-rule="evenodd" clip-rule="evenodd" d="M28.7252 4.00977L28.7911 4.19521L-5.47117 16.4552L-5.53711 16.2698L28.7252 4.00977Z" fill="#FFBF7C"/>
<path fill-rule="evenodd" clip-rule="evenodd" d="M28.7701 4.13477L28.836 4.32021L-5.42625 16.5802L-5.49219 16.3948L28.7701 4.13477Z" fill="#FFBE7C"/>
<path fill-rule="evenodd" clip-rule="evenodd" d="M28.8119 4.25781L28.8819 4.43914L-5.38035 16.7033L-5.44629 16.5178L28.8119 4.25781Z" fill="#FFBC7D"/>
<path fill-rule="evenodd" clip-rule="evenodd" d="M28.857 4.38086L28.9229 4.56218L-5.33934 16.8263L-5.40527 16.6409L28.857 4.38086Z" fill="#FFBB7D"/>
<path fill-rule="evenodd" clip-rule="evenodd" d="M28.9029 4.5L28.9688 4.68545L-5.29344 16.9496L-5.35938 16.7641L28.9029 4.5Z" fill="#FFBA7E"/>
<path fill-rule="evenodd" clip-rule="evenodd" d="M28.9478 4.625L29.0137 4.81045L-5.24852 17.0746L-5.31445 16.8891L28.9478 4.625Z" fill="#FFB97E"/>
<path fill-rule="evenodd" clip-rule="evenodd" d="M28.9886 4.74805L29.0545 4.93349L-5.20359 17.1935L-5.26953 17.0122L28.9886 4.74805Z" fill="#FFB77F"/>
<path fill-rule="evenodd" clip-rule="evenodd" d="M29.0337 4.87109L29.0997 5.05654L-5.16258 17.3165L-5.22852 17.1352L29.0337 4.87109Z" fill="#FFB67F"/>
<path fill-rule="evenodd" clip-rule="evenodd" d="M29.0796 4.99609L29.1456 5.18154L-5.11668 17.4415L-5.18262 17.2561L29.0796 4.99609Z" fill="#FFB480"/>
<path fill-rule="evenodd" clip-rule="evenodd" d="M29.1204 5.11914L29.1864 5.30459L-5.07176 17.5646L-5.1377 17.3791L29.1204 5.11914Z" fill="#FFB380"/>
<path fill-rule="evenodd" clip-rule="evenodd" d="M29.1666 5.24219L29.2325 5.42763L-5.02977 17.6876L-5.0957 17.5022L29.1666 5.24219Z" fill="#FFB181"/>
<path fill-rule="evenodd" clip-rule="evenodd" d="M29.2115 5.36523L29.2774 5.55068L-4.98484 17.8107L-5.05078 17.6252L29.2115 5.36523Z" fill="#FFB081"/>
<path fill-rule="evenodd" clip-rule="evenodd" d="M29.2564 5.49023L29.3223 5.67568L-4.93992 17.9357L-5.00586 17.7502L29.2564 5.49023Z" fill="#FFAE82"/>
<path fill-rule="evenodd" clip-rule="evenodd" d="M29.2982 5.61328L29.3641 5.79873L-4.89402 18.0587L-4.95996 17.8733L29.2982 5.61328Z" fill="#FFAD83"/>
<path fill-rule="evenodd" clip-rule="evenodd" d="M29.3433 5.73633L29.4093 5.91765L-4.85301 18.1818L-4.91895 17.9963L29.3433 5.73633Z" fill="#FFAB83"/>
<path fill-rule="evenodd" clip-rule="evenodd" d="M29.3882 5.85547L29.4542 6.04091L-4.80809 18.305L-4.87402 18.1196L29.3882 5.85547Z" fill="#FFAA84"/>
<path fill-rule="evenodd" clip-rule="evenodd" d="M29.43 5.98047L29.496 6.16591L-4.76219 18.43L-4.82812 18.2446L29.43 5.98047Z" fill="#FFA885"/>
<path fill-rule="evenodd" clip-rule="evenodd" d="M29.4752 6.10352L29.5411 6.28896L-4.72117 18.5531L-4.78711 18.3676L29.4752 6.10352Z" fill="#FFA785"/>
<path fill-rule="evenodd" clip-rule="evenodd" d="M29.5201 6.22656L29.586 6.41201L-4.67625 18.672L-4.74219 18.4907L29.5201 6.22656Z" fill="#FFA586"/>
<path fill-rule="evenodd" clip-rule="evenodd" d="M29.5619 6.35156L29.6319 6.53701L-4.63035 18.797L-4.69629 18.6116L29.5619 6.35156Z" fill="#FFA386"/>
<path fill-rule="evenodd" clip-rule="evenodd" d="M29.607 6.47461L29.6729 6.66005L-4.58934 18.9201L-4.65527 18.7346L29.607 6.47461Z" fill="#FFA287"/>
<path fill-rule="evenodd" clip-rule="evenodd" d="M29.6529 6.59766L29.7188 6.7831L-4.54344 19.0431L-4.60938 18.8577L29.6529 6.59766Z" fill="#FFA088"/>
<path fill-rule="evenodd" clip-rule="evenodd" d="M29.6978 6.72266L29.7637 6.9081L-4.49852 19.1681L-4.56445 18.9827L29.6978 6.72266Z" fill="#FF9E88"/>
<path fill-rule="evenodd" clip-rule="evenodd" d="M29.7386 6.8457L29.8045 7.03115L-4.45359 19.2911L-4.51953 19.1057L29.7386 6.8457Z" fill="#FF9D89"/>
<path fill-rule="evenodd" clip-rule="evenodd" d="M29.7847 6.96875L29.8507 7.1542L-4.4116 19.4142L-4.47754 19.2287L29.7847 6.96875Z" fill="#FF9B8A"/>
<path fill-rule="evenodd" clip-rule="evenodd" d="M29.8296 7.0918L29.8956 7.27312L-4.36668 19.5372L-4.43262 19.3518L29.8296 7.0918Z" fill="#FF998B"/>
<path fill-rule="evenodd" clip-rule="evenodd" d="M29.8704 7.21289L29.9364 7.39834L-4.32176 19.6625L-4.3877 19.477L29.8704 7.21289Z" fill="#FF988B"/>
<path fill-rule="evenodd" clip-rule="evenodd" d="M29.9166 7.33594L29.9825 7.52138L-4.27977 19.7855L-4.3457 19.6001L29.9166 7.33594Z" fill="#FF968C"/>
<path fill-rule="evenodd" clip-rule="evenodd" d="M29.9615 7.45898L30.0274 7.64443L-4.23484 19.9085L-4.30078 19.7231L29.9615 7.45898Z" fill="#FF948D"/>
<path fill-rule="evenodd" clip-rule="evenodd" d="M30.0064 7.58398L30.0723 7.76943L-4.18992 20.0294L-4.25586 19.8481L30.0064 7.58398Z" fill="#FF938D"/>
<path fill-rule="evenodd" clip-rule="evenodd" d="M30.0484 7.70703L30.1143 7.89248L-4.14381 20.1525L-4.21387 19.9711L30.0484 7.70703Z" fill="#FF918E"/>
<path fill-rule="evenodd" clip-rule="evenodd" d="M30.0933 7.83008L30.1593 8.01552L-4.10301 20.2755L-4.16895 20.0901L30.0933 7.83008Z" fill="#FF8F8F"/>
<path fill-rule="evenodd" clip-rule="evenodd" d="M30.1382 7.95312L30.2042 8.13857L-4.05809 20.3986L-4.12402 20.2131L30.1382 7.95312Z" fill="#FF8D90"/>
<path fill-rule="evenodd" clip-rule="evenodd" d="M30.18 8.07812L30.246 8.26357L-4.01219 20.5236L-4.07812 20.3381L30.18 8.07812Z" fill="#FF8C90"/>
<path fill-rule="evenodd" clip-rule="evenodd" d="M30.2252 8.20117L30.2911 8.38662L-3.97117 20.6466L-4.03711 20.4612L30.2252 8.20117Z" fill="#FF8A91"/>
<path fill-rule="evenodd" clip-rule="evenodd" d="M30.2711 8.32617L30.337 8.51162L-3.92527 20.7716L-3.99121 20.5862L30.2711 8.32617Z" fill="#FF8892"/>
<path fill-rule="evenodd" clip-rule="evenodd" d="M30.3119 8.44922L30.3819 8.63466L-3.88035 20.8947L-3.94629 20.7092L30.3119 8.44922Z" fill="#FF8693"/>
<path fill-rule="evenodd" clip-rule="evenodd" d="M30.357 8.56836L30.4229 8.7538L-3.83934 21.0179L-3.90527 20.8325L30.357 8.56836Z" fill="#FF8593"/>
<path fill-rule="evenodd" clip-rule="evenodd" d="M30.4029 8.69141L30.4688 8.87685L-3.79344 21.141L-3.85938 20.9555L30.4029 8.69141Z" fill="#FF8394"/>
<path fill-rule="evenodd" clip-rule="evenodd" d="M30.4478 8.81641L30.5137 9.00185L-3.74852 21.266L-3.81445 21.0805L30.4478 8.81641Z" fill="#FF8195"/>
<path fill-rule="evenodd" clip-rule="evenodd" d="M30.4888 8.93945L30.5548 9.1249L-3.70338 21.389L-3.77344 21.2036L30.4888 8.93945Z" fill="#FF7F96"/>
<path fill-rule="evenodd" clip-rule="evenodd" d="M30.5347 9.0625L30.6007 9.24795L-3.6616 21.5079L-3.72754 21.3266L30.5347 9.0625Z" fill="#FF7D96"/>
<path fill-rule="evenodd" clip-rule="evenodd" d="M30.5796 9.18555L30.6456 9.37099L-3.61668 21.631L-3.68262 21.4455L30.5796 9.18555Z" fill="#FF7C97"/>
<path fill-rule="evenodd" clip-rule="evenodd" d="M30.6204 9.31055L30.6864 9.49599L-3.57176 21.756L-3.6377 21.5705L30.6204 9.31055Z" fill="#FF7A98"/>
<path fill-rule="evenodd" clip-rule="evenodd" d="M30.6666 9.43359L30.7325 9.61904L-3.52977 21.879L-3.5957 21.6936L30.6666 9.43359Z" fill="#FF7899"/>
<path fill-rule="evenodd" clip-rule="evenodd" d="M30.7115 9.55664L30.7774 9.74209L-3.48484 22.0021L-3.55078 21.8166L30.7115 9.55664Z" fill="#FF7699"/>
<path fill-rule="evenodd" clip-rule="evenodd" d="M30.7533 9.67969L30.8233 9.86513L-3.43895 22.1251L-3.50488 21.9397L30.7533 9.67969Z" fill="#FF759A"/>
<path fill-rule="evenodd" clip-rule="evenodd" d="M30.7984 9.80469L30.8643 9.99013L-3.39381 22.2501L-3.46387 22.0647L30.7984 9.80469Z" fill="#FF739B"/>
<path fill-rule="evenodd" clip-rule="evenodd" d="M30.8433 9.92773L30.9093 10.1091L-3.35301 22.3732L-3.41895 22.1877L30.8433 9.92773Z" fill="#FF719C"/>
<path fill-rule="evenodd" clip-rule="evenodd" d="M30.8882 10.0469L30.9542 10.2323L-3.30809 22.4964L-3.37402 22.311L30.8882 10.0469Z" fill="#FF709C"/>
<path fill-rule="evenodd" clip-rule="evenodd" d="M30.93 10.1719L30.996 10.3573L-3.26219 22.6214L-3.32812 22.436L30.93 10.1719Z" fill="#FF6E9D"/>
<path fill-rule="evenodd" clip-rule="evenodd" d="M30.9752 10.2949L31.0411 10.4804L-3.22117 22.7445L-3.28711 22.559L30.9752 10.2949Z" fill="#FF6C9E"/>
<path fill-rule="evenodd" clip-rule="evenodd" d="M31.0211 10.418L31.087 10.6034L-3.17527 22.8634L-3.24121 22.6821L31.0211 10.418Z" fill="#FF6A9F"/>
<path fill-rule="evenodd" clip-rule="evenodd" d="M31.0619 10.541L31.1319 10.7265L-3.13035 22.9865L-3.19629 22.801L31.0619 10.541Z" fill="#FF69A0"/>
<path fill-rule="evenodd" clip-rule="evenodd" d="M31.107 10.666L31.1729 10.8515L-3.08934 23.1115L-3.15527 22.926L31.107 10.666Z" fill="#FF67A0"/>
<path fill-rule="evenodd" clip-rule="evenodd" d="M31.1519 10.7891L31.2178 10.9745L-3.04442 23.2345L-3.11035 23.0491L31.1519 10.7891Z" fill="#FF65A1"/>
<path fill-rule="evenodd" clip-rule="evenodd" d="M31.1978 10.9121L31.2637 11.0976L-2.99852 23.3576L-3.06445 23.1721L31.1978 10.9121Z" fill="#FF64A2"/>
<path fill-rule="evenodd" clip-rule="evenodd" d="M31.2396 11.0371L31.3055 11.2226L-2.95262 23.4826L-3.01855 23.2971L31.2396 11.0371Z" fill="#FF62A3"/>
<path fill-rule="evenodd" clip-rule="evenodd" d="M31.2847 11.1602L31.3507 11.3456L-2.9116 23.6056L-2.97754 23.4202L31.2847 11.1602Z" fill="#FF61A3"/>
<path fill-rule="evenodd" clip-rule="evenodd" d="M31.3296 11.2832L31.3956 11.4645L-2.86668 23.7286L-2.93262 23.5432L31.3296 11.2832Z" fill="#FF5FA4"/>
<path fill-rule="evenodd" clip-rule="evenodd" d="M31.3714 11.4082L31.4374 11.5895L-2.82078 23.8536L-2.88672 23.6682L31.3714 11.4082Z" fill="#FF5DA5"/>
<path fill-rule="evenodd" clip-rule="evenodd" d="M31.4166 11.5273L31.4825 11.7128L-2.77977 23.9769L-2.8457 23.7915L31.4166 11.5273Z" fill="#FF5CA6"/>
<path fill-rule="evenodd" clip-rule="evenodd" d="M31.4615 11.6504L31.5274 11.8358L-2.73484 24.1L-2.80078 23.9145L31.4615 11.6504Z" fill="#FF5AA6"/>
<path fill-rule="evenodd" clip-rule="evenodd" d="M31.5074 11.7734L31.5733 11.9589L-2.68895 24.2189L-2.75488 24.0376L31.5074 11.7734Z" fill="#FF59A7"/>
<path fill-rule="evenodd" clip-rule="evenodd" d="M31.5484 11.8984L31.6143 12.0839L-2.64381 24.3439L-2.71387 24.1626L31.5484 11.8984Z" fill="#FF57A8"/>
<path fill-rule="evenodd" clip-rule="evenodd" d="M31.5933 12.0215L31.6593 12.2069L-2.60301 24.4669L-2.66895 24.2815L31.5933 12.0215Z" fill="#FF56A9"/>
<path fill-rule="evenodd" clip-rule="evenodd" d="M31.6382 12.1445L31.7042 12.33L-2.55809 24.59L-2.62402 24.4045L31.6382 12.1445Z" fill="#FF54A9"/>
<path fill-rule="evenodd" clip-rule="evenodd" d="M31.68 12.2695L31.746 12.455L-2.51219 24.715L-2.57812 24.5295L31.68 12.2695Z" fill="#FF53AA"/>
<path fill-rule="evenodd" clip-rule="evenodd" d="M31.7252 12.3926L31.7911 12.578L-2.47117 24.838L-2.53711 24.6526L31.7252 12.3926Z" fill="#FF51AB"/>
<path fill-rule="evenodd" clip-rule="evenodd" d="M31.7711 12.5156L31.837 12.7011L-2.42527 24.9611L-2.49121 24.7756L31.7711 12.5156Z" fill="#FF50AC"/>
<path fill-rule="evenodd" clip-rule="evenodd" d="M31.8119 12.6406L31.8778 12.8219L-2.38035 25.0861L-2.44629 24.9006L31.8119 12.6406Z" fill="#FF4FAC"/>
<path fill-rule="evenodd" clip-rule="evenodd" d="M31.857 12.7637L31.9229 12.945L-2.33934 25.2091L-2.40527 25.0237L31.857 12.7637Z" fill="#FF4DAD"/>
<path fill-rule="evenodd" clip-rule="evenodd" d="M31.9019 12.8828L31.9678 13.0683L-2.29442 25.3324L-2.36035 25.1469L31.9019 12.8828Z" fill="#FF4CAE"/>
<path fill-rule="evenodd" clip-rule="evenodd" d="M31.9478 13.0059L32.0137 13.1913L-2.24852 25.4554L-2.31445 25.27L31.9478 13.0059Z" fill="#FF4BAE"/>
<path fill-rule="evenodd" clip-rule="evenodd" d="M31.9888 13.1309L32.0548 13.3163L-2.20338 25.5763L-2.27344 25.395L31.9888 13.1309Z" fill="#FF49AF"/>
<path fill-rule="evenodd" clip-rule="evenodd" d="M32.0347 13.2539L32.1007 13.4394L-2.1616 25.6993L-2.22754 25.518L32.0347 13.2539Z" fill="#FF48B0"/>
<path fill-rule="evenodd" clip-rule="evenodd" d="M32.0796 13.377L32.1456 13.5624L-2.11668 25.8224L-2.18262 25.637L32.0796 13.377Z" fill="#FF47B1"/>
<path fill-rule="evenodd" clip-rule="evenodd" d="M32.1214 13.5L32.1874 13.6854L-2.07078 25.9454L-2.13672 25.76L32.1214 13.5Z" fill="#FF46B1"/>
<path fill-rule="evenodd" clip-rule="evenodd" d="M32.1656 13.625L32.2315 13.8104L-2.03074 26.0704L-2.09668 25.885L32.1656 13.625Z" fill="#FF45B2"/>
<path fill-rule="evenodd" clip-rule="evenodd" d="M32.2115 13.748L32.2774 13.9335L-1.98484 26.1935L-2.05078 26.008L32.2115 13.748Z" fill="#FF44B3"/>
<path fill-rule="evenodd" clip-rule="evenodd" d="M32.2533 13.8711L32.3233 14.0565L-1.93895 26.3165L-2.00488 26.1311L32.2533 13.8711Z" fill="#FF42B3"/>
<path fill-rule="evenodd" clip-rule="evenodd" d="M32.2984 13.9961L32.3643 14.1774L-1.89381 26.4415L-1.96387 26.2561L32.2984 13.9961Z" fill="#FF41B4"/>
<path fill-rule="evenodd" clip-rule="evenodd" d="M32.3433 14.1191L32.4093 14.3005L-1.85301 26.5646L-1.91895 26.3791L32.3433 14.1191Z" fill="#FF40B5"/>
<path fill-rule="evenodd" clip-rule="evenodd" d="M32.3892 14.2422L32.4552 14.4235L-1.80711 26.6876L-1.87305 26.5022L32.3892 14.2422Z" fill="#FF3FB5"/>
<path fill-rule="evenodd" clip-rule="evenodd" d="M32.43 14.3613L32.496 14.5468L-1.76219 26.8109L-1.82812 26.6254L32.43 14.3613Z" fill="#FF3EB6"/>
<path fill-rule="evenodd" clip-rule="evenodd" d="M32.4752 14.4863L32.5411 14.6718L-1.72117 26.9359L-1.78711 26.7504L32.4752 14.4863Z" fill="#FF3EB6"/>
<path fill-rule="evenodd" clip-rule="evenodd" d="M32.5211 14.6094L32.587 14.7948L-1.67527 27.0548L-1.74121 26.8735L32.5211 14.6094Z" fill="#FF3DB7"/>
<path fill-rule="evenodd" clip-rule="evenodd" d="M32.5619 14.7324L32.6278 14.9179L-1.63035 27.1779L-1.69629 26.9965L32.5619 14.7324Z" fill="#FF3CB8"/>
<path fill-rule="evenodd" clip-rule="evenodd" d="M32.607 14.8574L32.6729 15.0429L-1.58934 27.3029L-1.65527 27.1174L32.607 14.8574Z" fill="#FF3BB8"/>
<path fill-rule="evenodd" clip-rule="evenodd" d="M32.6529 14.9805L32.7188 15.1659L-1.54344 27.4259L-1.60938 27.2405L32.6529 14.9805Z" fill="#FF3AB9"/>
<path fill-rule="evenodd" clip-rule="evenodd" d="M32.6937 15.1035L32.7637 15.289L-1.49852 27.549L-1.56445 27.3635L32.6937 15.1035Z" fill="#FF3AB9"/>
<path fill-rule="evenodd" clip-rule="evenodd" d="M32.7386 15.2285L32.8045 15.414L-1.45359 27.674L-1.51953 27.4885L32.7386 15.2285Z" fill="#FF39BA"/>
<path fill-rule="evenodd" clip-rule="evenodd" d="M32.7847 15.3516L32.8507 15.537L-1.4116 27.797L-1.47754 27.6116L32.7847 15.3516Z" fill="#FF38BB"/>
<path fill-rule="evenodd" clip-rule="evenodd" d="M32.8296 15.4746L32.8956 15.6559L-1.36668 27.9201L-1.43262 27.7346L32.8296 15.4746Z" fill="#FF38BB"/>
<path fill-rule="evenodd" clip-rule="evenodd" d="M32.8714 15.5977L32.9374 15.779L-1.32078 28.0431L-1.38672 27.8577L32.8714 15.5977Z" fill="#FF37BC"/>
<path fill-rule="evenodd" clip-rule="evenodd" d="M32.9166 15.7168L32.9825 15.9022L-1.27977 28.1664L-1.3457 27.9809L32.9166 15.7168Z" fill="#FF37BC"/>
<path fill-rule="evenodd" clip-rule="evenodd" d="M32.9615 15.8418L33.0274 16.0272L-1.23484 28.2914L-1.30078 28.1059L32.9615 15.8418Z" fill="#FF36BD"/>
<path fill-rule="evenodd" clip-rule="evenodd" d="M33.0033 15.9648L33.0733 16.1503L-1.18895 28.4103L-1.25488 28.229L33.0033 15.9648Z" fill="#FF36BD"/>
<path fill-rule="evenodd" clip-rule="evenodd" d="M33.0484 16.0898L33.1143 16.2753L-1.14793 28.5353L-1.21387 28.354L33.0484 16.0898Z" fill="#FF35BE"/>
<path fill-rule="evenodd" clip-rule="evenodd" d="M33.0933 16.2129L33.1593 16.3983L-1.10301 28.6583L-1.16895 28.4729L33.0933 16.2129Z" fill="#FF35BE"/>
<path fill-rule="evenodd" clip-rule="evenodd" d="M33.1392 16.3359L33.2052 16.5214L-1.05711 28.7814L-1.12305 28.5959L33.1392 16.3359Z" fill="#FF35BF"/>
<path fill-rule="evenodd" clip-rule="evenodd" d="M33.18 16.459L33.246 16.6444L-1.01219 28.9044L-1.07812 28.719L33.18 16.459Z" fill="#FF34BF"/>
<path fill-rule="evenodd" clip-rule="evenodd" d="M33.2252 16.584L33.2911 16.7694L-0.971173 29.0294L-1.03711 28.844L33.2252 16.584Z" fill="#FF34C0"/>
<path fill-rule="evenodd" clip-rule="evenodd" d="M33.2711 16.707L33.337 16.8925L-0.925274 29.1525L-0.991211 28.967L33.2711 16.707Z" fill="#FF34C0"/>
<path fill-rule="evenodd" clip-rule="evenodd" d="M33.3119 16.8301L33.3778 17.0155L-0.880353 29.2755L-0.946289 29.0901L33.3119 16.8301Z" fill="#FF34C1"/>
<path fill-rule="evenodd" clip-rule="evenodd" d="M33.357 16.9551L33.4229 17.1364L-0.839337 29.4005L-0.905273 29.2151L33.357 16.9551Z" fill="#FF34C1"/>
<path fill-rule="evenodd" clip-rule="evenodd" d="M33.4029 17.0742L33.4688 17.2597L-0.793439 29.5238L-0.859375 29.3383L33.4029 17.0742Z" fill="#FF34C1"/>
<path fill-rule="evenodd" clip-rule="evenodd" d="M33.4478 17.1973L33.5137 17.3827L-0.748517 29.6468L-0.814453 29.4614L33.4478 17.1973Z" fill="#FF34C2"/>
<path fill-rule="evenodd" clip-rule="evenodd" d="M33.4888 17.3203L33.5548 17.5058L-0.70338 29.7699L-0.773438 29.5844L33.4888 17.3203Z" fill="#FF34C2"/>
<path fill-rule="evenodd" clip-rule="evenodd" d="M33.5347 17.4453L33.6007 17.6308L-0.661603 29.8908L-0.727539 29.7094L33.5347 17.4453Z" fill="#FF34C3"/>
<path fill-rule="evenodd" clip-rule="evenodd" d="M33.5796 17.5684L33.6456 17.7538L-0.616681 30.0138L-0.682617 29.8284L33.5796 17.5684Z" fill="#FE34C3"/>
<path fill-rule="evenodd" clip-rule="evenodd" d="M33.6214 17.6914L33.6874 17.8769L-0.570782 30.1368L-0.636719 29.9514L33.6214 17.6914Z" fill="#FE34C4"/>
<path fill-rule="evenodd" clip-rule="evenodd" d="M33.6666 17.8145L33.7325 17.9999L-0.529767 30.2599L-0.595703 30.0745L33.6666 17.8145Z" fill="#FE34C4"/>
<path fill-rule="evenodd" clip-rule="evenodd" d="M33.7115 17.9395L33.7774 18.1249L-0.484845 30.3849L-0.550781 30.1994L33.7115 17.9395Z" fill="#FD34C5"/>
<path fill-rule="evenodd" clip-rule="evenodd" d="M33.7523 18.0625L33.8182 18.2479L-0.439923 30.5079L-0.505859 30.3225L33.7523 18.0625Z" fill="#FD34C5"/>
<path fill-rule="evenodd" clip-rule="evenodd" d="M33.7984 18.1875L33.8643 18.3729L-0.39381 30.6329L-0.463867 30.4475L33.7984 18.1875Z" fill="#FC34C5"/>
<path fill-rule="evenodd" clip-rule="evenodd" d="M33.8433 18.3105L33.9093 18.4919L-0.353009 30.756L-0.418945 30.5705L33.8433 18.3105Z" fill="#FC35C6"/>
<path fill-rule="evenodd" clip-rule="evenodd" d="M33.8892 18.4297L33.9552 18.6151L-0.30711 30.8792L-0.373047 30.6938L33.8892 18.4297Z" fill="#FB35C6"/>
<path fill-rule="evenodd" clip-rule="evenodd" d="M33.93 18.5527L33.996 18.7382L-0.262188 31.0023L-0.328125 30.8169L33.93 18.5527Z" fill="#FA35C7"/>
<path fill-rule="evenodd" clip-rule="evenodd" d="M33.9752 18.6777L34.0411 18.8632L-0.221173 31.1273L-0.287109 30.9419L33.9752 18.6777Z" fill="#FA35C7"/>
<path fill-rule="evenodd" clip-rule="evenodd" d="M34.0201 18.8008L34.086 18.9862L-0.176251 31.2462L-0.242188 31.0649L34.0201 18.8008Z" fill="#F935C8"/>
<path fill-rule="evenodd" clip-rule="evenodd" d="M34.0619 18.9238L34.1278 19.1093L-0.130353 31.3693L-0.196289 31.1838L34.0619 18.9238Z" fill="#F835C8"/>
<path fill-rule="evenodd" clip-rule="evenodd" d="M34.108 19.0469L34.1739 19.2323L-0.0883603 31.4923L-0.154297 31.3069L34.108 19.0469Z" fill="#F735C8"/>
<path fill-rule="evenodd" clip-rule="evenodd" d="M34.1529 19.1719L34.2188 19.3573L-0.0434384 31.6173L-0.109375 31.4319L34.1529 19.1719Z" fill="#F635C9"/>
<path fill-rule="evenodd" clip-rule="evenodd" d="M34.1937 19.2949L34.2637 19.4804L0.00148333 31.7404L-0.0644531 31.5549L34.1937 19.2949Z" fill="#F535C9"/>
<path fill-rule="evenodd" clip-rule="evenodd" d="M34.2388 19.418L34.3048 19.6034L0.0466201 31.8634L-0.0234375 31.678L34.2388 19.418Z" fill="#F436CA"/>
<path fill-rule="evenodd" clip-rule="evenodd" d="M34.2847 19.543L34.3507 19.7284L0.0883974 31.9884L0.0224609 31.803L34.2847 19.543Z" fill="#F336CA"/>
<path fill-rule="evenodd" clip-rule="evenodd" d="M34.3296 19.666L34.3956 19.8515L0.133319 32.1115L0.0673828 31.926L34.3296 19.666Z" fill="#F236CA"/>
<path fill-rule="evenodd" clip-rule="evenodd" d="M34.3714 19.7852L34.4374 19.9706L0.179218 32.2347L0.113281 32.0493L34.3714 19.7852Z" fill="#F136CB"/>
<path fill-rule="evenodd" clip-rule="evenodd" d="M34.4166 19.9082L34.4825 20.0936L0.220233 32.3578L0.154297 32.1723L34.4166 19.9082Z" fill="#F036CB"/>
<path fill-rule="evenodd" clip-rule="evenodd" d="M34.4615 20.0332L34.5274 20.2186L0.265155 32.4828L0.199219 32.2973L34.4615 20.0332Z" fill="#EF36CC"/>
<path fill-rule="evenodd" clip-rule="evenodd" d="M34.5023 20.1562L34.5723 20.3417L0.310077 32.6058L0.244141 32.4204L34.5023 20.1562Z" fill="#EE37CC"/>
<path fill-rule="evenodd" clip-rule="evenodd" d="M34.5484 20.2812L34.6143 20.4667L0.352069 32.7267L0.286133 32.5454L34.5484 20.2812Z" fill="#EC37CC"/>
<path fill-rule="evenodd" clip-rule="evenodd" d="M34.5933 20.4043L34.6593 20.5897L0.396991 32.8497L0.331055 32.6643L34.5933 20.4043Z" fill="#EB37CD"/>
<path fill-rule="evenodd" clip-rule="evenodd" d="M34.6392 20.5273L34.7052 20.7128L0.44289 32.9728L0.376953 32.7873L34.6392 20.5273Z" fill="#EA37CD"/>
<path fill-rule="evenodd" clip-rule="evenodd" d="M34.68 20.6504L34.746 20.8358L0.487812 33.0958L0.421875 32.9104L34.68 20.6504Z" fill="#E837CE"/>
<path fill-rule="evenodd" clip-rule="evenodd" d="M34.7252 20.7754L34.7911 20.9608L0.528827 33.2208L0.462891 33.0354L34.7252 20.7754Z" fill="#E738CE"/>
<path fill-rule="evenodd" clip-rule="evenodd" d="M34.7701 20.8984L34.836 21.0839L0.573749 33.3439L0.507812 33.1584L34.7701 20.8984Z" fill="#E638CE"/>
<path fill-rule="evenodd" clip-rule="evenodd" d="M34.8119 21.0215L34.8778 21.2069L0.619647 33.4669L0.553711 33.2815L34.8119 21.0215Z" fill="#E438CF"/>
<path fill-rule="evenodd" clip-rule="evenodd" d="M34.857 21.1445L34.9229 21.3259L0.660663 33.59L0.594727 33.4045L34.857 21.1445Z" fill="#E338CF"/>
<path fill-rule="evenodd" clip-rule="evenodd" d="M34.9029 21.2656L34.9688 21.4511L0.706562 33.7152L0.640625 33.5297L34.9029 21.2656Z" fill="#E138D0"/>
<path fill-rule="evenodd" clip-rule="evenodd" d="M34.9437 21.3887L35.0137 21.5741L0.751483 33.8382L0.685547 33.6528L34.9437 21.3887Z" fill="#E039D0"/>
<path fill-rule="evenodd" clip-rule="evenodd" d="M34.9888 21.5117L35.0548 21.6972L0.792499 33.9613L0.726562 33.7758L34.9888 21.5117Z" fill="#DE39D0"/>
<path fill-rule="evenodd" clip-rule="evenodd" d="M35.0347 21.6348L35.1007 21.8202L0.838397 34.0802L0.772461 33.8989L35.0347 21.6348Z" fill="#DD39D1"/>
<path fill-rule="evenodd" clip-rule="evenodd" d="M35.0796 21.7598L35.1456 21.9452L0.883319 34.2052L0.817383 34.0198L35.0796 21.7598Z" fill="#DB39D1"/>
<path fill-rule="evenodd" clip-rule="evenodd" d="M35.1214 21.8828L35.1874 22.0683L0.929218 34.3283L0.863281 34.1428L35.1214 21.8828Z" fill="#DA3AD1"/>
<path fill-rule="evenodd" clip-rule="evenodd" d="M35.1666 22.0059L35.2325 22.1913L0.970233 34.4513L0.904297 34.2659L35.1666 22.0059Z" fill="#D83AD2"/>
<path fill-rule="evenodd" clip-rule="evenodd" d="M35.2115 22.1309L35.2774 22.3163L1.01516 34.5763L0.949219 34.3909L35.2115 22.1309Z" fill="#D63AD2"/>
<path fill-rule="evenodd" clip-rule="evenodd" d="M35.2533 22.2539L35.3192 22.4394L1.06105 34.6993L0.995117 34.5139L35.2533 22.2539Z" fill="#D53AD2"/>
<path fill-rule="evenodd" clip-rule="evenodd" d="M35.2984 22.377L35.3643 22.5624L1.10207 34.8224L1.03613 34.637L35.2984 22.377Z" fill="#D33BD3"/>
<path fill-rule="evenodd" clip-rule="evenodd" d="M35.3433 22.502L35.4093 22.6833L1.14699 34.9474L1.08105 34.7619L35.3433 22.502Z" fill="#D13BD3"/>
<path fill-rule="evenodd" clip-rule="evenodd" d="M35.3892 22.625L35.4552 22.8063L1.19289 35.0704L1.12695 34.885L35.3892 22.625Z" fill="#D03BD3"/>
<path fill-rule="evenodd" clip-rule="evenodd" d="M35.43 22.7441L35.496 22.9296L1.23781 35.1937L1.17188 35.0083L35.43 22.7441Z" fill="#CE3BD4"/>
<path fill-rule="evenodd" clip-rule="evenodd" d="M35.4752 22.8672L35.5411 23.0526L1.27883 35.3167L1.21289 35.1313L35.4752 22.8672Z" fill="#CC3CD4"/>
<path fill-rule="evenodd" clip-rule="evenodd" d="M35.5211 22.9922L35.587 23.1776L1.32473 35.4376L1.25879 35.2563L35.5211 22.9922Z" fill="#CA3CD4"/>
<path fill-rule="evenodd" clip-rule="evenodd" d="M35.5619 23.1152L35.6278 23.3007L1.36965 35.5607L1.30371 35.3794L35.5619 23.1152Z" fill="#C93CD5"/>
<path fill-rule="evenodd" clip-rule="evenodd" d="M35.607 23.2383L35.6729 23.4237L1.41066 35.6837L1.34473 35.4983L35.607 23.2383Z" fill="#C73DD5"/>
<path fill-rule="evenodd" clip-rule="evenodd" d="M35.6529 23.3633L35.7188 23.5487L1.45656 35.8087L1.39062 35.6233L35.6529 23.3633Z" fill="#C53DD5"/>
<path fill-rule="evenodd" clip-rule="evenodd" d="M35.6937 23.4863L35.7637 23.6718L1.50148 35.9318L1.43555 35.7463L35.6937 23.4863Z" fill="#C33DD6"/>
<path fill-rule="evenodd" clip-rule="evenodd" d="M35.7388 23.6094L35.8048 23.7948L1.54662 36.0548L1.47656 35.8694L35.7388 23.6094Z" fill="#C13DD6"/>
<path fill-rule="evenodd" clip-rule="evenodd" d="M35.7847 23.7344L35.8507 23.9198L1.5884 36.1798L1.52246 35.9944L35.7847 23.7344Z" fill="#C03ED6"/>
<path fill-rule="evenodd" clip-rule="evenodd" d="M35.8296 23.8574L35.8956 24.0387L1.63332 36.3029L1.56738 36.1174L35.8296 23.8574Z" fill="#BE3ED7"/>
<path fill-rule="evenodd" clip-rule="evenodd" d="M35.8714 23.9805L35.9374 24.1618L1.67922 36.4259L1.61328 36.2405L35.8714 23.9805Z" fill="#BC3ED7"/>
<path fill-rule="evenodd" clip-rule="evenodd" d="M35.9166 24.0996L35.9825 24.2851L1.72023 36.5492L1.6543 36.3637L35.9166 24.0996Z" fill="#BA3ED7"/>
<path fill-rule="evenodd" clip-rule="evenodd" d="M35.9615 24.2246L36.0274 24.4101L1.76516 36.6742L1.69922 36.4887L35.9615 24.2246Z" fill="#B83FD8"/>
<path fill-rule="evenodd" clip-rule="evenodd" d="M36.0033 24.3477L36.0692 24.5331L1.81105 36.7931L1.74512 36.6118L36.0033 24.3477Z" fill="#B73FD8"/>
<path fill-rule="evenodd" clip-rule="evenodd" d="M36.0484 24.4707L36.1143 24.6561L1.85207 36.9161L1.78613 36.7348L36.0484 24.4707Z" fill="#B53FD8"/>
<path fill-rule="evenodd" clip-rule="evenodd" d="M36.0933 24.5957L36.1593 24.7811L1.89699 37.0411L1.83105 36.8557L36.0933 24.5957Z" fill="#B340D8"/>
<path fill-rule="evenodd" clip-rule="evenodd" d="M36.1392 24.7188L36.2052 24.9042L1.94289 37.1642L1.87695 36.9787L36.1392 24.7188Z" fill="#B140D9"/>
<path fill-rule="evenodd" clip-rule="evenodd" d="M36.1802 24.8418L36.2462 25.0272L1.98803 37.2872L1.91797 37.1018L36.1802 24.8418Z" fill="#AF40D9"/>
<path fill-rule="evenodd" clip-rule="evenodd" d="M36.2252 24.9648L36.2911 25.1503L2.02883 37.4103L1.96289 37.2248L36.2252 24.9648Z" fill="#AE40D9"/>
<path fill-rule="evenodd" clip-rule="evenodd" d="M36.2711 25.0898L36.337 25.2753L2.07473 37.5353L2.00879 37.3498L36.2711 25.0898Z" fill="#AC41D9"/>
<path fill-rule="evenodd" clip-rule="evenodd" d="M36.3119 25.2129L36.3778 25.3942L2.11965 37.6583L2.05371 37.4729L36.3119 25.2129Z" fill="#AA41DA"/>
<path fill-rule="evenodd" clip-rule="evenodd" d="M36.357 25.3359L36.4229 25.5173L2.16066 37.7814L2.09473 37.5959L36.357 25.3359Z" fill="#A841DA"/>
<path fill-rule="evenodd" clip-rule="evenodd" d="M36.4029 25.459L36.4688 25.6403L2.20656 37.9044L2.14062 37.719L36.4029 25.459Z" fill="#A641DA"/>
<path fill-rule="evenodd" clip-rule="evenodd" d="M36.4437 25.5801L36.5137 25.7655L2.25148 38.0296L2.18555 37.8442L36.4437 25.5801Z" fill="#A542DA"/>
<path fill-rule="evenodd" clip-rule="evenodd" d="M36.4888 25.7031L36.5548 25.8886L2.2925 38.1527L2.22656 37.9672L36.4888 25.7031Z" fill="#A342DB"/>
<path fill-rule="evenodd" clip-rule="evenodd" d="M36.5347 25.8262L36.6007 26.0116L2.3384 38.2716L2.27246 38.0903L36.5347 25.8262Z" fill="#A142DB"/>
<path fill-rule="evenodd" clip-rule="evenodd" d="M36.5796 25.9512L36.6456 26.1366L2.38332 38.3966L2.31738 38.2153L36.5796 25.9512Z" fill="#9F43DB"/>
<path fill-rule="evenodd" clip-rule="evenodd" d="M36.6214 26.0742L36.6874 26.2597L2.42922 38.5197L2.36328 38.3342L36.6214 26.0742Z" fill="#9E43DB"/>
<path fill-rule="evenodd" clip-rule="evenodd" d="M36.6666 26.1973L36.7325 26.3827L2.47023 38.6427L2.4043 38.4573L36.6666 26.1973Z" fill="#9C43DC"/>
<path fill-rule="evenodd" clip-rule="evenodd" d="M36.7115 26.3203L36.7774 26.5058L2.51516 38.7658L2.44922 38.5803L36.7115 26.3203Z" fill="#9A43DC"/>
<path fill-rule="evenodd" clip-rule="evenodd" d="M36.7533 26.4453L36.8192 26.6308L2.56105 38.8908L2.49512 38.7053L36.7533 26.4453Z" fill="#9944DC"/>
<path fill-rule="evenodd" clip-rule="evenodd" d="M36.7984 26.5684L36.8643 26.7538L2.60207 39.0138L2.53613 38.8284L36.7984 26.5684Z" fill="#9744DC"/>
<path fill-rule="evenodd" clip-rule="evenodd" d="M36.8433 26.6934L36.9093 26.8747L2.64699 39.1388L2.58105 38.9534L36.8433 26.6934Z" fill="#9544DD"/>
<path fill-rule="evenodd" clip-rule="evenodd" d="M36.8892 26.8164L36.9552 26.9977L2.69289 39.2618L2.62695 39.0764L36.8892 26.8164Z" fill="#9444DD"/>
<path fill-rule="evenodd" clip-rule="evenodd" d="M36.93 26.9355L36.9959 27.121L2.73369 39.3851L2.67188 39.1997L36.93 26.9355Z" fill="#9245DD"/>
<path fill-rule="evenodd" clip-rule="evenodd" d="M36.9752 27.0586L37.0411 27.244L2.77883 39.5082L2.71289 39.3227L36.9752 27.0586Z" fill="#9045DD"/>
<path fill-rule="evenodd" clip-rule="evenodd" d="M37.0211 27.1816L37.087 27.3671L2.82473 39.6271L2.75879 39.4458L37.0211 27.1816Z" fill="#8F45DD"/>
<path fill-rule="evenodd" clip-rule="evenodd" d="M37.0619 27.3066L37.1278 27.4921L2.86965 39.7521L2.80371 39.5708L37.0619 27.3066Z" fill="#8D45DE"/>
<path fill-rule="evenodd" clip-rule="evenodd" d="M37.107 27.4297L37.1729 27.6151L2.91066 39.8751L2.84473 39.6897L37.107 27.4297Z" fill="#8C45DE"/>
<path fill-rule="evenodd" clip-rule="evenodd" d="M37.1529 27.5547L37.2188 27.7401L2.95656 40.0001L2.89062 39.8147L37.1529 27.5547Z" fill="#8A46DE"/>
<path fill-rule="evenodd" clip-rule="evenodd" d="M37.1937 27.6777L37.2596 27.8632L3.00148 40.1232L2.93555 39.9377L37.1937 27.6777Z" fill="#8946DE"/>
<path fill-rule="evenodd" clip-rule="evenodd" d="M37.2398 27.8008L37.3057 27.9862L3.04348 40.2462L2.97754 40.0608L37.2398 27.8008Z" fill="#8746DE"/>
<path fill-rule="evenodd" clip-rule="evenodd" d="M37.2847 27.9238L37.3507 28.1093L3.0884 40.3693L3.02246 40.1838L37.2847 27.9238Z" fill="#8646DE"/>
<path fill-rule="evenodd" clip-rule="evenodd" d="M37.3296 28.0488L37.3956 28.2343L3.13332 40.4943L3.06738 40.3088L37.3296 28.0488Z" fill="#8547DF"/>
<path fill-rule="evenodd" clip-rule="evenodd" d="M37.3714 28.1719L37.4374 28.3532L3.17922 40.6173L3.11328 40.4319L37.3714 28.1719Z" fill="#8347DF"/>
<path fill-rule="evenodd" clip-rule="evenodd" d="M37.4166 28.291L37.4825 28.4765L3.22023 40.7406L3.1543 40.5551L37.4166 28.291Z" fill="#8247DF"/>
<path fill-rule="evenodd" clip-rule="evenodd" d="M37.4615 28.4141L37.5274 28.5995L3.26516 40.8636L3.19922 40.6782L37.4615 28.4141Z" fill="#8147DF"/>
<path fill-rule="evenodd" clip-rule="evenodd" d="M37.5033 28.5391L37.5692 28.7245L3.31105 40.9886L3.24512 40.8032L37.5033 28.5391Z" fill="#8047DF"/>
<path fill-rule="evenodd" clip-rule="evenodd" d="M37.5484 28.6621L37.6143 28.8476L3.35207 41.1076L3.28613 40.9262L37.5484 28.6621Z" fill="#7E48DF"/>
<path fill-rule="evenodd" clip-rule="evenodd" d="M37.5933 28.7852L37.6593 28.9706L3.39699 41.2306L3.33105 41.0452L37.5933 28.7852Z" fill="#7D48DF"/>
<path fill-rule="evenodd" clip-rule="evenodd" d="M37.6392 28.9102L37.7052 29.0956L3.44289 41.3556L3.37695 41.1702L37.6392 28.9102Z" fill="#7C48E0"/>
<path fill-rule="evenodd" clip-rule="evenodd" d="M37.6802 29.0332L37.7462 29.2187L3.48803 41.4786L3.41797 41.2932L37.6802 29.0332Z" fill="#7B48E0"/>
<path fill-rule="evenodd" clip-rule="evenodd" d="M37.7252 29.1562L37.7911 29.3417L3.52883 41.6017L3.46289 41.4162L37.7252 29.1562Z" fill="#7A48E0"/>
<path fill-rule="evenodd" clip-rule="evenodd" d="M37.7711 29.2793L37.837 29.4647L3.57473 41.7247L3.50879 41.5393L37.7711 29.2793Z" fill="#7948E0"/>
<path fill-rule="evenodd" clip-rule="evenodd" d="M37.8118 29.4043L37.8778 29.5897L3.61965 41.8497L3.55371 41.6643L37.8118 29.4043Z" fill="#7849E0"/>
<path fill-rule="evenodd" clip-rule="evenodd" d="M37.858 29.5273L37.9239 29.7087L3.66164 41.9728L3.5957 41.7873L37.858 29.5273Z" fill="#7749E0"/>
<path fill-rule="evenodd" clip-rule="evenodd" d="M37.9029 29.6465L37.9688 29.8319L3.70656 42.096L3.64062 41.9106L37.9029 29.6465Z" fill="#7649E0"/>
<path fill-rule="evenodd" clip-rule="evenodd" d="M37.9437 29.7695L38.0137 29.955L3.75148 42.2191L3.68555 42.0336L37.9437 29.7695Z" fill="#7549E0"/>
<path fill-rule="evenodd" clip-rule="evenodd" d="M37.9898 29.8945L38.0557 30.08L3.79348 42.3441L3.72754 42.1586L37.9898 29.8945Z" fill="#7449E0"/>
<path fill-rule="evenodd" clip-rule="evenodd" d="M38.0347 30.0176L38.1007 30.203L3.8384 42.4671L3.77246 42.2817L38.0347 30.0176Z" fill="#7349E0"/>
<path fill-rule="evenodd" clip-rule="evenodd" d="M38.0796 30.1426L38.1456 30.328L3.88332 42.588L3.81738 42.4026L38.0796 30.1426Z" fill="#7349E1"/>
<path fill-rule="evenodd" clip-rule="evenodd" d="M38.1216 30.2656L38.1876 30.4511L3.92943 42.7111L3.85938 42.5256L38.1216 30.2656Z" fill="#7249E1"/>
<path fill-rule="evenodd" clip-rule="evenodd" d="M38.1666 30.3887L38.2325 30.5741L3.97023 42.8341L3.9043 42.6487L38.1666 30.3887Z" fill="#7149E1"/>
<path fill-rule="evenodd" clip-rule="evenodd" d="M38.2125 30.5117L38.2784 30.6972L4.01613 42.9572L3.9502 42.7717L38.2125 30.5117Z" fill="#714AE1"/>
<path fill-rule="evenodd" clip-rule="evenodd" d="M38.2533 30.6367L38.3192 30.8222L4.06105 43.0822L3.99512 42.8967L38.2533 30.6367Z" fill="#704AE1"/>
<path fill-rule="evenodd" clip-rule="evenodd" d="M38.2984 30.7598L38.3643 30.9452L4.10207 43.2052L4.03613 43.0198L38.2984 30.7598Z" fill="#704AE1"/>
<path fill-rule="evenodd" clip-rule="evenodd" d="M38.3433 30.8828L38.4093 31.0683L4.14699 43.3283L4.08105 43.1428L38.3433 30.8828Z" fill="#6F4AE1"/>
<path fill-rule="evenodd" clip-rule="evenodd" d="M38.3851 31.002L38.4552 31.1874L4.19289 43.4515L4.12695 43.2661L38.3851 31.002Z" fill="#6F4AE1"/>
<path fill-rule="evenodd" clip-rule="evenodd" d="M38.4302 31.127L38.4962 31.3124L4.23391 43.5765L4.16797 43.3911L38.4302 31.127Z" fill="#6F4AE1"/>
<path fill-rule="evenodd" clip-rule="evenodd" d="M38.4761 31.25L38.5421 31.4354L4.2798 43.6996L4.21387 43.5141L38.4761 31.25Z" fill="#6E4AE1"/>
<path fill-rule="evenodd" clip-rule="evenodd" d="M38.5211 31.373L38.587 31.5585L4.32473 43.8226L4.25879 43.6372L38.5211 31.373Z" fill="#6E4AE1"/>
<path fill-rule="evenodd" clip-rule="evenodd" d="M38.5618 31.498L38.6278 31.6835L4.36965 43.9435L4.30371 43.7622L38.5618 31.498Z" fill="#6E4AE1"/>
<path fill-rule="evenodd" clip-rule="evenodd" d="M38.607 31.6211L38.6729 31.8065L4.41066 44.0665L4.34473 43.8811L38.607 31.6211Z" fill="#6E4AE1"/>
<path fill-rule="evenodd" clip-rule="evenodd" d="M38.6529 31.7441L39.5265 34.1838L5.26428 46.4438L4.39062 44.0041L38.6529 31.7441Z" fill="#6E4AE1"/>
</g>
</svg>
