<svg width="32" height="34" viewBox="0 0 32 34" fill="none" xmlns="http://www.w3.org/2000/svg">
<path d="M1.2238 1.07876C0.832134 1.47851 0.605469 2.10089 0.605469 2.90689V31.6564C0.605469 32.4624 0.832134 33.0848 1.2238 33.4845L1.32047 33.5723L17.8438 17.4685V17.0883L1.32047 0.984517L1.2238 1.07876Z" fill="url(#paint0_linear_11772_10633)"/>
<path d="M23.3454 22.8398L17.8438 17.4692V17.089L23.3521 11.7183L23.4754 11.7882L29.9987 15.4071C31.8604 16.4341 31.8604 18.1241 29.9987 19.1576L23.4754 22.77L23.3454 22.8398Z" fill="url(#paint1_linear_11772_10633)"/>
<path d="M23.4753 22.7695L17.8436 17.2787L1.22363 33.4848C1.84197 34.1185 2.8503 34.1949 3.99697 33.5612L23.4753 22.7695Z" fill="url(#paint2_linear_11772_10633)"/>
<path d="M23.4753 11.7884L3.99697 0.996802C2.8503 0.369552 1.84197 0.445925 1.22363 1.07967L17.8436 17.2793L23.4753 11.7884Z" fill="url(#paint3_linear_11772_10633)"/>
<defs>
<linearGradient id="paint0_linear_11772_10633" x1="16.3767" y1="31.9558" x2="-5.43341" y2="9.58643" gradientUnits="userSpaceOnUse">
<stop stop-color="#00A0FF"/>
<stop offset="0.0066" stop-color="#00A1FF"/>
<stop offset="0.2601" stop-color="#00BEFF"/>
<stop offset="0.5122" stop-color="#00D2FF"/>
<stop offset="0.7604" stop-color="#00DFFF"/>
<stop offset="1" stop-color="#00E3FF"/>
</linearGradient>
<linearGradient id="paint1_linear_11772_10633" x1="32.4229" y1="17.2773" x2="0.160421" y2="17.2773" gradientUnits="userSpaceOnUse">
<stop stop-color="#FFE000"/>
<stop offset="0.4087" stop-color="#FFBD00"/>
<stop offset="0.7754" stop-color="#FFA500"/>
<stop offset="1" stop-color="#FF9C00"/>
</linearGradient>
<linearGradient id="paint2_linear_11772_10633" x1="20.413" y1="14.2937" x2="-9.16334" y2="-16.0409" gradientUnits="userSpaceOnUse">
<stop stop-color="#FF3A44"/>
<stop offset="1" stop-color="#C31162"/>
</linearGradient>
<linearGradient id="paint3_linear_11772_10633" x1="-2.95997" y1="43.0502" x2="10.2472" y2="29.5046" gradientUnits="userSpaceOnUse">
<stop stop-color="#32A071"/>
<stop offset="0.0685" stop-color="#2DA771"/>
<stop offset="0.4762" stop-color="#15CF74"/>
<stop offset="0.8009" stop-color="#06E775"/>
<stop offset="1" stop-color="#00F076"/>
</linearGradient>
</defs>
</svg>
