<svg width="21" height="20" viewBox="0 0 21 20" fill="none" xmlns="http://www.w3.org/2000/svg">
<path d="M10.4991 19.2717C8.08784 19.2717 5.77548 18.3136 4.07093 16.6089C2.36639 14.9043 1.4082 12.5918 1.4082 10.1808C1.4082 7.76966 2.36629 5.45712 4.07093 3.75257C5.77557 2.04803 8.08802 1.08984 10.4991 1.08984C12.9102 1.08984 15.2227 2.04793 16.9273 3.75257C18.6318 5.45721 19.59 7.76966 19.59 10.1808C19.5872 12.5913 18.6284 14.9017 16.9246 16.6062C15.22 18.31 12.9097 19.2689 10.4991 19.2717ZM10.4991 2.48821C8.45929 2.48821 6.50275 3.29857 5.05948 4.74112C3.617 6.1843 2.80657 8.14093 2.80657 10.1808C2.80657 12.2206 3.61693 14.1771 5.05948 15.6204C6.50266 17.0629 8.45929 17.8733 10.4991 17.8733C12.5389 17.8733 14.4955 17.0629 15.9387 15.6204C17.3812 14.1772 18.1917 12.2206 18.1917 10.1808C18.1888 8.14166 17.3777 6.18639 15.936 4.74403C14.4935 3.30226 12.5382 2.49112 10.4993 2.48839L10.4991 2.48821Z" fill="#7E56DA"/>
<path d="M13.9952 7.38319H12.4974C12.4335 7.13745 12.3361 6.90237 12.2076 6.68361H13.9952C14.3816 6.68361 14.6948 6.37039 14.6948 5.98403C14.6948 5.59837 14.3816 5.28516 13.9952 5.28516H7.00232C6.61595 5.28516 6.30273 5.59837 6.30273 5.98403C6.30273 6.37039 6.61595 6.68361 7.00232 6.68361H9.79923C10.2971 6.68503 10.7559 6.95137 11.0038 7.38319H7.00232C6.61595 7.38319 6.30273 7.6957 6.30273 8.08207C6.30273 8.46843 6.61595 8.78165 7.00232 8.78165H11.0038C10.7559 9.21276 10.2971 9.47908 9.79923 9.48052H7.00232C6.61595 9.48052 6.30273 9.79374 6.30273 10.1801C6.30273 10.5665 6.61595 10.8797 7.00232 10.8797C8.07475 10.8797 10.6223 12.7526 11.2338 14.597C11.3637 14.9563 11.7522 15.1509 12.118 15.0394C12.2956 14.9826 12.4419 14.8562 12.525 14.69C12.6088 14.5238 12.6216 14.3306 12.5612 14.1552C12.042 12.8491 11.1727 11.7114 10.0485 10.8683C10.6216 10.8143 11.1642 10.5856 11.6024 10.212C12.0407 9.83845 12.3532 9.33916 12.4966 8.78163H13.9952C14.3816 8.78163 14.6948 8.46841 14.6948 8.08205C14.6948 7.69568 14.3816 7.38319 13.9952 7.38319Z" fill="#7E56DA"/>
</svg>
