<svg width="629" height="1258" viewBox="0 0 629 1258" fill="none" xmlns="http://www.w3.org/2000/svg">
<g opacity="0.25">
<path d="M418.646 1.43164C487.476 42.5287 544.051 102.212 581.367 173.402C483.668 366.283 283.273 499.298 53.3135 499.298C52.7614 499.298 52.3135 499.746 52.3135 500.298V500.313C52.3135 500.866 52.7614 501.313 53.3135 501.313C330.347 501.313 564.439 694.335 627.802 952.527C623.19 995.103 612.283 1035.87 596.096 1073.91C527.739 1037.38 449.681 1016.66 366.776 1016.66C187.947 1016.66 31.6502 1112.99 -53.1318 1256.55C-116.461 1210.93 -167.096 1148.64 -198.442 1076.26C-95.9829 899.039 95.7229 779.157 314.06 779.157C314.612 779.157 315.06 778.71 315.06 778.157V778.127C315.06 777.575 314.612 777.127 314.06 777.127C67.3308 777.127 -145.331 624.025 -233.684 408.142V372.559C-233.684 329.718 -227.329 288.282 -215.577 249.132C-157.129 273.923 -92.8688 287.654 -25.4062 287.654C172.065 287.654 342.074 170.234 418.646 1.43164Z" stroke="white" stroke-opacity="0.4" stroke-width="2" stroke-linejoin="round"/>
</g>
</svg>
