<svg width="34" height="34" viewBox="0 0 34 34" fill="none" xmlns="http://www.w3.org/2000/svg">
<path d="M12.4245 25.1019L23.2432 0.935547H17.2019L9.04734 20.2025H7.93889L6.42856 0.935547H0.199219L2.68836 25.1019H12.4245Z" fill="#7E56DA"/>
<path d="M19.8725 33.0625C25.6805 33.0625 30.3541 30.8409 31.9617 25.2804C33.2841 20.6455 30.056 18.0272 25.0517 17.5644L23.5738 17.4321C22.0635 17.2999 21.1041 16.4734 21.4866 15.0452C22.0051 13.3262 23.3988 12.5922 25.1814 12.5922C27.0288 12.5922 28.1502 13.7163 27.6252 15.475H33.4656C34.8463 10.6417 31.8191 7.4945 26.6528 7.4945C21.331 7.4945 19.3992 9.52213 17.2019 14.4305C15.9443 18.8339 16.9167 22.3646 21.4736 22.7613L22.9515 22.8935C24.9415 23.0588 26.5621 23.5547 26.1148 25.2804C25.512 27.3962 23.6192 27.9648 21.3504 27.9648C18.9845 27.9648 17.3639 26.94 17.9214 24.8837H12.081C10.629 30.0145 14.2201 33.0625 19.8725 33.0625Z" fill="#7E56DA"/>
</svg>
