<svg width="27" height="34" viewBox="0 0 27 34" fill="none" xmlns="http://www.w3.org/2000/svg">
<path d="M1.81865 30.9645H3.03108V32.1788C3.03108 33.1836 3.84645 34.0003 4.84972 34.0003H24.8546C25.8579 34.0003 26.6733 33.1836 26.6733 32.1788V4.85721C26.6733 3.85239 25.8579 3.03576 24.8546 3.03576H23.6422V1.82145C23.6422 0.816633 22.8268 0 21.8236 0H1.81865C0.815374 0 0 0.816633 0 1.82145V29.1431C0 30.1479 0.815374 30.9645 1.81865 30.9645ZM1.21243 1.82126C1.21243 1.48581 1.48371 1.21411 1.81865 1.21411H21.8236C22.1585 1.21411 22.4298 1.48581 22.4298 1.82126V3.03556H9.69945C9.54183 3.03556 9.38119 3.10235 9.27054 3.21467L3.20994 9.28463C3.09779 9.39543 3.0311 9.55633 3.03262 9.7142V27.3214C3.04626 28.1122 4.22837 28.1259 4.24505 27.3214V10.3212H8.48875C9.49202 10.3212 10.3074 9.50452 10.3074 8.4997V4.24945H24.8566C25.1915 4.24945 25.4628 4.52115 25.4628 4.8566V32.1782C25.4628 32.5137 25.1915 32.7854 24.8566 32.7854H4.8501C4.51517 32.7854 4.24389 32.5137 4.24389 32.1782V30.3568C4.24389 30.0213 3.9726 29.7496 3.63767 29.7496H1.81902C1.48409 29.7496 1.21281 29.4779 1.21281 29.1425L1.21243 1.82126ZM9.09304 5.10897V8.49992C9.09304 8.83537 8.82176 9.10707 8.48682 9.10707H5.1011L9.09304 5.10897Z" fill="#8247DF"/>
<path d="M9.98258 27.0175H19.7216C21.0977 27.0646 22.048 25.4192 21.319 24.2474L16.4495 15.7974C16.116 15.2191 15.5189 14.873 14.8521 14.873C14.1852 14.873 13.5881 15.2191 13.2547 15.7959L8.38519 24.2459C7.65773 25.4147 8.60646 27.0631 9.98258 27.0145V27.0175ZM9.43545 24.8546L14.305 16.4046C14.4702 16.1192 14.7414 16.0889 14.8521 16.0889C14.9612 16.0889 15.234 16.1192 15.3992 16.4046L20.2687 24.8546C20.4339 25.1399 20.3233 25.3919 20.2687 25.4875C20.2142 25.5816 20.0505 25.8032 19.7216 25.8032H9.98258C9.6537 25.8032 9.49004 25.5816 9.43545 25.4875C9.38089 25.3919 9.27026 25.1399 9.43545 24.8561V24.8546Z" fill="#8247DF"/>
<path d="M14.8528 24.5893C15.6499 24.5756 15.6499 23.3887 14.8528 23.375C14.0556 23.3887 14.0556 24.5756 14.8528 24.5893Z" fill="#8247DF"/>
<path d="M14.8523 22.1605C15.1872 22.1605 15.4585 21.8888 15.4585 21.5533V19.1247C15.4585 18.7893 15.1872 18.5176 14.8523 18.5176C14.5174 18.5176 14.2461 18.7893 14.2461 19.1247V21.5533C14.2461 21.8888 14.5174 22.1605 14.8523 22.1605Z" fill="#8247DF"/>
</svg>
